<svg width="119" height="102" viewBox="0 0 119 102" fill="none" xmlns="http://www.w3.org/2000/svg">
<path fill-rule="evenodd" clip-rule="evenodd" d="M59.2571 4.2385C56.3641 4.2385 54.0188 6.5837 54.0188 9.47665C54.0188 12.3696 56.3641 14.7148 59.2571 14.7148C62.1501 14.7148 64.4954 12.3696 64.4954 9.47665C64.4954 6.5837 62.1501 4.2385 59.2571 4.2385ZM61.7363 18.9533H56.7779V81.851H61.7363V18.9533ZM65.9749 81.851V16.161C67.0957 15.0347 67.9351 13.6282 68.3788 12.0557H84.9793C85.5998 14.6319 87.3265 16.777 89.6286 17.9606L74.895 40.0604H69.4374L70.0735 42.6797C71.7635 49.6392 74.4212 55.0728 78.3783 58.801C82.3811 62.5723 87.5042 64.4026 93.7019 64.5313C100.008 64.6622 105.626 63.0298 109.982 59.292C114.333 55.5592 117.19 49.9293 118.371 42.5131L118.762 40.0604H113.093L98.2273 17.7626C100.937 16.2075 102.763 13.2852 102.763 9.93648C102.763 4.95664 98.7259 0.919674 93.7459 0.919674C89.4958 0.919674 85.9325 3.85993 84.9793 7.81723H68.5892C67.8046 3.37464 63.9249 0 59.2571 0C54.5893 0 50.7097 3.37464 49.925 7.81723H33.535C32.5817 3.85993 29.0184 0.919674 24.7684 0.919674C19.7884 0.919674 15.7513 4.95664 15.7513 9.93648C15.7513 13.2851 17.5767 16.2074 20.2868 17.7626L5.45759 40.0058H0L0.636089 42.6252C2.32614 49.5846 4.98382 55.0182 8.9409 58.7464C12.9437 62.5178 18.0669 64.3481 24.2645 64.4767C30.5707 64.6076 36.1885 62.9752 40.545 59.2374C44.8958 55.5046 47.7523 49.8747 48.9341 42.4586L49.3249 40.0058H43.6554L28.9396 17.9326C31.2147 16.7434 32.9193 14.6117 33.535 12.0557H50.1354C50.5791 13.6282 51.4185 15.0347 52.5393 16.161V81.851H37.8241V88.2887H24.9483V101.724H93.5659V88.2887H80.6901V81.851H65.9749ZM42.0627 86.0895V88.2887H76.4515V86.0895H42.0627ZM29.1869 92.5272V97.4855H89.3273V92.5272H29.1869ZM24.5565 18.9993L38.5613 40.0058H10.5518L24.5565 18.9993ZM93.9939 19.0538L107.999 40.0604H79.9891L93.9939 19.0538ZM24.7684 5.15817C22.1293 5.15817 19.9899 7.2975 19.9899 9.93648C19.9899 12.5755 22.1293 14.7148 24.7684 14.7148C27.4074 14.7148 29.5468 12.5755 29.5468 9.93648C29.5468 7.2975 27.4074 5.15817 24.7684 5.15817ZM93.7459 5.15817C91.1068 5.15817 88.9674 7.2975 88.9674 9.93648C88.9674 12.5755 91.1068 14.7148 93.7459 14.7148C96.3849 14.7148 98.5243 12.5755 98.5243 9.93648C98.5243 7.2975 96.3849 5.15817 93.7459 5.15817ZM5.46481 44.2443C7.01458 49.3837 9.14531 53.1156 11.8476 55.6615C14.9434 58.5783 18.9908 60.1278 24.3525 60.2391C29.8703 60.3537 34.3937 58.9304 37.785 56.0207C40.7508 53.4761 43.0312 49.6396 44.2734 44.2443H5.46481ZM74.9022 44.2989C76.452 49.4382 78.5827 53.1701 81.2849 55.7161C84.3808 58.6329 88.4282 60.1824 93.7899 60.2937C99.3077 60.4082 103.831 58.9849 107.222 56.0753C110.188 53.5306 112.469 49.6942 113.711 44.2989H74.9022Z" fill="#E6E4D9"/>
</svg>
