<svg width="16" height="17" viewBox="0 0 16 17" fill="none" xmlns="http://www.w3.org/2000/svg">
<path fill-rule="evenodd" clip-rule="evenodd" d="M6.04939 8.50004L0.322183 2.77284C-0.107394 2.34326 -0.107394 1.64678 0.322183 1.2172C0.751759 0.787625 1.44824 0.787625 1.87782 1.2172L7.60503 6.94441L13.3322 1.2172C13.7618 0.787625 14.4583 0.787625 14.8879 1.2172C15.3174 1.64678 15.3174 2.34326 14.8879 2.77284L9.16066 8.50004L14.8879 14.2273C15.3174 14.6568 15.3174 15.3533 14.8879 15.7829C14.4583 16.2125 13.7618 16.2125 13.3322 15.7829L7.60503 10.0557L1.87782 15.7829C1.44824 16.2125 0.751759 16.2125 0.322182 15.7829C-0.107394 15.3533 -0.107394 14.6568 0.322183 14.2273L6.04939 8.50004Z" fill="#13637E"/>
</svg>
