<svg width="99" height="102" viewBox="0 0 99 102" fill="none" xmlns="http://www.w3.org/2000/svg">
<path fill-rule="evenodd" clip-rule="evenodd" d="M60.1628 79.6951C60.1628 73.6955 55.322 68.8317 49.3506 68.8317C43.383 68.8394 38.5461 73.6985 38.5384 79.6951C38.5384 82.961 39.9728 85.8903 42.2431 87.8817C37.5014 90.4336 34.2762 95.4592 34.2762 101.242H38.7626C38.7626 95.3664 43.5029 90.6036 49.3505 90.6036C55.1981 90.6036 59.9384 95.3665 59.9384 101.242H64.4249C64.4249 95.4592 61.1997 90.4336 56.458 87.8818C58.7284 85.8903 60.1628 82.961 60.1628 79.6951ZM55.6764 79.6951C55.6764 83.2055 52.8443 86.0509 49.3506 86.0509C45.8595 86.0457 43.0299 83.2033 43.0248 79.6951C43.0248 76.1848 45.8569 73.3394 49.3506 73.3394C52.8444 73.3394 55.6764 76.1848 55.6764 79.6951Z" fill="#E6E4D9"/>
<path fill-rule="evenodd" clip-rule="evenodd" d="M94.4388 79.6951C94.4388 73.6955 89.598 68.8317 83.6265 68.8317C77.6589 68.8394 72.8221 73.6985 72.8144 79.6951C72.8144 82.9483 74.2377 85.8675 76.4927 87.8585C71.7405 90.413 68.5076 95.448 68.5076 101.242H72.9941C72.9941 95.354 77.7444 90.5811 83.6043 90.5811C89.4641 90.5811 94.2146 95.354 94.2146 101.242H98.7008C98.7008 95.4592 95.4806 90.4325 90.7436 87.8734C93.0084 85.8821 94.4388 82.9564 94.4388 79.6951ZM89.9524 79.6951C89.9524 83.2055 87.1203 86.0509 83.6265 86.0509C80.1354 86.0457 77.306 83.2033 77.3009 79.6951C77.3009 76.1848 80.133 73.3394 83.6266 73.3394C87.1204 73.3394 89.9524 76.1848 89.9524 79.6951Z" fill="#E6E4D9"/>
<path fill-rule="evenodd" clip-rule="evenodd" d="M25.8869 79.6951C25.8869 73.6955 21.0461 68.8317 15.0747 68.8317C9.10707 68.8394 4.27008 73.6985 4.26241 79.6951C4.26241 82.9564 5.69281 85.8822 7.95765 87.8735C3.22068 90.4327 0.000393611 95.4593 0.000393611 101.242H4.48687C4.48687 95.354 9.23725 90.5811 15.0971 90.5811C20.957 90.5811 25.7074 95.354 25.7074 101.242H30.1938C30.1938 95.4479 26.9609 90.4129 22.2087 87.8584C24.4636 85.8674 25.8869 82.9482 25.8869 79.6951ZM21.4005 79.6951C21.4005 83.2055 18.5684 86.0509 15.0747 86.0509C11.5836 86.0457 8.754 83.2033 8.74888 79.6951C8.74888 76.1848 11.581 73.3394 15.0747 73.3394C18.5685 73.3394 21.4005 76.1848 21.4005 79.6951Z" fill="#E6E4D9"/>
<path d="M53.25 15.1911C53.3125 15.1886 53.3753 15.1874 53.4383 15.1874C55.8386 15.1874 57.7985 17.081 57.9192 19.4733C57.9192 25.9193 49.3503 28.0828 49.3503 28.0828C49.3503 28.0828 40.7813 25.9193 40.9608 19.6988C40.9608 17.2092 42.9694 15.1911 45.4472 15.1911H45.446C45.4487 15.1911 45.4513 15.191 45.4539 15.191C45.4597 15.1909 45.4655 15.1909 45.4713 15.1909C47.0405 15.1909 48.4386 15.9269 49.3505 17.0843L49.3584 17.0739C50.2621 15.9268 51.6603 15.1909 53.2295 15.1909L53.25 15.1911Z" fill="#E6E4D9"/>
<path d="M78.9583 15.1911C79.0774 15.1816 79.1978 15.1767 79.3194 15.1767C81.7972 15.1767 83.8058 17.1948 83.8058 19.6843V19.6988C83.8058 26.1447 75.2367 28.3082 75.2367 28.3082C75.2367 28.3082 66.6678 26.1447 66.6678 19.6988C66.6678 17.2092 68.6764 15.1911 71.1542 15.1911H71.1528C71.1614 15.1909 71.1696 15.1909 71.1781 15.1909C72.7473 15.1909 74.1454 15.9269 75.0573 17.0843L75.0657 17.073C75.9434 15.928 77.3216 15.1902 78.8712 15.1902C78.9016 15.1902 78.9322 15.1905 78.9583 15.1911Z" fill="#E6E4D9"/>
<path d="M27.5439 15.1911C27.6632 15.1816 27.7837 15.1767 27.9054 15.1767C30.3832 15.1767 32.3919 17.1948 32.3919 19.6843V19.6989C32.3919 26.1447 23.8228 28.3083 23.8228 28.3083C23.8228 28.3083 15.2539 26.1447 15.2539 19.6987C15.2539 17.2091 17.2626 15.1912 19.7404 15.1912H19.7354C19.7667 15.1906 19.798 15.1903 19.8295 15.1903C21.3792 15.1903 22.7573 15.928 23.6434 17.0843L23.6513 17.0739C24.555 15.9268 25.9532 15.1909 27.5224 15.1909L27.5439 15.1911Z" fill="#E6E4D9"/>
<path fill-rule="evenodd" clip-rule="evenodd" d="M98.7009 10.863C98.6933 4.8671 93.857 0.00800837 87.8887 0.000296631H10.8126L10.8115 0C4.84407 0.00790948 0.00787221 4.8669 0 10.8637V32.4088C0 35.3983 1.19972 38.1069 3.14072 40.0733C5.07689 42.0226 7.75393 43.2285 10.7114 43.2285H17.1381V53.7087L32.8943 43.1383H39.8527L49.3503 52.6811L58.8481 43.1383H65.8065L81.5628 53.6953V43.215H87.9304C87.9341 43.2151 87.9378 43.2151 87.9415 43.2151C87.9575 43.2152 87.9735 43.2152 87.9895 43.2152C90.947 43.2152 93.6241 42.0093 95.5604 40.0596L95.5597 40.0603C97.5014 38.0937 98.7009 35.386 98.7009 32.3972V10.863ZM92.3749 36.873C91.2445 38.0143 89.6796 38.7209 87.9507 38.7209H77.0628V45.2798L67.157 38.6311H56.9772L49.3503 46.2941L41.7234 38.6311H31.5304L21.6245 45.2798V38.7211H10.7504C9.02126 38.7211 7.45676 38.0147 6.32631 36.8731C5.18926 35.7239 4.48667 34.1404 4.48667 32.392V10.8632C4.49179 7.35552 7.32086 4.51305 10.8125 4.50791H87.889C91.3801 4.51305 94.2092 7.35552 94.2143 10.8637V32.3635C94.2145 32.3714 94.2145 32.3794 94.2145 32.3873V32.3938C94.2145 34.1417 93.5117 35.7248 92.3749 36.873Z" fill="#E6E4D9"/>
</svg>
