<svg width="47" height="46" viewBox="0 0 47 46" fill="none" xmlns="http://www.w3.org/2000/svg">
<path fill-rule="evenodd" clip-rule="evenodd" d="M23.5938 45.6055C36.1874 45.6055 46.3966 35.3964 46.3966 22.8028C46.3966 10.2091 36.1874 0 23.5938 0C11.0001 0 0.790894 10.2091 0.790894 22.8028C0.790894 35.3964 11.0001 45.6055 23.5938 45.6055ZM23.3753 15.5379C24.7225 13.9707 26.7109 13.0588 28.9513 13.0588C30.9026 13.0613 32.7734 13.8616 34.1532 15.2843C35.533 16.707 36.3092 18.6359 36.3116 20.6479C36.3116 28.9659 24.5117 35.6121 24.0099 35.8915C23.8149 35.9998 23.5968 36.0565 23.3753 36.0565C23.1538 36.0565 22.9358 35.9998 22.7408 35.8915C22.2389 35.6121 10.4391 28.9659 10.4391 20.6479C10.4414 18.6359 11.2177 16.707 12.5975 15.2843C13.9773 13.8616 15.848 13.0613 17.7994 13.0588C20.0398 13.0588 22.0282 13.9707 23.3753 15.5379Z" fill="#13637E"/>
</svg>
