<svg width="484" height="556" viewBox="0 0 484 556" fill="none" xmlns="http://www.w3.org/2000/svg">
<path d="M217.289 21.5L211.666 4.05847H215.514L218.113 12.4294L219.487 17.9017H219.562L220.887 12.4294L223.485 4.05847H227.209L221.536 21.5H217.289ZM231.142 6.98205C230.392 6.98205 229.842 6.81547 229.492 6.48229C229.159 6.13246 228.993 5.69101 228.993 5.15794V4.6082C228.993 4.07513 229.159 3.64201 229.492 3.30884C229.842 2.95901 230.392 2.78409 231.142 2.78409C231.891 2.78409 232.433 2.95901 232.766 3.30884C233.116 3.64201 233.29 4.07513 233.29 4.6082V5.15794C233.29 5.69101 233.116 6.13246 232.766 6.48229C232.433 6.81547 231.891 6.98205 231.142 6.98205ZM229.292 8.38137H232.991V21.5H229.292V8.38137ZM240.89 21.7999C239.624 21.7999 238.558 21.6 237.692 21.2001C236.825 20.7837 236.051 20.2006 235.368 19.451L237.542 17.2521C238.008 17.7685 238.525 18.1766 239.091 18.4765C239.657 18.7763 240.299 18.9263 241.015 18.9263C241.748 18.9263 242.256 18.818 242.539 18.6014C242.823 18.3682 242.964 18.06 242.964 17.6769C242.964 17.0605 242.523 16.694 241.64 16.5774L240.215 16.4025C237.267 16.036 235.793 14.6866 235.793 12.3544C235.793 11.7214 235.909 11.1467 236.142 10.6303C236.392 10.0972 236.734 9.64742 237.167 9.28094C237.617 8.89779 238.15 8.60626 238.766 8.40636C239.399 8.1898 240.107 8.08152 240.89 8.08152C241.573 8.08152 242.173 8.13149 242.689 8.23145C243.222 8.31474 243.689 8.44801 244.089 8.63125C244.505 8.79784 244.88 9.0144 245.213 9.28094C245.563 9.53081 245.904 9.81401 246.238 10.1305L244.114 12.3045C243.697 11.888 243.222 11.5632 242.689 11.3299C242.173 11.0801 241.64 10.9551 241.09 10.9551C240.457 10.9551 240.007 11.0551 239.741 11.255C239.474 11.4549 239.341 11.7214 239.341 12.0546C239.341 12.4044 239.433 12.6793 239.616 12.8792C239.816 13.0624 240.182 13.1957 240.715 13.279L242.189 13.4789C245.071 13.862 246.512 15.1781 246.512 17.427C246.512 18.06 246.379 18.6431 246.113 19.1761C245.846 19.7092 245.463 20.1756 244.963 20.5754C244.48 20.9586 243.889 21.2585 243.189 21.475C242.506 21.6916 241.74 21.7999 240.89 21.7999ZM250.883 6.98205C250.133 6.98205 249.584 6.81547 249.234 6.48229C248.901 6.13246 248.734 5.69101 248.734 5.15794V4.6082C248.734 4.07513 248.901 3.64201 249.234 3.30884C249.584 2.95901 250.133 2.78409 250.883 2.78409C251.633 2.78409 252.174 2.95901 252.507 3.30884C252.857 3.64201 253.032 4.07513 253.032 4.6082V5.15794C253.032 5.69101 252.857 6.13246 252.507 6.48229C252.174 6.81547 251.633 6.98205 250.883 6.98205ZM249.034 8.38137H252.732V21.5H249.034V8.38137ZM260.781 21.5C259.499 21.5 258.524 21.1752 257.858 20.5255C257.208 19.8758 256.883 18.9263 256.883 17.6769V11.255H255.034V8.38137H255.959C256.459 8.38137 256.8 8.26476 256.983 8.03154C257.167 7.78166 257.258 7.43183 257.258 6.98205V4.83309H260.582V8.38137H263.18V11.255H260.582V18.6264H262.98V21.5H260.781ZM275.445 21.5C274.778 21.5 274.22 21.2918 273.77 20.8753C273.337 20.4588 273.062 19.9008 272.946 19.2011H272.796C272.596 20.0507 272.155 20.7004 271.472 21.1502C270.789 21.5833 269.947 21.7999 268.948 21.7999C267.632 21.7999 266.624 21.45 265.924 20.7504C265.225 20.0507 264.875 19.1262 264.875 17.9767C264.875 16.594 265.375 15.5695 266.374 14.9032C267.39 14.2202 268.765 13.8787 270.497 13.8787H272.571V13.0541C272.571 12.4211 272.404 11.9213 272.071 11.5548C271.738 11.1717 271.18 10.9801 270.397 10.9801C269.664 10.9801 269.081 11.1384 268.648 11.4549C268.215 11.7714 267.857 12.1296 267.573 12.5294L265.375 10.5803C265.908 9.79735 266.574 9.18931 267.374 8.75619C268.19 8.30641 269.289 8.08152 270.672 8.08152C272.538 8.08152 273.937 8.48965 274.87 9.30592C275.803 10.1222 276.269 11.3133 276.269 12.8792V18.6264H277.494V21.5H275.445ZM270.322 19.2261C270.938 19.2261 271.463 19.0928 271.896 18.8263C272.346 18.5598 272.571 18.1266 272.571 17.5269V15.9777H270.772C269.323 15.9777 268.598 16.4691 268.598 17.452V17.8268C268.598 18.3099 268.748 18.668 269.048 18.9013C269.348 19.1178 269.772 19.2261 270.322 19.2261Z" fill="#E59A02"/>
<path d="M189.288 550.984H185.49V533.543H193.761C194.56 533.543 195.285 533.676 195.935 533.943C196.584 534.209 197.134 534.592 197.584 535.092C198.05 535.575 198.408 536.158 198.658 536.841C198.908 537.524 199.033 538.282 199.033 539.115C199.033 540.298 198.767 541.331 198.234 542.214C197.717 543.097 196.926 543.738 195.86 544.138L199.283 550.984H195.06L192.012 544.587H189.288V550.984ZM193.286 541.389C193.852 541.389 194.294 541.247 194.61 540.964C194.943 540.664 195.11 540.231 195.11 539.665V538.565C195.11 537.999 194.943 537.574 194.61 537.291C194.294 536.991 193.852 536.841 193.286 536.841H189.288V541.389H193.286ZM203.976 536.466C203.227 536.466 202.677 536.3 202.327 535.967C201.994 535.617 201.827 535.175 201.827 534.642V534.093C201.827 533.56 201.994 533.126 202.327 532.793C202.677 532.443 203.227 532.268 203.976 532.268C204.726 532.268 205.267 532.443 205.601 532.793C205.95 533.126 206.125 533.56 206.125 534.093V534.642C206.125 535.175 205.95 535.617 205.601 535.967C205.267 536.3 204.726 536.466 203.976 536.466ZM202.127 537.866H205.826V550.984H202.127V537.866ZM217.323 548.785H217.198C217.098 549.135 216.94 549.468 216.724 549.785C216.507 550.085 216.24 550.351 215.924 550.585C215.624 550.801 215.274 550.968 214.874 551.084C214.491 551.218 214.092 551.284 213.675 551.284C212.009 551.284 210.751 550.701 209.902 549.535C209.052 548.352 208.628 546.645 208.628 544.413C208.628 542.18 209.052 540.481 209.902 539.315C210.751 538.149 212.009 537.566 213.675 537.566C214.525 537.566 215.274 537.799 215.924 538.266C216.59 538.732 217.015 539.332 217.198 540.065H217.323V537.866H221.021V555.982H217.323V548.785ZM214.899 548.286C215.599 548.286 216.174 548.119 216.624 547.786C217.09 547.436 217.323 546.961 217.323 546.362V542.489C217.323 541.889 217.09 541.422 216.624 541.089C216.174 540.739 215.599 540.564 214.899 540.564C214.2 540.564 213.617 540.814 213.15 541.314C212.701 541.797 212.476 542.455 212.476 543.288V545.562C212.476 546.395 212.701 547.061 213.15 547.561C213.617 548.044 214.2 548.286 214.899 548.286ZM232.226 548.785H232.101C231.984 549.119 231.826 549.435 231.626 549.735C231.443 550.035 231.202 550.301 230.902 550.535C230.602 550.768 230.244 550.951 229.827 551.084C229.427 551.218 228.961 551.284 228.428 551.284C227.079 551.284 226.054 550.843 225.354 549.96C224.671 549.06 224.33 547.778 224.33 546.112V537.866H228.028V545.787C228.028 546.587 228.17 547.203 228.453 547.636C228.736 548.069 229.219 548.286 229.902 548.286C230.185 548.286 230.469 548.244 230.752 548.161C231.035 548.077 231.285 547.961 231.501 547.811C231.718 547.644 231.893 547.444 232.026 547.211C232.159 546.978 232.226 546.703 232.226 546.387V537.866H235.924V550.984H232.226V548.785ZM249.06 550.984C248.394 550.984 247.836 550.776 247.386 550.36C246.953 549.943 246.678 549.385 246.562 548.685H246.412C246.212 549.535 245.77 550.185 245.087 550.635C244.404 551.068 243.563 551.284 242.564 551.284C241.248 551.284 240.24 550.934 239.54 550.235C238.84 549.535 238.491 548.611 238.491 547.461C238.491 546.078 238.99 545.054 239.99 544.388C241.006 543.705 242.38 543.363 244.113 543.363H246.187V542.538C246.187 541.905 246.02 541.406 245.687 541.039C245.354 540.656 244.796 540.464 244.013 540.464C243.28 540.464 242.697 540.623 242.264 540.939C241.831 541.256 241.472 541.614 241.189 542.014L238.99 540.065C239.523 539.282 240.19 538.674 240.989 538.241C241.806 537.791 242.905 537.566 244.288 537.566C246.153 537.566 247.553 537.974 248.486 538.79C249.419 539.607 249.885 540.798 249.885 542.364V548.111H251.109V550.984H249.06ZM243.938 548.71C244.554 548.71 245.079 548.577 245.512 548.311C245.962 548.044 246.187 547.611 246.187 547.011V545.462H244.388C242.938 545.462 242.214 545.953 242.214 546.936V547.311C242.214 547.794 242.364 548.152 242.664 548.386C242.963 548.602 243.388 548.71 243.938 548.71ZM257.265 550.984C255.999 550.984 255.066 550.676 254.466 550.06C253.883 549.443 253.592 548.552 253.592 547.386V532.493H257.29V548.111H258.939V550.984H257.265ZM263.005 536.466C262.256 536.466 261.706 536.3 261.356 535.967C261.023 535.617 260.856 535.175 260.856 534.642V534.093C260.856 533.56 261.023 533.126 261.356 532.793C261.706 532.443 262.256 532.268 263.005 532.268C263.755 532.268 264.296 532.443 264.63 532.793C264.979 533.126 265.154 533.56 265.154 534.093V534.642C265.154 535.175 264.979 535.617 264.63 535.967C264.296 536.3 263.755 536.466 263.005 536.466ZM261.156 537.866H264.854V550.984H261.156V537.866ZM268.956 540.739H267.107V537.866H268.956V536.316C268.956 535.05 269.289 534.101 269.955 533.468C270.622 532.818 271.596 532.493 272.879 532.493H275.278V535.367H272.654V537.866H281.025V550.984H277.327V540.739H272.654V550.984H268.956V540.739ZM279.176 536.466C278.426 536.466 277.876 536.3 277.527 535.967C277.193 535.617 277.027 535.175 277.027 534.642V534.093C277.027 533.56 277.193 533.126 277.527 532.793C277.876 532.443 278.426 532.268 279.176 532.268C279.925 532.268 280.467 532.443 280.8 532.793C281.15 533.126 281.325 533.56 281.325 534.093V534.642C281.325 535.175 281.15 535.617 280.8 535.967C280.467 536.3 279.925 536.466 279.176 536.466ZM289.782 551.284C288.799 551.284 287.925 551.126 287.158 550.809C286.392 550.476 285.751 550.018 285.234 549.435C284.718 548.835 284.327 548.111 284.06 547.261C283.793 546.412 283.66 545.462 283.66 544.413C283.66 543.363 283.793 542.422 284.06 541.589C284.327 540.739 284.718 540.015 285.234 539.415C285.751 538.815 286.392 538.357 287.158 538.041C287.925 537.724 288.799 537.566 289.782 537.566C291.115 537.566 292.223 537.866 293.106 538.465C294.005 539.065 294.647 539.906 295.03 540.989L292.031 542.289C291.915 541.789 291.673 541.364 291.306 541.014C290.94 540.664 290.432 540.489 289.782 540.489C289.033 540.489 288.466 540.739 288.083 541.239C287.7 541.722 287.508 542.38 287.508 543.213V545.662C287.508 546.495 287.7 547.153 288.083 547.636C288.466 548.119 289.033 548.361 289.782 548.361C290.449 548.361 290.973 548.186 291.356 547.836C291.756 547.469 292.048 546.995 292.231 546.412L295.105 547.661C294.672 548.91 293.997 549.827 293.081 550.41C292.181 550.993 291.082 551.284 289.782 551.284ZM307.089 550.984C306.423 550.984 305.864 550.776 305.415 550.36C304.982 549.943 304.707 549.385 304.59 548.685H304.44C304.24 549.535 303.799 550.185 303.116 550.635C302.433 551.068 301.592 551.284 300.592 551.284C299.276 551.284 298.268 550.934 297.568 550.235C296.869 549.535 296.519 548.611 296.519 547.461C296.519 546.078 297.019 545.054 298.018 544.388C299.034 543.705 300.409 543.363 302.141 543.363H304.215V542.538C304.215 541.905 304.049 541.406 303.715 541.039C303.382 540.656 302.824 540.464 302.041 540.464C301.308 540.464 300.725 540.623 300.292 540.939C299.859 541.256 299.501 541.614 299.218 542.014L297.019 540.065C297.552 539.282 298.218 538.674 299.018 538.241C299.834 537.791 300.934 537.566 302.316 537.566C304.182 537.566 305.581 537.974 306.514 538.79C307.447 539.607 307.913 540.798 307.913 542.364V548.111H309.138V550.984H307.089ZM301.966 548.71C302.583 548.71 303.107 548.577 303.541 548.311C303.99 548.044 304.215 547.611 304.215 547.011V545.462H302.416C300.967 545.462 300.242 545.953 300.242 546.936V547.311C300.242 547.794 300.392 548.152 300.692 548.386C300.992 548.602 301.417 548.71 301.966 548.71ZM310.87 550.984V548.061L317.392 540.739H311.095V537.866H321.69V540.764L315.143 548.111H321.865V550.984H310.87ZM326.402 536.466C325.653 536.466 325.103 536.3 324.753 535.967C324.42 535.617 324.253 535.175 324.253 534.642V534.093C324.253 533.56 324.42 533.126 324.753 532.793C325.103 532.443 325.653 532.268 326.402 532.268C327.152 532.268 327.693 532.443 328.027 532.793C328.376 533.126 328.551 533.56 328.551 534.093V534.642C328.551 535.175 328.376 535.617 328.027 535.967C327.693 536.3 327.152 536.466 326.402 536.466ZM324.553 537.866H328.251V550.984H324.553V537.866ZM337.025 551.284C336.059 551.284 335.193 551.126 334.427 550.809C333.677 550.493 333.036 550.035 332.503 549.435C331.986 548.835 331.586 548.111 331.303 547.261C331.02 546.412 330.878 545.462 330.878 544.413C330.878 543.363 331.02 542.414 331.303 541.564C331.586 540.714 331.986 539.998 332.503 539.415C333.036 538.815 333.677 538.357 334.427 538.041C335.193 537.724 336.059 537.566 337.025 537.566C337.992 537.566 338.85 537.724 339.599 538.041C340.366 538.357 341.007 538.815 341.523 539.415C342.056 539.998 342.465 540.714 342.748 541.564C343.031 542.414 343.173 543.363 343.173 544.413C343.173 545.462 343.031 546.412 342.748 547.261C342.465 548.111 342.056 548.835 341.523 549.435C341.007 550.035 340.366 550.493 339.599 550.809C338.85 551.126 337.992 551.284 337.025 551.284ZM337.025 548.361C337.758 548.361 338.325 548.136 338.725 547.686C339.124 547.236 339.324 546.595 339.324 545.762V543.088C339.324 542.255 339.124 541.614 338.725 541.164C338.325 540.714 337.758 540.489 337.025 540.489C336.293 540.489 335.726 540.714 335.326 541.164C334.927 541.614 334.727 542.255 334.727 543.088V545.762C334.727 546.595 334.927 547.236 335.326 547.686C335.726 548.136 336.293 548.361 337.025 548.361ZM345.808 550.984V537.866H349.506V540.09H349.656C349.889 539.407 350.297 538.815 350.88 538.316C351.463 537.816 352.271 537.566 353.304 537.566C354.653 537.566 355.669 538.016 356.352 538.915C357.052 539.815 357.402 541.098 357.402 542.763V550.984H353.704V543.063C353.704 542.214 353.57 541.589 353.304 541.189C353.037 540.773 352.563 540.564 351.88 540.564C351.58 540.564 351.288 540.606 351.005 540.689C350.722 540.756 350.464 540.873 350.23 541.039C350.014 541.206 349.839 541.414 349.706 541.664C349.572 541.897 349.506 542.172 349.506 542.489V550.984H345.808ZM366.165 551.284C365.166 551.284 364.274 551.126 363.492 550.809C362.709 550.476 362.042 550.018 361.493 549.435C360.959 548.835 360.551 548.111 360.268 547.261C360.002 546.412 359.868 545.462 359.868 544.413C359.868 543.38 360.002 542.447 360.268 541.614C360.535 540.764 360.926 540.04 361.443 539.44C361.976 538.84 362.625 538.382 363.392 538.066C364.158 537.732 365.032 537.566 366.015 537.566C367.098 537.566 368.023 537.749 368.789 538.116C369.572 538.482 370.205 538.974 370.688 539.59C371.188 540.206 371.546 540.923 371.763 541.739C371.996 542.538 372.112 543.38 372.112 544.263V545.362H363.691V545.562C363.691 546.428 363.925 547.12 364.391 547.636C364.858 548.136 365.591 548.386 366.59 548.386C367.356 548.386 367.981 548.236 368.464 547.936C368.947 547.619 369.397 547.245 369.813 546.811L371.663 549.11C371.08 549.793 370.313 550.326 369.364 550.71C368.431 551.093 367.365 551.284 366.165 551.284ZM366.09 540.29C365.341 540.29 364.749 540.539 364.316 541.039C363.9 541.522 363.691 542.172 363.691 542.988V543.188H368.289V542.963C368.289 542.164 368.106 541.522 367.739 541.039C367.39 540.539 366.84 540.29 366.09 540.29Z" fill="#FFC95D"/>
<path d="M21.4792 76.1366H29.9501C31.3994 76.1366 32.5239 76.5447 33.3235 77.361C34.1397 78.1773 34.5479 79.2601 34.5479 80.6094C34.5479 81.2758 34.4562 81.8422 34.273 82.3086C34.1064 82.775 33.8732 83.1582 33.5733 83.458C33.2901 83.7579 32.9486 83.9828 32.5488 84.1327C32.1657 84.266 31.7492 84.3409 31.2994 84.3576V84.5075C31.7159 84.5075 32.149 84.5825 32.5988 84.7324C33.0653 84.8823 33.4901 85.1239 33.8732 85.4571C34.2563 85.7736 34.5729 86.19 34.8227 86.7065C35.0893 87.2229 35.2225 87.8559 35.2225 88.6055C35.2225 89.2885 35.1059 89.9382 34.8727 90.5546C34.6562 91.1543 34.348 91.679 33.9482 92.1288C33.5484 92.5786 33.0736 92.9368 32.5239 93.2033C31.9741 93.4532 31.3744 93.5781 30.7247 93.5781H21.4792V76.1366ZM25.2774 90.3797H29.6502C30.15 90.3797 30.5415 90.2464 30.8247 89.9799C31.1245 89.6967 31.2745 89.3052 31.2745 88.8054V87.9559C31.2745 87.4561 31.1245 87.073 30.8247 86.8064C30.5415 86.5232 30.15 86.3816 29.6502 86.3816H25.2774V90.3797ZM25.2774 83.2831H29.0505C29.5503 83.2831 29.9418 83.1415 30.225 82.8583C30.5082 82.5751 30.6498 82.1837 30.6498 81.6839V80.9343C30.6498 80.4345 30.5082 80.043 30.225 79.7598C29.9418 79.4766 29.5503 79.335 29.0505 79.335H25.2774V83.2831ZM51.1896 82.1337H51.1146L49.8402 84.6824L46.4419 90.8544L43.1185 84.7074L41.7942 81.9588H41.7192V93.5781H38.1459V76.1366H42.169L46.4419 84.3076H46.4919L50.7148 76.1366H54.7629V93.5781H51.1896V82.1337Z" fill="#FFDB91"/>
<path d="M9.87462 50.7061C8.69186 50.7061 7.62571 50.5229 6.67617 50.1564C5.72663 49.7732 4.91869 49.2152 4.25235 48.4822C3.58601 47.7325 3.06959 46.808 2.7031 45.7085C2.33661 44.5924 2.15337 43.293 2.15337 41.8104C2.15337 40.3445 2.33661 39.0451 2.7031 37.9123C3.06959 36.7629 3.58601 35.805 4.25235 35.0387C4.91869 34.2558 5.72663 33.6644 6.67617 33.2646C7.62571 32.8648 8.69186 32.6649 9.87462 32.6649C11.4905 32.6649 12.8232 32.998 13.8727 33.6644C14.9222 34.3141 15.7634 35.3469 16.3965 36.7629L13.123 38.4621C12.8898 37.7291 12.5233 37.146 12.0236 36.7129C11.5405 36.2631 10.8242 36.0382 9.87462 36.0382C8.75849 36.0382 7.85893 36.4047 7.17593 37.1377C6.50959 37.854 6.17642 38.9035 6.17642 40.2862V43.0848C6.17642 44.4675 6.50959 45.5253 7.17593 46.2583C7.85893 46.9746 8.75849 47.3327 9.87462 47.3327C10.8075 47.3327 11.5488 47.0829 12.0985 46.5831C12.6649 46.0667 13.0814 45.4503 13.3479 44.734L16.4464 46.5331C15.7967 47.8658 14.9388 48.8986 13.8727 49.6316C12.8232 50.3479 11.4905 50.7061 9.87462 50.7061ZM24.2268 50.7061C23.2606 50.7061 22.3944 50.5478 21.6281 50.2313C20.8785 49.9148 20.2371 49.4567 19.704 48.857C19.1876 48.2573 18.7878 47.5326 18.5046 46.6831C18.2214 45.8335 18.0798 44.8839 18.0798 43.8344C18.0798 42.785 18.2214 41.8354 18.5046 40.9858C18.7878 40.1362 19.1876 39.4199 19.704 38.8369C20.2371 38.2372 20.8785 37.7791 21.6281 37.4625C22.3944 37.146 23.2606 36.9878 24.2268 36.9878C25.193 36.9878 26.0509 37.146 26.8006 37.4625C27.5669 37.7791 28.2082 38.2372 28.7246 38.8369C29.2577 39.4199 29.6659 40.1362 29.949 40.9858C30.2322 41.8354 30.3738 42.785 30.3738 43.8344C30.3738 44.8839 30.2322 45.8335 29.949 46.6831C29.6659 47.5326 29.2577 48.2573 28.7246 48.857C28.2082 49.4567 27.5669 49.9148 26.8006 50.2313C26.0509 50.5478 25.193 50.7061 24.2268 50.7061ZM24.2268 47.7825C24.9598 47.7825 25.5262 47.5576 25.926 47.1079C26.3258 46.6581 26.5257 46.0167 26.5257 45.1838V42.5101C26.5257 41.6772 26.3258 41.0358 25.926 40.586C25.5262 40.1362 24.9598 39.9113 24.2268 39.9113C23.4939 39.9113 22.9275 40.1362 22.5277 40.586C22.1278 41.0358 21.9279 41.6772 21.9279 42.5101V45.1838C21.9279 46.0167 22.1278 46.6581 22.5277 47.1079C22.9275 47.5576 23.4939 47.7825 24.2268 47.7825ZM33.0089 50.4062V37.2876H36.7071V39.5115H36.857C37.0902 38.8285 37.4984 38.2372 38.0814 37.7374C38.6645 37.2376 39.4724 36.9878 40.5052 36.9878C41.8546 36.9878 42.8708 37.4375 43.5538 38.3371C44.2534 39.2367 44.6033 40.5194 44.6033 42.1852V50.4062H40.9051V42.4851C40.9051 41.6355 40.7718 41.0108 40.5052 40.611C40.2387 40.1945 39.7639 39.9863 39.0809 39.9863C38.7811 39.9863 38.4896 40.028 38.2064 40.1113C37.9232 40.1779 37.665 40.2945 37.4317 40.4611C37.2152 40.6277 37.0403 40.8359 36.907 41.0858C36.7737 41.319 36.7071 41.5939 36.7071 41.9104V50.4062H33.0089ZM52.492 50.4062C51.2093 50.4062 50.2348 50.0814 49.5684 49.4317C48.9187 48.782 48.5939 47.8325 48.5939 46.5831V40.1612H46.7448V37.2876H47.6693C48.1691 37.2876 48.5106 37.171 48.6938 36.9378C48.8771 36.6879 48.9687 36.3381 48.9687 35.8883V33.7393H52.2921V37.2876H54.8908V40.1612H52.2921V47.5326H54.6909V50.4062H52.492ZM59.309 35.8883C58.5594 35.8883 58.0096 35.7217 57.6598 35.3885C57.3266 35.0387 57.16 34.5973 57.16 34.0642V33.5145C57.16 32.9814 57.3266 32.5483 57.6598 32.2151C58.0096 31.8653 58.5594 31.6903 59.309 31.6903C60.0586 31.6903 60.6 31.8653 60.9332 32.2151C61.283 32.5483 61.458 32.9814 61.458 33.5145V34.0642C61.458 34.5973 61.283 35.0387 60.9332 35.3885C60.6 35.7217 60.0586 35.8883 59.309 35.8883ZM57.4599 37.2876H61.1581V50.4062H57.4599V37.2876ZM64.6098 50.4062V37.2876H68.308V39.5115H68.4579C68.6911 38.8285 69.0992 38.2372 69.6823 37.7374C70.2653 37.2376 71.0733 36.9878 72.1061 36.9878C73.4555 36.9878 74.4716 37.4375 75.1546 38.3371C75.8543 39.2367 76.2041 40.5194 76.2041 42.1852V50.4062H72.5059V42.4851C72.5059 41.6355 72.3726 41.0108 72.1061 40.611C71.8396 40.1945 71.3648 39.9863 70.6818 39.9863C70.3819 39.9863 70.0904 40.028 69.8072 40.1113C69.524 40.1779 69.2658 40.2945 69.0326 40.4611C68.816 40.6277 68.6411 40.8359 68.5079 41.0858C68.3746 41.319 68.308 41.5939 68.308 41.9104V50.4062H64.6098ZM91.6392 51.3558C91.6392 52.0554 91.5143 52.6718 91.2644 53.2049C91.0312 53.738 90.6397 54.1877 90.09 54.5542C89.5402 54.9374 88.8072 55.2206 87.891 55.4038C86.9915 55.6037 85.8753 55.7037 84.5426 55.7037C83.4099 55.7037 82.4437 55.6287 81.6441 55.4788C80.8611 55.3455 80.2197 55.1456 79.72 54.8791C79.2369 54.6292 78.8787 54.3127 78.6455 53.9295C78.4289 53.563 78.3207 53.1383 78.3207 52.6552C78.3207 51.9222 78.5372 51.3475 78.9704 50.931C79.4035 50.5145 80.0032 50.2563 80.7695 50.1564V49.8815C80.1365 49.7649 79.6617 49.4984 79.3452 49.0819C79.0287 48.6488 78.8704 48.149 78.8704 47.5826C78.8704 47.2328 78.937 46.9329 79.0703 46.6831C79.2202 46.4165 79.4035 46.1916 79.62 46.0084C79.8533 45.8085 80.1198 45.6502 80.4196 45.5336C80.7195 45.417 81.0194 45.3254 81.3192 45.2588V45.1588C80.5196 44.7923 79.9282 44.2926 79.5451 43.6595C79.1619 43.0098 78.9704 42.2602 78.9704 41.4106C78.9704 40.0779 79.4285 39.0118 80.3447 38.2122C81.2776 37.3959 82.6935 36.9878 84.5926 36.9878C85.4589 36.9878 86.2002 37.0711 86.8165 37.2376V36.7379C86.8165 36.0382 86.9831 35.5385 87.3163 35.2386C87.6661 34.9221 88.1576 34.7638 88.7906 34.7638H90.8646V37.5125H87.966V37.6624C88.7323 38.0289 89.2987 38.537 89.6652 39.1867C90.0316 39.8197 90.2149 40.561 90.2149 41.4106C90.2149 42.7266 89.7485 43.7845 88.8156 44.5841C87.8993 45.367 86.4917 45.7585 84.5926 45.7585C83.743 45.7585 82.9684 45.6669 82.2688 45.4836C81.8856 45.7335 81.694 46.0833 81.694 46.5331C81.694 46.8496 81.8106 47.0995 82.0439 47.2828C82.2937 47.4494 82.7019 47.5326 83.2683 47.5326H87.0664C88.6656 47.5326 89.8234 47.8658 90.5397 48.5322C91.2727 49.1985 91.6392 50.1397 91.6392 51.3558ZM88.1659 51.8555C88.1659 51.4724 88.016 51.1809 87.7161 50.981C87.4163 50.7811 86.8915 50.6811 86.1419 50.6811H81.6441C81.4775 50.8477 81.3525 51.0309 81.2692 51.2308C81.2026 51.4474 81.1693 51.6556 81.1693 51.8555C81.1693 52.3386 81.3775 52.6885 81.794 52.905C82.2104 53.1383 82.9184 53.2549 83.9179 53.2549H85.4172C86.4167 53.2549 87.1247 53.1383 87.5412 52.905C87.9577 52.6885 88.1659 52.3386 88.1659 51.8555ZM84.5926 43.3347C85.3256 43.3347 85.867 43.1848 86.2168 42.8849C86.5833 42.5684 86.7666 42.1186 86.7666 41.5356V41.2357C86.7666 40.6527 86.5833 40.2112 86.2168 39.9113C85.867 39.5948 85.3256 39.4366 84.5926 39.4366C83.8596 39.4366 83.3099 39.5948 82.9434 39.9113C82.5936 40.2112 82.4187 40.6527 82.4187 41.2357V41.5356C82.4187 42.1186 82.5936 42.5684 82.9434 42.8849C83.3099 43.1848 83.8596 43.3347 84.5926 43.3347ZM98.6083 50.7061C97.6088 50.7061 96.7175 50.5478 95.9346 50.2313C95.1516 49.8982 94.4853 49.4401 93.9355 48.857C93.4025 48.2573 92.9943 47.5326 92.7111 46.6831C92.4446 45.8335 92.3113 44.8839 92.3113 43.8344C92.3113 42.8016 92.4446 41.8687 92.7111 41.0358C92.9777 40.1862 93.3692 39.4616 93.8856 38.8619C94.4186 38.2621 95.0683 37.804 95.8346 37.4875C96.6009 37.1544 97.4755 36.9878 98.4584 36.9878C99.5412 36.9878 100.466 37.171 101.232 37.5375C102.015 37.904 102.648 38.3954 103.131 39.0118C103.631 39.6282 103.989 40.3445 104.206 41.1607C104.439 41.9604 104.555 42.8016 104.555 43.6845V44.784H96.1345V44.9839C96.1345 45.8501 96.3677 46.5415 96.8341 47.0579C97.3006 47.5576 98.0336 47.8075 99.0331 47.8075C99.7994 47.8075 100.424 47.6576 100.907 47.3577C101.39 47.0412 101.84 46.6664 102.257 46.2333L104.106 48.5322C103.523 49.2152 102.756 49.7482 101.807 50.1314C100.874 50.5145 99.8077 50.7061 98.6083 50.7061ZM98.5333 39.7114C97.7837 39.7114 97.1923 39.9613 96.7592 40.4611C96.3427 40.9442 96.1345 41.5939 96.1345 42.4101V42.61H100.732V42.3851C100.732 41.5855 100.549 40.9442 100.183 40.4611C99.8327 39.9613 99.283 39.7114 98.5333 39.7114ZM107.167 50.4062V37.2876H110.865V39.5115H111.015C111.249 38.8285 111.657 38.2372 112.24 37.7374C112.823 37.2376 113.631 36.9878 114.664 36.9878C116.013 36.9878 117.029 37.4375 117.712 38.3371C118.412 39.2367 118.762 40.5194 118.762 42.1852V50.4062H115.063V42.4851C115.063 41.6355 114.93 41.0108 114.664 40.611C114.397 40.1945 113.922 39.9863 113.239 39.9863C112.939 39.9863 112.648 40.028 112.365 40.1113C112.081 40.1779 111.823 40.2945 111.59 40.4611C111.373 40.6277 111.199 40.8359 111.065 41.0858C110.932 41.319 110.865 41.5939 110.865 41.9104V50.4062H107.167ZM121.303 50.4062V47.4827L127.825 40.1612H121.528V37.2876H132.123V40.1862L125.576 47.5326H132.298V50.4062H121.303ZM140.165 50.7061C139.166 50.7061 138.274 50.5478 137.492 50.2313C136.709 49.8982 136.042 49.4401 135.493 48.857C134.959 48.2573 134.551 47.5326 134.268 46.6831C134.002 45.8335 133.868 44.8839 133.868 43.8344C133.868 42.8016 134.002 41.8687 134.268 41.0358C134.535 40.1862 134.926 39.4616 135.443 38.8619C135.976 38.2621 136.625 37.804 137.392 37.4875C138.158 37.1544 139.032 36.9878 140.015 36.9878C141.098 36.9878 142.023 37.171 142.789 37.5375C143.572 37.904 144.205 38.3954 144.688 39.0118C145.188 39.6282 145.546 40.3445 145.763 41.1607C145.996 41.9604 146.112 42.8016 146.112 43.6845V44.784H137.691V44.9839C137.691 45.8501 137.925 46.5415 138.391 47.0579C138.858 47.5576 139.591 47.8075 140.59 47.8075C141.356 47.8075 141.981 47.6576 142.464 47.3577C142.947 47.0412 143.397 46.6664 143.813 46.2333L145.663 48.5322C145.08 49.2152 144.313 49.7482 143.364 50.1314C142.431 50.5145 141.365 50.7061 140.165 50.7061ZM140.09 39.7114C139.341 39.7114 138.749 39.9613 138.316 40.4611C137.9 40.9442 137.691 41.5939 137.691 42.4101V42.61H142.289V42.3851C142.289 41.5855 142.106 40.9442 141.739 40.4611C141.39 39.9613 140.84 39.7114 140.09 39.7114Z" fill="#FFEBC4"/>
<path d="M377.278 120.148L376.029 116H370.207L368.957 120.148H365.109L370.856 102.707H375.554L381.226 120.148H377.278ZM373.155 106.155H373.03L371.106 112.777H375.104L373.155 106.155ZM383.439 120.148V107.03H387.138V109.878H387.263C387.329 109.512 387.446 109.162 387.612 108.829C387.779 108.479 387.996 108.171 388.262 107.904C388.545 107.638 388.879 107.43 389.262 107.28C389.645 107.113 390.095 107.03 390.611 107.03H391.261V110.478H390.336C389.253 110.478 388.445 110.62 387.912 110.903C387.396 111.186 387.138 111.711 387.138 112.477V120.148H383.439ZM398.717 120.448C397.735 120.448 396.86 120.29 396.094 119.974C395.327 119.64 394.686 119.182 394.17 118.599C393.653 117.999 393.262 117.275 392.995 116.425C392.729 115.576 392.595 114.626 392.595 113.577C392.595 112.527 392.729 111.586 392.995 110.753C393.262 109.903 393.653 109.179 394.17 108.579C394.686 107.979 395.327 107.521 396.094 107.205C396.86 106.888 397.735 106.73 398.717 106.73C400.05 106.73 401.158 107.03 402.041 107.63C402.94 108.229 403.582 109.07 403.965 110.153L400.966 111.453C400.85 110.953 400.608 110.528 400.242 110.178C399.875 109.828 399.367 109.654 398.717 109.654C397.968 109.654 397.401 109.903 397.018 110.403C396.635 110.886 396.444 111.544 396.444 112.377V114.826C396.444 115.659 396.635 116.317 397.018 116.8C397.401 117.283 397.968 117.525 398.717 117.525C399.384 117.525 399.909 117.35 400.292 117C400.691 116.633 400.983 116.159 401.166 115.576L404.04 116.825C403.607 118.074 402.932 118.991 402.016 119.574C401.116 120.157 400.017 120.448 398.717 120.448ZM406.329 101.657H410.027V109.254H410.177C410.41 108.571 410.818 107.979 411.401 107.48C411.984 106.98 412.792 106.73 413.825 106.73C415.174 106.73 416.191 107.18 416.874 108.079C417.573 108.979 417.923 110.262 417.923 111.927V120.148H414.225V112.227C414.225 111.378 414.092 110.753 413.825 110.353C413.559 109.937 413.084 109.728 412.401 109.728C412.101 109.728 411.809 109.77 411.526 109.853C411.243 109.92 410.985 110.037 410.752 110.203C410.535 110.37 410.36 110.578 410.227 110.828C410.094 111.061 410.027 111.336 410.027 111.653V120.148H406.329V101.657ZM423.063 105.63C422.314 105.63 421.764 105.464 421.414 105.131C421.081 104.781 420.914 104.339 420.914 103.806V103.257C420.914 102.724 421.081 102.29 421.414 101.957C421.764 101.607 422.314 101.433 423.063 101.433C423.813 101.433 424.354 101.607 424.687 101.957C425.037 102.29 425.212 102.724 425.212 103.257V103.806C425.212 104.339 425.037 104.781 424.687 105.131C424.354 105.464 423.813 105.63 423.063 105.63ZM421.214 107.03H424.912V120.148H421.214V107.03ZM432.962 120.148C431.679 120.148 430.704 119.824 430.038 119.174C429.388 118.524 429.064 117.575 429.064 116.325V109.903H427.215V107.03H428.139C428.639 107.03 428.98 106.913 429.164 106.68C429.347 106.43 429.438 106.08 429.438 105.63V103.482H432.762V107.03H435.361V109.903H432.762V117.275H435.161V120.148H432.962ZM443.304 120.448C442.305 120.448 441.414 120.29 440.631 119.974C439.848 119.64 439.181 119.182 438.632 118.599C438.099 117.999 437.69 117.275 437.407 116.425C437.141 115.576 437.007 114.626 437.007 113.577C437.007 112.544 437.141 111.611 437.407 110.778C437.674 109.928 438.065 109.204 438.582 108.604C439.115 108.004 439.764 107.546 440.531 107.23C441.297 106.897 442.172 106.73 443.154 106.73C444.237 106.73 445.162 106.913 445.928 107.28C446.711 107.646 447.344 108.138 447.827 108.754C448.327 109.37 448.685 110.087 448.902 110.903C449.135 111.703 449.251 112.544 449.251 113.427V114.526H440.831V114.726C440.831 115.592 441.064 116.284 441.53 116.8C441.997 117.3 442.73 117.55 443.729 117.55C444.495 117.55 445.12 117.4 445.603 117.1C446.086 116.783 446.536 116.409 446.953 115.975L448.802 118.274C448.219 118.957 447.452 119.49 446.503 119.874C445.57 120.257 444.504 120.448 443.304 120.448ZM443.229 109.454C442.48 109.454 441.888 109.704 441.455 110.203C441.039 110.686 440.831 111.336 440.831 112.152V112.352H445.428V112.127C445.428 111.328 445.245 110.686 444.879 110.203C444.529 109.704 443.979 109.454 443.229 109.454ZM456.461 120.148C455.178 120.148 454.204 119.824 453.537 119.174C452.888 118.524 452.563 117.575 452.563 116.325V109.903H450.714V107.03H451.638C452.138 107.03 452.48 106.913 452.663 106.68C452.846 106.43 452.938 106.08 452.938 105.63V103.482H456.261V107.03H458.86V109.903H456.261V117.275H458.66V120.148H456.461ZM465.905 120.148C464.622 120.148 463.647 119.824 462.981 119.174C462.331 118.524 462.007 117.575 462.007 116.325V109.903H460.157V107.03H461.082C461.582 107.03 461.923 106.913 462.107 106.68C462.29 106.43 462.381 106.08 462.381 105.63V103.482H465.705V107.03H468.304V109.903H465.705V117.275H468.104V120.148H465.905ZM476.097 120.448C475.131 120.448 474.265 120.29 473.499 119.974C472.749 119.657 472.108 119.199 471.575 118.599C471.058 117.999 470.658 117.275 470.375 116.425C470.092 115.576 469.95 114.626 469.95 113.577C469.95 112.527 470.092 111.578 470.375 110.728C470.658 109.878 471.058 109.162 471.575 108.579C472.108 107.979 472.749 107.521 473.499 107.205C474.265 106.888 475.131 106.73 476.097 106.73C477.064 106.73 477.922 106.888 478.671 107.205C479.437 107.521 480.079 107.979 480.595 108.579C481.128 109.162 481.536 109.878 481.82 110.728C482.103 111.578 482.244 112.527 482.244 113.577C482.244 114.626 482.103 115.576 481.82 116.425C481.536 117.275 481.128 117.999 480.595 118.599C480.079 119.199 479.437 119.657 478.671 119.974C477.922 120.29 477.064 120.448 476.097 120.448ZM476.097 117.525C476.83 117.525 477.397 117.3 477.797 116.85C478.196 116.4 478.396 115.759 478.396 114.926V112.252C478.396 111.419 478.196 110.778 477.797 110.328C477.397 109.878 476.83 109.654 476.097 109.654C475.364 109.654 474.798 109.878 474.398 110.328C473.998 110.778 473.799 111.419 473.799 112.252V114.926C473.799 115.759 473.998 116.4 474.398 116.85C474.798 117.3 475.364 117.525 476.097 117.525Z" fill="#FFBF3F"/>
<path d="M265.845 70.1436C264.312 70.1436 263.013 69.8854 261.947 69.369C260.881 68.8359 259.973 68.1529 259.223 67.32L261.722 64.7962C262.905 66.1289 264.362 66.7952 266.095 66.7952C267.028 66.7952 267.719 66.6037 268.169 66.2205C268.618 65.8374 268.843 65.3293 268.843 64.6963C268.843 64.2132 268.71 63.8133 268.443 63.4968C268.177 63.1637 267.636 62.9388 266.819 62.8222L265.095 62.5973C263.246 62.364 261.888 61.806 261.022 60.9231C260.173 60.0402 259.748 58.8657 259.748 57.3998C259.748 56.6168 259.898 55.9005 260.198 55.2508C260.497 54.6012 260.922 54.0431 261.472 53.5767C262.038 53.1102 262.721 52.7521 263.521 52.5022C264.337 52.2356 265.262 52.1024 266.295 52.1024C267.611 52.1024 268.768 52.3106 269.768 52.7271C270.767 53.1435 271.625 53.7516 272.342 54.5512L269.818 57.0999C269.401 56.6168 268.893 56.2254 268.294 55.9255C267.711 55.609 266.969 55.4507 266.07 55.4507C265.22 55.4507 264.587 55.6007 264.171 55.9005C263.754 56.2004 263.546 56.6168 263.546 57.1499C263.546 57.7496 263.704 58.1827 264.021 58.4493C264.354 58.7158 264.887 58.9074 265.62 59.024L267.344 59.2989C269.143 59.5821 270.476 60.1401 271.342 60.9731C272.208 61.7893 272.641 62.9554 272.641 64.4714C272.641 65.3043 272.492 66.0706 272.192 66.7702C271.892 67.4699 271.45 68.0696 270.867 68.5694C270.301 69.0691 269.593 69.4606 268.743 69.7438C267.894 70.0103 266.928 70.1436 265.845 70.1436ZM275.591 56.7251H279.289V58.9241H279.414C279.597 58.1911 280.013 57.5914 280.663 57.1249C281.329 56.6585 282.087 56.4253 282.937 56.4253C284.603 56.4253 285.861 57.0083 286.71 58.1744C287.56 59.3405 287.985 61.0397 287.985 63.2719C287.985 65.5042 287.56 67.2117 286.71 68.3945C285.861 69.5606 284.603 70.1436 282.937 70.1436C282.504 70.1436 282.096 70.077 281.713 69.9437C281.329 69.8271 280.98 69.6605 280.663 69.4439C280.363 69.2107 280.105 68.9442 279.889 68.6443C279.672 68.3278 279.514 67.9946 279.414 67.6448H279.289V74.8413H275.591V56.7251ZM281.713 67.1451C282.412 67.1451 282.987 66.9035 283.437 66.4204C283.903 65.9207 284.136 65.2543 284.136 64.4214V62.1475C284.136 61.3146 283.903 60.6565 283.437 60.1734C282.987 59.6737 282.412 59.4238 281.713 59.4238C281.013 59.4238 280.43 59.5987 279.963 59.9486C279.514 60.2817 279.289 60.7482 279.289 61.3479V65.221C279.289 65.8207 279.514 66.2955 279.963 66.6453C280.43 66.9785 281.013 67.1451 281.713 67.1451ZM296.266 70.1436C295.266 70.1436 294.375 69.9853 293.592 69.6688C292.809 69.3357 292.143 68.8776 291.593 68.2945C291.06 67.6948 290.652 66.9701 290.368 66.1206C290.102 65.271 289.969 64.3214 289.969 63.2719C289.969 62.2391 290.102 61.3062 290.368 60.4733C290.635 59.6237 291.026 58.8991 291.543 58.2994C292.076 57.6996 292.726 57.2415 293.492 56.925C294.258 56.5919 295.133 56.4253 296.116 56.4253C297.198 56.4253 298.123 56.6085 298.889 56.975C299.672 57.3415 300.305 57.8329 300.788 58.4493C301.288 59.0657 301.646 59.782 301.863 60.5982C302.096 61.3979 302.213 62.2391 302.213 63.122V64.2215H293.792V64.4214C293.792 65.2876 294.025 65.979 294.491 66.4954C294.958 66.9951 295.691 67.245 296.69 67.245C297.457 67.245 298.081 67.0951 298.564 66.7952C299.048 66.4787 299.497 66.1039 299.914 65.6708L301.763 67.9697C301.18 68.6527 300.414 69.1857 299.464 69.5689C298.531 69.952 297.465 70.1436 296.266 70.1436ZM296.191 59.1489C295.441 59.1489 294.85 59.3988 294.416 59.8986C294 60.3817 293.792 61.0314 293.792 61.8476V62.0475H298.389V61.8226C298.389 61.023 298.206 60.3817 297.84 59.8986C297.49 59.3988 296.94 59.1489 296.191 59.1489ZM309.272 70.1436C308.006 70.1436 306.94 69.9437 306.074 69.5439C305.208 69.1274 304.433 68.5444 303.75 67.7947L305.924 65.5958C306.39 66.1122 306.907 66.5204 307.473 66.8202C308.04 67.1201 308.681 67.27 309.397 67.27C310.13 67.27 310.638 67.1617 310.921 66.9452C311.205 66.7119 311.346 66.4038 311.346 66.0206C311.346 65.4042 310.905 65.0378 310.022 64.9211L308.598 64.7462C305.649 64.3797 304.175 63.0304 304.175 60.6982C304.175 60.0652 304.291 59.4904 304.525 58.974C304.774 58.441 305.116 57.9912 305.549 57.6247C305.999 57.2415 306.532 56.95 307.148 56.7501C307.781 56.5335 308.489 56.4253 309.272 56.4253C309.955 56.4253 310.555 56.4752 311.071 56.5752C311.604 56.6585 312.071 56.7918 312.471 56.975C312.887 57.1416 313.262 57.3581 313.595 57.6247C313.945 57.8746 314.287 58.1578 314.62 58.4743L312.496 60.6482C312.079 60.2318 311.604 59.9069 311.071 59.6737C310.555 59.4238 310.022 59.2989 309.472 59.2989C308.839 59.2989 308.389 59.3988 308.123 59.5987C307.856 59.7986 307.723 60.0652 307.723 60.3983C307.723 60.7482 307.815 61.023 307.998 61.2229C308.198 61.4062 308.564 61.5395 309.097 61.6227L310.572 61.8226C313.454 62.2058 314.895 63.5218 314.895 65.7707C314.895 66.4038 314.761 66.9868 314.495 67.5199C314.228 68.053 313.845 68.5194 313.345 68.9192C312.862 69.3023 312.271 69.6022 311.571 69.8188C310.888 70.0353 310.122 70.1436 309.272 70.1436ZM322.888 70.1436C321.889 70.1436 320.998 69.9853 320.215 69.6688C319.432 69.3357 318.765 68.8776 318.216 68.2945C317.683 67.6948 317.274 66.9701 316.991 66.1206C316.725 65.271 316.591 64.3214 316.591 63.2719C316.591 62.2391 316.725 61.3062 316.991 60.4733C317.258 59.6237 317.649 58.8991 318.166 58.2994C318.699 57.6996 319.348 57.2415 320.115 56.925C320.881 56.5919 321.756 56.4253 322.738 56.4253C323.821 56.4253 324.746 56.6085 325.512 56.975C326.295 57.3415 326.928 57.8329 327.411 58.4493C327.911 59.0657 328.269 59.782 328.486 60.5982C328.719 61.3979 328.835 62.2391 328.835 63.122V64.2215H320.415V64.4214C320.415 65.2876 320.648 65.979 321.114 66.4954C321.581 66.9951 322.314 67.245 323.313 67.245C324.079 67.245 324.704 67.0951 325.187 66.7952C325.67 66.4787 326.12 66.1039 326.537 65.6708L328.386 67.9697C327.803 68.6527 327.036 69.1857 326.087 69.5689C325.154 69.952 324.088 70.1436 322.888 70.1436ZM322.813 59.1489C322.064 59.1489 321.472 59.3988 321.039 59.8986C320.623 60.3817 320.415 61.0314 320.415 61.8476V62.0475H325.012V61.8226C325.012 61.023 324.829 60.3817 324.463 59.8986C324.113 59.3988 323.563 59.1489 322.813 59.1489ZM342.875 61.5978L341.201 58.0995H341.126V69.8438H337.553V52.4022H341.7L346.473 60.6482L348.147 64.1465H348.222V52.4022H351.796V69.8438H347.648L342.875 61.5978ZM360.757 70.1436C359.791 70.1436 358.925 69.9853 358.158 69.6688C357.409 69.3523 356.767 68.8942 356.234 68.2945C355.718 67.6948 355.318 66.9701 355.035 66.1206C354.752 65.271 354.61 64.3214 354.61 63.2719C354.61 62.2225 354.752 61.2729 355.035 60.4233C355.318 59.5737 355.718 58.8574 356.234 58.2744C356.767 57.6747 357.409 57.2166 358.158 56.9C358.925 56.5835 359.791 56.4253 360.757 56.4253C361.723 56.4253 362.581 56.5835 363.331 56.9C364.097 57.2166 364.738 57.6747 365.255 58.2744C365.788 58.8574 366.196 59.5737 366.479 60.4233C366.762 61.2729 366.904 62.2225 366.904 63.2719C366.904 64.3214 366.762 65.271 366.479 66.1206C366.196 66.9701 365.788 67.6948 365.255 68.2945C364.738 68.8942 364.097 69.3523 363.331 69.6688C362.581 69.9853 361.723 70.1436 360.757 70.1436ZM360.757 67.22C361.49 67.22 362.056 66.9951 362.456 66.5454C362.856 66.0956 363.056 65.4542 363.056 64.6213V61.9476C363.056 61.1147 362.856 60.4733 362.456 60.0235C362.056 59.5737 361.49 59.3488 360.757 59.3488C360.024 59.3488 359.458 59.5737 359.058 60.0235C358.658 60.4733 358.458 61.1147 358.458 61.9476V64.6213C358.458 65.4542 358.658 66.0956 359.058 66.5454C359.458 66.9951 360.024 67.22 360.757 67.22ZM373.99 69.8438C372.708 69.8438 371.733 69.5189 371.067 68.8692C370.417 68.2195 370.092 67.27 370.092 66.0206V59.5987H368.243V56.7251H369.168C369.668 56.7251 370.009 56.6085 370.192 56.3753C370.376 56.1254 370.467 55.7756 370.467 55.3258V53.1768H373.791V56.7251H376.389V59.5987H373.791V66.9701H376.189V69.8438H373.99ZM388.654 69.8438C387.987 69.8438 387.429 69.6355 386.979 69.2191C386.546 68.8026 386.271 68.2445 386.155 67.5449H386.005C385.805 68.3945 385.364 69.0441 384.681 69.4939C383.998 69.927 383.156 70.1436 382.157 70.1436C380.841 70.1436 379.833 69.7938 379.133 69.0941C378.434 68.3945 378.084 67.4699 378.084 66.3205C378.084 64.9378 378.584 63.9133 379.583 63.247C380.599 62.564 381.974 62.2225 383.706 62.2225H385.78V61.3979C385.78 60.7648 385.613 60.2651 385.28 59.8986C384.947 59.5154 384.389 59.3239 383.606 59.3239C382.873 59.3239 382.29 59.4821 381.857 59.7986C381.424 60.1151 381.066 60.4733 380.782 60.8731L378.584 58.9241C379.117 58.1411 379.783 57.5331 380.583 57.0999C381.399 56.6502 382.498 56.4253 383.881 56.4253C385.747 56.4253 387.146 56.8334 388.079 57.6497C389.012 58.4659 389.478 59.657 389.478 61.2229V66.9701H390.703V69.8438H388.654ZM383.531 67.5699C384.148 67.5699 384.672 67.4366 385.105 67.17C385.555 66.9035 385.78 66.4704 385.78 65.8707V64.3214H383.981C382.532 64.3214 381.807 64.8129 381.807 65.7957V66.1705C381.807 66.6536 381.957 67.0118 382.257 67.245C382.557 67.4616 382.981 67.5699 383.531 67.5699ZM393.185 69.8438V56.7251H396.883V59.5737H397.008C397.075 59.2072 397.191 58.8574 397.358 58.5242C397.524 58.1744 397.741 57.8662 398.008 57.5997C398.291 57.3332 398.624 57.1249 399.007 56.975C399.39 56.8084 399.84 56.7251 400.356 56.7251H401.006V60.1734H400.082C398.999 60.1734 398.191 60.315 397.658 60.5982C397.141 60.8814 396.883 61.4062 396.883 62.1725V69.8438H393.185ZM405.136 55.3258C404.387 55.3258 403.837 55.1592 403.487 54.826C403.154 54.4762 402.988 54.0348 402.988 53.5017V52.952C402.988 52.4189 403.154 51.9858 403.487 51.6526C403.837 51.3028 404.387 51.1278 405.136 51.1278C405.886 51.1278 406.428 51.3028 406.761 51.6526C407.111 51.9858 407.285 52.4189 407.285 52.952V53.5017C407.285 54.0348 407.111 54.4762 406.761 54.826C406.428 55.1592 405.886 55.3258 405.136 55.3258ZM403.287 56.7251H406.986V69.8438H403.287V56.7251ZM414.11 69.8438C412.844 69.8438 411.912 69.5356 411.312 68.9192C410.729 68.3028 410.437 67.4116 410.437 66.2455V51.3527H414.135V66.9701H415.785V69.8438H414.11ZM419.851 55.3258C419.101 55.3258 418.552 55.1592 418.202 54.826C417.869 54.4762 417.702 54.0348 417.702 53.5017V52.952C417.702 52.4189 417.869 51.9858 418.202 51.6526C418.552 51.3028 419.101 51.1278 419.851 51.1278C420.601 51.1278 421.142 51.3028 421.475 51.6526C421.825 51.9858 422 52.4189 422 52.952V53.5017C422 54.0348 421.825 54.4762 421.475 54.826C421.142 55.1592 420.601 55.3258 419.851 55.3258ZM418.002 56.7251H421.7V69.8438H418.002V56.7251Z" fill="#F5A400"/>
<path d="M51.1055 174.383C28.0678 201.085 12.8627 233.639 7.17108 268.443C1.47941 303.248 5.52288 338.949 18.8545 371.599C32.1861 404.249 54.2865 432.577 82.7126 453.451C110.398 473.781 143.034 486.269 177.184 489.628L172.79 536.64C170.277 536.878 168.31 538.994 168.31 541.569C168.31 544.303 170.527 546.52 173.262 546.52C175.996 546.52 178.213 544.303 178.213 541.569C178.213 539.312 176.703 537.408 174.639 536.812L179.032 489.801C179.33 489.827 179.629 489.853 179.927 489.878C215.071 492.824 250.345 485.995 281.85 470.145C313.355 454.296 339.863 430.043 358.445 400.068C377.027 370.094 386.958 335.564 387.14 300.298C387.323 265.031 377.75 230.401 359.48 200.235L299.132 236.786C310.661 255.823 316.702 277.677 316.587 299.932C316.472 322.188 310.204 343.978 298.478 362.894C286.752 381.81 270.023 397.115 250.141 407.118C230.26 417.12 207.999 421.429 185.821 419.57C163.643 417.711 142.411 409.755 124.472 396.582C106.534 383.409 92.5867 365.533 84.1736 344.928C75.7604 324.324 73.2087 301.794 76.8006 279.83C80.3924 257.866 89.9878 237.323 104.526 220.471L51.1055 174.383Z" fill="#FFC95D"/>
<path d="M194.291 14.2637C194.291 16.6564 195.989 18.6528 198.245 19.1143L197.295 85.7977C196.051 85.7854 194.681 85.784 193.438 85.7934L193.972 156.346C196.245 156.329 198.518 156.366 200.789 156.457L203.619 85.9591C202.088 85.8977 200.683 85.8527 199.151 85.8242L200.101 19.1406C202.426 18.7339 204.067 16.7052 204.067 14.2637C204.067 11.5292 201.977 9.3125 199.242 9.3125C196.508 9.3125 194.291 11.5292 194.291 14.2637Z" fill="#E59A02"/>
<path d="M135.377 62.0137C135.377 64.7481 137.594 66.9649 140.328 66.9649C140.39 66.9649 140.452 66.9637 140.514 66.9615L146.141 91.4295C131.493 94.8655 117.21 99.8492 103.539 106.321L133.729 170.09C151.498 161.678 170.811 157.021 190.461 156.411L188.27 85.8902C174.662 86.3131 161.162 88.0353 147.951 91.0133L142.323 66.5465C144.064 65.7791 145.279 64.0383 145.279 62.0137C145.279 59.2792 143.063 57.0625 140.328 57.0625C137.594 57.0625 135.377 59.2792 135.377 62.0137Z" fill="#FFEBC4"/>
<path d="M44.7601 104.217C44.7601 106.951 46.9768 109.168 49.7112 109.168C50.4913 109.168 51.2293 108.988 51.8856 108.666L61.5483 121.56C51.6751 129.023 42.4242 137.309 33.8984 146.339L85.1998 194.775C96.7455 182.547 110.238 172.316 125.128 164.497L92.3298 102.03C82.0844 107.409 72.2914 113.569 63.0341 120.446L53.3707 107.552C54.1731 106.672 54.6624 105.502 54.6624 104.217C54.6624 101.482 52.4457 99.2656 49.7112 99.2656C46.9768 99.2656 44.7601 101.482 44.7601 104.217Z" fill="#FFDB91"/>
<path d="M240.29 61.0606C240.29 63.1306 241.56 64.904 243.364 65.6435L238.447 89.8773C228.86 87.9755 219.139 86.7315 209.353 86.1598L205.238 156.594C220.018 157.457 234.574 160.611 248.386 165.943L273.794 100.122C262.89 95.9133 251.676 92.6131 240.267 90.2465L245.184 66.0114C245.203 66.0116 245.222 66.0117 245.241 66.0117C247.976 66.0117 250.192 63.795 250.192 61.0606C250.192 58.3261 247.976 56.1094 245.241 56.1094C242.507 56.1094 240.29 58.3261 240.29 61.0606Z" fill="#F5A400"/>
<path d="M347.643 112.857C347.643 114.028 348.049 115.103 348.728 115.951L323.294 145.699C308.787 133.413 292.515 123.207 274.929 115.467L246.508 180.044C269.526 190.175 289.053 206.856 302.656 228.008L361.999 189.847C351.636 173.732 339.055 159.291 324.705 146.905L350.139 117.158C350.863 117.572 351.701 117.809 352.594 117.809C355.329 117.809 357.545 115.592 357.545 112.857C357.545 110.123 355.329 107.906 352.594 107.906C349.86 107.906 347.643 110.123 347.643 112.857Z" fill="#FFBF3F"/>
</svg>
