<svg width="572" height="476" viewBox="0 0 572 476" fill="none" xmlns="http://www.w3.org/2000/svg">
<path d="M44.038 19H40.694V3.644H47.976C48.68 3.644 49.318 3.76133 49.89 3.996C50.462 4.23067 50.946 4.568 51.342 5.008C51.7527 5.43333 52.068 5.94667 52.288 6.548C52.508 7.14933 52.618 7.81667 52.618 8.55C52.618 9.59133 52.3833 10.5007 51.914 11.278C51.4593 12.0553 50.7627 12.62 49.824 12.972L52.838 19H49.12L46.436 13.368H44.038V19ZM47.558 10.552C48.0567 10.552 48.4453 10.4273 48.724 10.178C49.0173 9.914 49.164 9.53267 49.164 9.034V8.066C49.164 7.56733 49.0173 7.19333 48.724 6.944C48.4453 6.68 48.0567 6.548 47.558 6.548H44.038V10.552H47.558ZM56.9702 6.218C56.3102 6.218 55.8262 6.07133 55.5182 5.778C55.2249 5.47 55.0782 5.08133 55.0782 4.612V4.128C55.0782 3.65867 55.2249 3.27733 55.5182 2.984C55.8262 2.676 56.3102 2.522 56.9702 2.522C57.6302 2.522 58.1069 2.676 58.4002 2.984C58.7082 3.27733 58.8622 3.65867 58.8622 4.128V4.612C58.8622 5.08133 58.7082 5.47 58.4002 5.778C58.1069 6.07133 57.6302 6.218 56.9702 6.218ZM55.3422 7.45H58.5982V19H55.3422V7.45ZM68.7211 17.064H68.6111C68.5231 17.372 68.3838 17.6653 68.1931 17.944C68.0025 18.208 67.7678 18.4427 67.4891 18.648C67.2251 18.8387 66.9171 18.9853 66.5651 19.088C66.2278 19.2053 65.8758 19.264 65.5091 19.264C64.0425 19.264 62.9351 18.7507 62.1871 17.724C61.4391 16.6827 61.0651 15.1793 61.0651 13.214C61.0651 11.2487 61.4391 9.75267 62.1871 8.726C62.9351 7.69933 64.0425 7.186 65.5091 7.186C66.2571 7.186 66.9171 7.39133 67.4891 7.802C68.0758 8.21267 68.4498 8.74067 68.6111 9.386H68.7211V7.45H71.9771V23.4H68.7211V17.064ZM66.5871 16.624C67.2031 16.624 67.7091 16.4773 68.1051 16.184C68.5158 15.876 68.7211 15.458 68.7211 14.93V11.52C68.7211 10.992 68.5158 10.5813 68.1051 10.288C67.7091 9.98 67.2031 9.826 66.5871 9.826C65.9711 9.826 65.4578 10.046 65.0471 10.486C64.6511 10.9113 64.4531 11.4907 64.4531 12.224V14.226C64.4531 14.9593 64.6511 15.546 65.0471 15.986C65.4578 16.4113 65.9711 16.624 66.5871 16.624ZM81.8419 17.064H81.7319C81.6292 17.3573 81.4899 17.636 81.3139 17.9C81.1526 18.164 80.9399 18.3987 80.6759 18.604C80.4119 18.8093 80.0966 18.9707 79.7299 19.088C79.3779 19.2053 78.9672 19.264 78.4979 19.264C77.3099 19.264 76.4079 18.8753 75.7919 18.098C75.1906 17.306 74.8899 16.1767 74.8899 14.71V7.45H78.1459V14.424C78.1459 15.128 78.2706 15.6707 78.5199 16.052C78.7692 16.4333 79.1946 16.624 79.7959 16.624C80.0452 16.624 80.2946 16.5873 80.5439 16.514C80.7932 16.4407 81.0132 16.338 81.2039 16.206C81.3946 16.0593 81.5486 15.8833 81.6659 15.678C81.7832 15.4727 81.8419 15.2307 81.8419 14.952V7.45H85.0979V19H81.8419V17.064ZM96.6634 19C96.0767 19 95.5854 18.8167 95.1894 18.45C94.808 18.0833 94.566 17.592 94.4634 16.976H94.3314C94.1554 17.724 93.7667 18.296 93.1654 18.692C92.564 19.0733 91.8234 19.264 90.9434 19.264C89.7847 19.264 88.8974 18.956 88.2814 18.34C87.6654 17.724 87.3574 16.91 87.3574 15.898C87.3574 14.6807 87.7974 13.7787 88.6774 13.192C89.572 12.5907 90.782 12.29 92.3074 12.29H94.1334V11.564C94.1334 11.0067 93.9867 10.5667 93.6934 10.244C93.4 9.90667 92.9087 9.738 92.2194 9.738C91.574 9.738 91.0607 9.87733 90.6794 10.156C90.298 10.4347 89.9827 10.75 89.7334 11.102L87.7974 9.386C88.2667 8.69667 88.8534 8.16133 89.5574 7.78C90.276 7.384 91.244 7.186 92.4614 7.186C94.104 7.186 95.336 7.54533 96.1574 8.264C96.9787 8.98267 97.3894 10.0313 97.3894 11.41V16.47H98.4674V19H96.6634ZM92.1534 16.998C92.696 16.998 93.158 16.8807 93.5394 16.646C93.9354 16.4113 94.1334 16.03 94.1334 15.502V14.138H92.5494C91.2734 14.138 90.6354 14.5707 90.6354 15.436V15.766C90.6354 16.1913 90.7674 16.5067 91.0314 16.712C91.2954 16.9027 91.6694 16.998 92.1534 16.998ZM103.887 19C102.772 19 101.951 18.7287 101.423 18.186C100.909 17.6433 100.653 16.8587 100.653 15.832V2.72H103.909V16.47H105.361V19H103.887ZM108.941 6.218C108.281 6.218 107.797 6.07133 107.489 5.778C107.196 5.47 107.049 5.08133 107.049 4.612V4.128C107.049 3.65867 107.196 3.27733 107.489 2.984C107.797 2.676 108.281 2.522 108.941 2.522C109.601 2.522 110.078 2.676 110.371 2.984C110.679 3.27733 110.833 3.65867 110.833 4.128V4.612C110.833 5.08133 110.679 5.47 110.371 5.778C110.078 6.07133 109.601 6.218 108.941 6.218ZM107.313 7.45H110.569V19H107.313V7.45ZM114.18 9.98H112.552V7.45H114.18V6.086C114.18 4.97133 114.473 4.13533 115.06 3.578C115.647 3.006 116.505 2.72 117.634 2.72H119.746V5.25H117.436V7.45H124.806V19H121.55V9.98H117.436V19H114.18V9.98ZM123.178 6.218C122.518 6.218 122.034 6.07133 121.726 5.778C121.433 5.47 121.286 5.08133 121.286 4.612V4.128C121.286 3.65867 121.433 3.27733 121.726 2.984C122.034 2.676 122.518 2.522 123.178 2.522C123.838 2.522 124.315 2.676 124.608 2.984C124.916 3.27733 125.07 3.65867 125.07 4.128V4.612C125.07 5.08133 124.916 5.47 124.608 5.778C124.315 6.07133 123.838 6.218 123.178 6.218ZM132.516 19.264C131.651 19.264 130.881 19.1247 130.206 18.846C129.531 18.5527 128.967 18.1493 128.512 17.636C128.057 17.108 127.713 16.47 127.478 15.722C127.243 14.974 127.126 14.138 127.126 13.214C127.126 12.29 127.243 11.4613 127.478 10.728C127.713 9.98 128.057 9.342 128.512 8.814C128.967 8.286 129.531 7.88267 130.206 7.604C130.881 7.32533 131.651 7.186 132.516 7.186C133.689 7.186 134.665 7.45 135.442 7.978C136.234 8.506 136.799 9.24667 137.136 10.2L134.496 11.344C134.393 10.904 134.181 10.53 133.858 10.222C133.535 9.914 133.088 9.76 132.516 9.76C131.856 9.76 131.357 9.98 131.02 10.42C130.683 10.8453 130.514 11.4247 130.514 12.158V14.314C130.514 15.0473 130.683 15.6267 131.02 16.052C131.357 16.4773 131.856 16.69 132.516 16.69C133.103 16.69 133.565 16.536 133.902 16.228C134.254 15.9053 134.511 15.4873 134.672 14.974L137.202 16.074C136.821 17.174 136.227 17.9807 135.42 18.494C134.628 19.0073 133.66 19.264 132.516 19.264ZM147.753 19C147.167 19 146.675 18.8167 146.279 18.45C145.898 18.0833 145.656 17.592 145.553 16.976H145.421C145.245 17.724 144.857 18.296 144.255 18.692C143.654 19.0733 142.913 19.264 142.033 19.264C140.875 19.264 139.987 18.956 139.371 18.34C138.755 17.724 138.447 16.91 138.447 15.898C138.447 14.6807 138.887 13.7787 139.767 13.192C140.662 12.5907 141.872 12.29 143.397 12.29H145.223V11.564C145.223 11.0067 145.077 10.5667 144.783 10.244C144.49 9.90667 143.999 9.738 143.309 9.738C142.664 9.738 142.151 9.87733 141.769 10.156C141.388 10.4347 141.073 10.75 140.823 11.102L138.887 9.386C139.357 8.69667 139.943 8.16133 140.647 7.78C141.366 7.384 142.334 7.186 143.551 7.186C145.194 7.186 146.426 7.54533 147.247 8.264C148.069 8.98267 148.479 10.0313 148.479 11.41V16.47H149.557V19H147.753ZM143.243 16.998C143.786 16.998 144.248 16.8807 144.629 16.646C145.025 16.4113 145.223 16.03 145.223 15.502V14.138H143.639C142.363 14.138 141.725 14.5707 141.725 15.436V15.766C141.725 16.1913 141.857 16.5067 142.121 16.712C142.385 16.9027 142.759 16.998 143.243 16.998ZM151.083 19V16.426L156.825 9.98H151.281V7.45H160.609V10.002L154.845 16.47H160.763V19H151.083ZM164.757 6.218C164.097 6.218 163.613 6.07133 163.305 5.778C163.012 5.47 162.865 5.08133 162.865 4.612V4.128C162.865 3.65867 163.012 3.27733 163.305 2.984C163.613 2.676 164.097 2.522 164.757 2.522C165.417 2.522 165.894 2.676 166.187 2.984C166.495 3.27733 166.649 3.65867 166.649 4.128V4.612C166.649 5.08133 166.495 5.47 166.187 5.778C165.894 6.07133 165.417 6.218 164.757 6.218ZM163.129 7.45H166.385V19H163.129V7.45ZM174.11 19.264C173.26 19.264 172.497 19.1247 171.822 18.846C171.162 18.5673 170.598 18.164 170.128 17.636C169.674 17.108 169.322 16.47 169.072 15.722C168.823 14.974 168.698 14.138 168.698 13.214C168.698 12.29 168.823 11.454 169.072 10.706C169.322 9.958 169.674 9.32733 170.128 8.814C170.598 8.286 171.162 7.88267 171.822 7.604C172.497 7.32533 173.26 7.186 174.11 7.186C174.961 7.186 175.716 7.32533 176.376 7.604C177.051 7.88267 177.616 8.286 178.07 8.814C178.54 9.32733 178.899 9.958 179.148 10.706C179.398 11.454 179.522 12.29 179.522 13.214C179.522 14.138 179.398 14.974 179.148 15.722C178.899 16.47 178.54 17.108 178.07 17.636C177.616 18.164 177.051 18.5673 176.376 18.846C175.716 19.1247 174.961 19.264 174.11 19.264ZM174.11 16.69C174.756 16.69 175.254 16.492 175.606 16.096C175.958 15.7 176.134 15.1353 176.134 14.402V12.048C176.134 11.3147 175.958 10.75 175.606 10.354C175.254 9.958 174.756 9.76 174.11 9.76C173.465 9.76 172.966 9.958 172.614 10.354C172.262 10.75 172.086 11.3147 172.086 12.048V14.402C172.086 15.1353 172.262 15.7 172.614 16.096C172.966 16.492 173.465 16.69 174.11 16.69ZM181.842 19V7.45H185.098V9.408H185.23C185.436 8.80667 185.795 8.286 186.308 7.846C186.822 7.406 187.533 7.186 188.442 7.186C189.63 7.186 190.525 7.582 191.126 8.374C191.742 9.166 192.05 10.2953 192.05 11.762V19H188.794V12.026C188.794 11.278 188.677 10.728 188.442 10.376C188.208 10.0093 187.79 9.826 187.188 9.826C186.924 9.826 186.668 9.86267 186.418 9.936C186.169 9.99467 185.942 10.0973 185.736 10.244C185.546 10.3907 185.392 10.574 185.274 10.794C185.157 10.9993 185.098 11.2413 185.098 11.52V19H181.842ZM199.766 19.264C198.886 19.264 198.101 19.1247 197.412 18.846C196.722 18.5527 196.136 18.1493 195.652 17.636C195.182 17.108 194.823 16.47 194.574 15.722C194.339 14.974 194.222 14.138 194.222 13.214C194.222 12.3047 194.339 11.4833 194.574 10.75C194.808 10.002 195.153 9.364 195.608 8.836C196.077 8.308 196.649 7.90467 197.324 7.626C197.998 7.33267 198.768 7.186 199.634 7.186C200.587 7.186 201.401 7.34733 202.076 7.67C202.765 7.99267 203.322 8.42533 203.748 8.968C204.188 9.51067 204.503 10.1413 204.694 10.86C204.899 11.564 205.002 12.3047 205.002 13.082V14.05H197.588V14.226C197.588 14.9887 197.793 15.5973 198.204 16.052C198.614 16.492 199.26 16.712 200.14 16.712C200.814 16.712 201.364 16.58 201.79 16.316C202.215 16.0373 202.611 15.7073 202.978 15.326L204.606 17.35C204.092 17.9513 203.418 18.4207 202.582 18.758C201.76 19.0953 200.822 19.264 199.766 19.264ZM199.7 9.584C199.04 9.584 198.519 9.804 198.138 10.244C197.771 10.6693 197.588 11.2413 197.588 11.96V12.136H201.636V11.938C201.636 11.234 201.474 10.6693 201.152 10.244C200.844 9.804 200.36 9.584 199.7 9.584ZM47.25 43V39.986H39.836V38.358L46.26 27.644H49.01V38.446H51.232V39.986H49.01V43H47.25ZM41.574 38.446H47.25V29.074H47.14L41.574 38.446ZM63.1474 29.272H56.4154L55.9754 35.124H56.1294C56.4961 34.6107 56.9067 34.2 57.3614 33.892C57.8307 33.584 58.4687 33.43 59.2754 33.43C59.9354 33.43 60.5441 33.54 61.1014 33.76C61.6587 33.98 62.1427 34.2953 62.5534 34.706C62.9641 35.102 63.2794 35.5933 63.4994 36.18C63.7341 36.7667 63.8514 37.434 63.8514 38.182C63.8514 38.93 63.7341 39.6193 63.4994 40.25C63.2647 40.866 62.9201 41.4013 62.4654 41.856C62.0254 42.296 61.4827 42.6407 60.8374 42.89C60.2067 43.1393 59.4881 43.264 58.6814 43.264C58.0361 43.264 57.4641 43.1907 56.9654 43.044C56.4814 42.8973 56.0487 42.6993 55.6674 42.45C55.2861 42.2007 54.9487 41.922 54.6554 41.614C54.3767 41.306 54.1201 40.9833 53.8854 40.646L55.2714 39.59C55.4621 39.898 55.6601 40.1767 55.8654 40.426C56.0854 40.6753 56.3201 40.888 56.5694 41.064C56.8334 41.24 57.1341 41.3793 57.4714 41.482C57.8087 41.57 58.2121 41.614 58.6814 41.614C59.7374 41.614 60.5367 41.3353 61.0794 40.778C61.6221 40.2207 61.8934 39.436 61.8934 38.424V38.204C61.8934 37.192 61.6221 36.4073 61.0794 35.85C60.5367 35.2927 59.7374 35.014 58.6814 35.014C57.9774 35.014 57.4201 35.146 57.0094 35.41C56.6134 35.6593 56.2541 35.96 55.9314 36.312L54.3694 36.092L54.9194 27.644H63.1474V29.272ZM69.4088 43L80.0568 27.644H81.7508L71.1028 43H69.4088ZM70.2888 36.092C69.1741 36.092 68.3161 35.7253 67.7148 34.992C67.1135 34.244 66.8128 33.1587 66.8128 31.736C66.8128 30.3133 67.1135 29.2353 67.7148 28.502C68.3161 27.754 69.1741 27.38 70.2888 27.38C71.4035 27.38 72.2615 27.754 72.8628 28.502C73.4641 29.2353 73.7648 30.3133 73.7648 31.736C73.7648 33.1587 73.4641 34.244 72.8628 34.992C72.2615 35.7253 71.4035 36.092 70.2888 36.092ZM70.2888 34.948C71.5501 34.948 72.1808 34.0973 72.1808 32.396V31.076C72.1808 29.3747 71.5501 28.524 70.2888 28.524C69.0275 28.524 68.3968 29.3747 68.3968 31.076V32.396C68.3968 34.0973 69.0275 34.948 70.2888 34.948ZM80.8708 43.264C79.7561 43.264 78.8981 42.8973 78.2968 42.164C77.6955 41.416 77.3948 40.3307 77.3948 38.908C77.3948 37.4853 77.6955 36.4073 78.2968 35.674C78.8981 34.926 79.7561 34.552 80.8708 34.552C81.9855 34.552 82.8435 34.926 83.4448 35.674C84.0461 36.4073 84.3468 37.4853 84.3468 38.908C84.3468 40.3307 84.0461 41.416 83.4448 42.164C82.8435 42.8973 81.9855 43.264 80.8708 43.264ZM80.8708 42.12C82.1321 42.12 82.7628 41.2693 82.7628 39.568V38.248C82.7628 36.5467 82.1321 35.696 80.8708 35.696C79.6095 35.696 78.9788 36.5467 78.9788 38.248V39.568C78.9788 41.2693 79.6095 42.12 80.8708 42.12Z" fill="#E6E4D9"/>
<rect x="15" y="81" width="58" height="393" fill="#F5A400"/>
<path d="M40.8333 53C40.8333 54.4728 42.0272 55.6667 43.5 55.6667C44.9728 55.6667 46.1667 54.4728 46.1667 53C46.1667 51.5272 44.9728 50.3333 43.5 50.3333C42.0272 50.3333 40.8333 51.5272 40.8333 53ZM44 81.5V53H43V81.5H44Z" fill="#F5A400"/>
<path d="M123.154 150L122.054 146.348H116.928L115.828 150H112.44L117.5 134.644H121.636L126.63 150H123.154ZM119.524 137.68H119.414L117.72 143.51H121.24L119.524 137.68ZM133.243 150.264C132.377 150.264 131.607 150.125 130.933 149.846C130.258 149.553 129.693 149.149 129.239 148.636C128.784 148.108 128.439 147.47 128.205 146.722C127.97 145.974 127.853 145.138 127.853 144.214C127.853 143.29 127.97 142.461 128.205 141.728C128.439 140.98 128.784 140.342 129.239 139.814C129.693 139.286 130.258 138.883 130.933 138.604C131.607 138.325 132.377 138.186 133.243 138.186C134.416 138.186 135.391 138.45 136.169 138.978C136.961 139.506 137.525 140.247 137.863 141.2L135.223 142.344C135.12 141.904 134.907 141.53 134.585 141.222C134.262 140.914 133.815 140.76 133.243 140.76C132.583 140.76 132.084 140.98 131.747 141.42C131.409 141.845 131.241 142.425 131.241 143.158V145.314C131.241 146.047 131.409 146.627 131.747 147.052C132.084 147.477 132.583 147.69 133.243 147.69C133.829 147.69 134.291 147.536 134.629 147.228C134.981 146.905 135.237 146.487 135.399 145.974L137.929 147.074C137.547 148.174 136.953 148.981 136.147 149.494C135.355 150.007 134.387 150.264 133.243 150.264ZM146.92 148.064H146.81C146.722 148.372 146.583 148.665 146.392 148.944C146.202 149.208 145.967 149.443 145.688 149.648C145.424 149.839 145.116 149.985 144.764 150.088C144.427 150.205 144.075 150.264 143.708 150.264C142.242 150.264 141.134 149.751 140.386 148.724C139.638 147.683 139.264 146.179 139.264 144.214C139.264 142.249 139.638 140.753 140.386 139.726C141.134 138.699 142.242 138.186 143.708 138.186C144.456 138.186 145.116 138.391 145.688 138.802C146.275 139.213 146.649 139.741 146.81 140.386H146.92V138.45H150.176V154.4H146.92V148.064ZM144.786 147.624C145.402 147.624 145.908 147.477 146.304 147.184C146.715 146.876 146.92 146.458 146.92 145.93V142.52C146.92 141.992 146.715 141.581 146.304 141.288C145.908 140.98 145.402 140.826 144.786 140.826C144.17 140.826 143.657 141.046 143.246 141.486C142.85 141.911 142.652 142.491 142.652 143.224V145.226C142.652 145.959 142.85 146.546 143.246 146.986C143.657 147.411 144.17 147.624 144.786 147.624ZM160.041 148.064H159.931C159.828 148.357 159.689 148.636 159.513 148.9C159.352 149.164 159.139 149.399 158.875 149.604C158.611 149.809 158.296 149.971 157.929 150.088C157.577 150.205 157.166 150.264 156.697 150.264C155.509 150.264 154.607 149.875 153.991 149.098C153.39 148.306 153.089 147.177 153.089 145.71V138.45H156.345V145.424C156.345 146.128 156.47 146.671 156.719 147.052C156.968 147.433 157.394 147.624 157.995 147.624C158.244 147.624 158.494 147.587 158.743 147.514C158.992 147.441 159.212 147.338 159.403 147.206C159.594 147.059 159.748 146.883 159.865 146.678C159.982 146.473 160.041 146.231 160.041 145.952V138.45H163.297V150H160.041V148.064ZM167.955 137.218C167.295 137.218 166.811 137.071 166.503 136.778C166.209 136.47 166.063 136.081 166.063 135.612V135.128C166.063 134.659 166.209 134.277 166.503 133.984C166.811 133.676 167.295 133.522 167.955 133.522C168.615 133.522 169.091 133.676 169.385 133.984C169.693 134.277 169.847 134.659 169.847 135.128V135.612C169.847 136.081 169.693 136.47 169.385 136.778C169.091 137.071 168.615 137.218 167.955 137.218ZM166.327 138.45H169.583V150H166.327V138.45ZM176.538 150.264C175.423 150.264 174.484 150.088 173.722 149.736C172.959 149.369 172.277 148.856 171.676 148.196L173.59 146.26C174 146.715 174.455 147.074 174.954 147.338C175.452 147.602 176.017 147.734 176.648 147.734C177.293 147.734 177.74 147.639 177.99 147.448C178.239 147.243 178.364 146.971 178.364 146.634C178.364 146.091 177.975 145.769 177.198 145.666L175.944 145.512C173.348 145.189 172.05 144.001 172.05 141.948C172.05 141.391 172.152 140.885 172.358 140.43C172.578 139.961 172.878 139.565 173.26 139.242C173.656 138.905 174.125 138.648 174.668 138.472C175.225 138.281 175.848 138.186 176.538 138.186C177.139 138.186 177.667 138.23 178.122 138.318C178.591 138.391 179.002 138.509 179.354 138.67C179.72 138.817 180.05 139.007 180.344 139.242C180.652 139.462 180.952 139.711 181.246 139.99L179.376 141.904C179.009 141.537 178.591 141.251 178.122 141.046C177.667 140.826 177.198 140.716 176.714 140.716C176.156 140.716 175.76 140.804 175.526 140.98C175.291 141.156 175.174 141.391 175.174 141.684C175.174 141.992 175.254 142.234 175.416 142.41C175.592 142.571 175.914 142.689 176.384 142.762L177.682 142.938C180.219 143.275 181.488 144.434 181.488 146.414C181.488 146.971 181.37 147.485 181.136 147.954C180.901 148.423 180.564 148.834 180.124 149.186C179.698 149.523 179.178 149.787 178.562 149.978C177.96 150.169 177.286 150.264 176.538 150.264ZM187.584 150C186.454 150 185.596 149.714 185.01 149.142C184.438 148.57 184.152 147.734 184.152 146.634V140.98H182.524V138.45H183.338C183.778 138.45 184.078 138.347 184.24 138.142C184.401 137.922 184.482 137.614 184.482 137.218V135.326H187.408V138.45H189.696V140.98H187.408V147.47H189.52V150H187.584ZM196.558 150.264C195.707 150.264 194.944 150.125 194.27 149.846C193.61 149.567 193.045 149.164 192.576 148.636C192.121 148.108 191.769 147.47 191.52 146.722C191.27 145.974 191.146 145.138 191.146 144.214C191.146 143.29 191.27 142.454 191.52 141.706C191.769 140.958 192.121 140.327 192.576 139.814C193.045 139.286 193.61 138.883 194.27 138.604C194.944 138.325 195.707 138.186 196.558 138.186C197.408 138.186 198.164 138.325 198.824 138.604C199.498 138.883 200.063 139.286 200.518 139.814C200.987 140.327 201.346 140.958 201.596 141.706C201.845 142.454 201.97 143.29 201.97 144.214C201.97 145.138 201.845 145.974 201.596 146.722C201.346 147.47 200.987 148.108 200.518 148.636C200.063 149.164 199.498 149.567 198.824 149.846C198.164 150.125 197.408 150.264 196.558 150.264ZM196.558 147.69C197.203 147.69 197.702 147.492 198.054 147.096C198.406 146.7 198.582 146.135 198.582 145.402V143.048C198.582 142.315 198.406 141.75 198.054 141.354C197.702 140.958 197.203 140.76 196.558 140.76C195.912 140.76 195.414 140.958 195.062 141.354C194.71 141.75 194.534 142.315 194.534 143.048V145.402C194.534 146.135 194.71 146.7 195.062 147.096C195.414 147.492 195.912 147.69 196.558 147.69ZM117.742 165.156C118.783 165.156 119.561 164.921 120.074 164.452C120.602 163.968 120.866 163.352 120.866 162.604V162.45C120.866 161.643 120.609 161.042 120.096 160.646C119.597 160.235 118.937 160.03 118.116 160.03C117.324 160.03 116.679 160.206 116.18 160.558C115.681 160.895 115.271 161.357 114.948 161.944L113.584 160.888C113.775 160.58 114.002 160.279 114.266 159.986C114.545 159.678 114.867 159.407 115.234 159.172C115.601 158.937 116.026 158.747 116.51 158.6C116.994 158.453 117.544 158.38 118.16 158.38C118.805 158.38 119.414 158.468 119.986 158.644C120.558 158.805 121.049 159.055 121.46 159.392C121.885 159.715 122.215 160.118 122.45 160.602C122.699 161.086 122.824 161.636 122.824 162.252C122.824 162.751 122.743 163.198 122.582 163.594C122.435 163.99 122.23 164.335 121.966 164.628C121.702 164.921 121.387 165.171 121.02 165.376C120.668 165.581 120.287 165.735 119.876 165.838V165.926C120.287 166.014 120.683 166.161 121.064 166.366C121.46 166.557 121.805 166.813 122.098 167.136C122.406 167.444 122.648 167.825 122.824 168.28C123.015 168.72 123.11 169.226 123.11 169.798C123.11 170.458 122.985 171.067 122.736 171.624C122.487 172.167 122.135 172.636 121.68 173.032C121.225 173.413 120.675 173.714 120.03 173.934C119.385 174.154 118.673 174.264 117.896 174.264C117.236 174.264 116.649 174.191 116.136 174.044C115.623 173.897 115.168 173.699 114.772 173.45C114.376 173.201 114.024 172.922 113.716 172.614C113.423 172.306 113.159 171.983 112.924 171.646L114.31 170.59C114.501 170.898 114.706 171.177 114.926 171.426C115.161 171.675 115.417 171.888 115.696 172.064C115.975 172.24 116.29 172.379 116.642 172.482C116.994 172.57 117.405 172.614 117.874 172.614C118.959 172.614 119.781 172.372 120.338 171.888C120.895 171.389 121.174 170.685 121.174 169.776V169.6C121.174 168.691 120.895 167.994 120.338 167.51C119.781 167.011 118.959 166.762 117.874 166.762H116.07V165.156H117.742ZM131.791 174.264C129.958 174.264 128.616 173.567 127.765 172.174C126.929 170.781 126.511 168.83 126.511 166.322C126.511 163.814 126.929 161.863 127.765 160.47C128.616 159.077 129.958 158.38 131.791 158.38C133.625 158.38 134.959 159.077 135.795 160.47C136.646 161.863 137.071 163.814 137.071 166.322C137.071 168.83 136.646 170.781 135.795 172.174C134.959 173.567 133.625 174.264 131.791 174.264ZM131.791 172.658C132.393 172.658 132.906 172.533 133.331 172.284C133.757 172.035 134.101 171.683 134.365 171.228C134.629 170.773 134.82 170.238 134.937 169.622C135.069 169.006 135.135 168.324 135.135 167.576V165.068C135.135 164.32 135.069 163.638 134.937 163.022C134.82 162.406 134.629 161.871 134.365 161.416C134.101 160.961 133.757 160.609 133.331 160.36C132.906 160.111 132.393 159.986 131.791 159.986C131.19 159.986 130.677 160.111 130.251 160.36C129.826 160.609 129.481 160.961 129.217 161.416C128.953 161.871 128.755 162.406 128.623 163.022C128.506 163.638 128.447 164.32 128.447 165.068V167.576C128.447 168.324 128.506 169.006 128.623 169.622C128.755 170.238 128.953 170.773 129.217 171.228C129.481 171.683 129.826 172.035 130.251 172.284C130.677 172.533 131.19 172.658 131.791 172.658ZM142.409 174L153.057 158.644H154.751L144.103 174H142.409ZM143.289 167.092C142.174 167.092 141.316 166.725 140.715 165.992C140.113 165.244 139.813 164.159 139.813 162.736C139.813 161.313 140.113 160.235 140.715 159.502C141.316 158.754 142.174 158.38 143.289 158.38C144.403 158.38 145.261 158.754 145.863 159.502C146.464 160.235 146.765 161.313 146.765 162.736C146.765 164.159 146.464 165.244 145.863 165.992C145.261 166.725 144.403 167.092 143.289 167.092ZM143.289 165.948C144.55 165.948 145.181 165.097 145.181 163.396V162.076C145.181 160.375 144.55 159.524 143.289 159.524C142.027 159.524 141.397 160.375 141.397 162.076V163.396C141.397 165.097 142.027 165.948 143.289 165.948ZM153.871 174.264C152.756 174.264 151.898 173.897 151.297 173.164C150.695 172.416 150.395 171.331 150.395 169.908C150.395 168.485 150.695 167.407 151.297 166.674C151.898 165.926 152.756 165.552 153.871 165.552C154.985 165.552 155.843 165.926 156.445 166.674C157.046 167.407 157.347 168.485 157.347 169.908C157.347 171.331 157.046 172.416 156.445 173.164C155.843 173.897 154.985 174.264 153.871 174.264ZM153.871 173.12C155.132 173.12 155.763 172.269 155.763 170.568V169.248C155.763 167.547 155.132 166.696 153.871 166.696C152.609 166.696 151.979 167.547 151.979 169.248V170.568C151.979 172.269 152.609 173.12 153.871 173.12Z" fill="#E6E4D9"/>
<path d="M113.833 184C113.833 185.473 115.027 186.667 116.5 186.667C117.973 186.667 119.167 185.473 119.167 184C119.167 182.527 117.973 181.333 116.5 181.333C115.027 181.333 113.833 182.527 113.833 184ZM117 212.5V184H116V212.5H117Z" fill="#FFBF3F"/>
<rect x="88" y="212" width="57" height="262" fill="#FFBF3F"/>
<path d="M195.154 277L194.054 273.348H188.928L187.828 277H184.44L189.5 261.644H193.636L198.63 277H195.154ZM191.524 264.68H191.414L189.72 270.51H193.24L191.524 264.68ZM200.579 277V265.45H203.835V267.958H203.945C204.003 267.635 204.106 267.327 204.253 267.034C204.399 266.726 204.59 266.455 204.825 266.22C205.074 265.985 205.367 265.802 205.705 265.67C206.042 265.523 206.438 265.45 206.893 265.45H207.465V268.486H206.651C205.697 268.486 204.986 268.611 204.517 268.86C204.062 269.109 203.835 269.571 203.835 270.246V277H200.579ZM214.03 277.264C213.164 277.264 212.394 277.125 211.72 276.846C211.045 276.553 210.48 276.149 210.026 275.636C209.571 275.108 209.226 274.47 208.992 273.722C208.757 272.974 208.64 272.138 208.64 271.214C208.64 270.29 208.757 269.461 208.992 268.728C209.226 267.98 209.571 267.342 210.026 266.814C210.48 266.286 211.045 265.883 211.72 265.604C212.394 265.325 213.164 265.186 214.03 265.186C215.203 265.186 216.178 265.45 216.956 265.978C217.748 266.506 218.312 267.247 218.65 268.2L216.01 269.344C215.907 268.904 215.694 268.53 215.372 268.222C215.049 267.914 214.602 267.76 214.03 267.76C213.37 267.76 212.871 267.98 212.534 268.42C212.196 268.845 212.028 269.425 212.028 270.158V272.314C212.028 273.047 212.196 273.627 212.534 274.052C212.871 274.477 213.37 274.69 214.03 274.69C214.616 274.69 215.078 274.536 215.416 274.228C215.768 273.905 216.024 273.487 216.186 272.974L218.716 274.074C218.334 275.174 217.74 275.981 216.934 276.494C216.142 277.007 215.174 277.264 214.03 277.264ZM220.731 260.72H223.987V267.408H224.119C224.324 266.807 224.684 266.286 225.197 265.846C225.71 265.406 226.422 265.186 227.331 265.186C228.519 265.186 229.414 265.582 230.015 266.374C230.631 267.166 230.939 268.295 230.939 269.762V277H227.683V270.026C227.683 269.278 227.566 268.728 227.331 268.376C227.096 268.009 226.678 267.826 226.077 267.826C225.813 267.826 225.556 267.863 225.307 267.936C225.058 267.995 224.83 268.097 224.625 268.244C224.434 268.391 224.28 268.574 224.163 268.794C224.046 268.999 223.987 269.241 223.987 269.52V277H220.731V260.72ZM235.464 264.218C234.804 264.218 234.32 264.071 234.012 263.778C233.719 263.47 233.572 263.081 233.572 262.612V262.128C233.572 261.659 233.719 261.277 234.012 260.984C234.32 260.676 234.804 260.522 235.464 260.522C236.124 260.522 236.601 260.676 236.894 260.984C237.202 261.277 237.356 261.659 237.356 262.128V262.612C237.356 263.081 237.202 263.47 236.894 263.778C236.601 264.071 236.124 264.218 235.464 264.218ZM233.836 265.45H237.092V277H233.836V265.45ZM244.179 277C243.05 277 242.192 276.714 241.605 276.142C241.033 275.57 240.747 274.734 240.747 273.634V267.98H239.119V265.45H239.933C240.373 265.45 240.674 265.347 240.835 265.142C240.997 264.922 241.077 264.614 241.077 264.218V262.326H244.003V265.45H246.291V267.98H244.003V274.47H246.115V277H244.179ZM253.285 277.264C252.405 277.264 251.621 277.125 250.931 276.846C250.242 276.553 249.655 276.149 249.171 275.636C248.702 275.108 248.343 274.47 248.093 273.722C247.859 272.974 247.741 272.138 247.741 271.214C247.741 270.305 247.859 269.483 248.093 268.75C248.328 268.002 248.673 267.364 249.127 266.836C249.597 266.308 250.169 265.905 250.843 265.626C251.518 265.333 252.288 265.186 253.153 265.186C254.107 265.186 254.921 265.347 255.595 265.67C256.285 265.993 256.842 266.425 257.267 266.968C257.707 267.511 258.023 268.141 258.213 268.86C258.419 269.564 258.521 270.305 258.521 271.082V272.05H251.107V272.226C251.107 272.989 251.313 273.597 251.723 274.052C252.134 274.492 252.779 274.712 253.659 274.712C254.334 274.712 254.884 274.58 255.309 274.316C255.735 274.037 256.131 273.707 256.497 273.326L258.125 275.35C257.612 275.951 256.937 276.421 256.101 276.758C255.28 277.095 254.341 277.264 253.285 277.264ZM253.219 267.584C252.559 267.584 252.039 267.804 251.657 268.244C251.291 268.669 251.107 269.241 251.107 269.96V270.136H255.155V269.938C255.155 269.234 254.994 268.669 254.671 268.244C254.363 267.804 253.879 267.584 253.219 267.584ZM264.869 277C263.739 277 262.881 276.714 262.295 276.142C261.723 275.57 261.437 274.734 261.437 273.634V267.98H259.809V265.45H260.623C261.063 265.45 261.363 265.347 261.525 265.142C261.686 264.922 261.767 264.614 261.767 264.218V262.326H264.693V265.45H266.981V267.98H264.693V274.47H266.805V277H264.869ZM273.183 277C272.054 277 271.196 276.714 270.609 276.142C270.037 275.57 269.751 274.734 269.751 273.634V267.98H268.123V265.45H268.937C269.377 265.45 269.678 265.347 269.839 265.142C270.001 264.922 270.081 264.614 270.081 264.218V262.326H273.007V265.45H275.295V267.98H273.007V274.47H275.119V277H273.183ZM282.157 277.264C281.306 277.264 280.544 277.125 279.869 276.846C279.209 276.567 278.644 276.164 278.175 275.636C277.72 275.108 277.368 274.47 277.119 273.722C276.87 272.974 276.745 272.138 276.745 271.214C276.745 270.29 276.87 269.454 277.119 268.706C277.368 267.958 277.72 267.327 278.175 266.814C278.644 266.286 279.209 265.883 279.869 265.604C280.544 265.325 281.306 265.186 282.157 265.186C283.008 265.186 283.763 265.325 284.423 265.604C285.098 265.883 285.662 266.286 286.117 266.814C286.586 267.327 286.946 267.958 287.195 268.706C287.444 269.454 287.569 270.29 287.569 271.214C287.569 272.138 287.444 272.974 287.195 273.722C286.946 274.47 286.586 275.108 286.117 275.636C285.662 276.164 285.098 276.567 284.423 276.846C283.763 277.125 283.008 277.264 282.157 277.264ZM282.157 274.69C282.802 274.69 283.301 274.492 283.653 274.096C284.005 273.7 284.181 273.135 284.181 272.402V270.048C284.181 269.315 284.005 268.75 283.653 268.354C283.301 267.958 282.802 267.76 282.157 267.76C281.512 267.76 281.013 267.958 280.661 268.354C280.309 268.75 280.133 269.315 280.133 270.048V272.402C280.133 273.135 280.309 273.7 280.661 274.096C281.013 274.492 281.512 274.69 282.157 274.69ZM195.726 291.276C195.726 292.42 195.557 293.498 195.22 294.51C194.883 295.507 194.443 296.424 193.9 297.26C193.372 298.081 192.785 298.815 192.14 299.46C191.495 300.091 190.864 300.604 190.248 301H187.872C188.693 300.399 189.427 299.812 190.072 299.24C190.717 298.668 191.282 298.074 191.766 297.458C192.25 296.827 192.661 296.16 192.998 295.456C193.335 294.737 193.607 293.931 193.812 293.036L193.702 292.992C193.335 293.623 192.859 294.151 192.272 294.576C191.7 294.987 190.945 295.192 190.006 295.192C189.346 295.192 188.737 295.082 188.18 294.862C187.623 294.642 187.146 294.327 186.75 293.916C186.354 293.505 186.039 293.014 185.804 292.442C185.584 291.855 185.474 291.195 185.474 290.462C185.474 289.714 185.591 289.032 185.826 288.416C186.075 287.785 186.42 287.25 186.86 286.81C187.315 286.355 187.85 286.003 188.466 285.754C189.097 285.505 189.801 285.38 190.578 285.38C191.37 285.38 192.081 285.519 192.712 285.798C193.357 286.062 193.9 286.451 194.34 286.964C194.795 287.463 195.139 288.079 195.374 288.812C195.609 289.545 195.726 290.367 195.726 291.276ZM190.6 293.63C191.612 293.63 192.397 293.351 192.954 292.794C193.526 292.237 193.812 291.437 193.812 290.396V290.22C193.812 289.179 193.526 288.379 192.954 287.822C192.397 287.265 191.612 286.986 190.6 286.986C189.588 286.986 188.796 287.265 188.224 287.822C187.667 288.379 187.388 289.179 187.388 290.22V290.396C187.388 291.437 187.667 292.237 188.224 292.794C188.796 293.351 189.588 293.63 190.6 293.63ZM201.217 301L211.865 285.644H213.559L202.911 301H201.217ZM202.097 294.092C200.983 294.092 200.125 293.725 199.523 292.992C198.922 292.244 198.621 291.159 198.621 289.736C198.621 288.313 198.922 287.235 199.523 286.502C200.125 285.754 200.983 285.38 202.097 285.38C203.212 285.38 204.07 285.754 204.671 286.502C205.273 287.235 205.573 288.313 205.573 289.736C205.573 291.159 205.273 292.244 204.671 292.992C204.07 293.725 203.212 294.092 202.097 294.092ZM202.097 292.948C203.359 292.948 203.989 292.097 203.989 290.396V289.076C203.989 287.375 203.359 286.524 202.097 286.524C200.836 286.524 200.205 287.375 200.205 289.076V290.396C200.205 292.097 200.836 292.948 202.097 292.948ZM212.679 301.264C211.565 301.264 210.707 300.897 210.105 300.164C209.504 299.416 209.203 298.331 209.203 296.908C209.203 295.485 209.504 294.407 210.105 293.674C210.707 292.926 211.565 292.552 212.679 292.552C213.794 292.552 214.652 292.926 215.253 293.674C215.855 294.407 216.155 295.485 216.155 296.908C216.155 298.331 215.855 299.416 215.253 300.164C214.652 300.897 213.794 301.264 212.679 301.264ZM212.679 300.12C213.941 300.12 214.571 299.269 214.571 297.568V296.248C214.571 294.547 213.941 293.696 212.679 293.696C211.418 293.696 210.787 294.547 210.787 296.248V297.568C210.787 299.269 211.418 300.12 212.679 300.12Z" fill="#E6E4D9"/>
<path d="M186.333 311C186.333 312.473 187.527 313.667 189 313.667C190.473 313.667 191.667 312.473 191.667 311C191.667 309.527 190.473 308.333 189 308.333C187.527 308.333 186.333 309.527 186.333 311ZM189.5 417L189.5 311L188.5 311L188.5 417L189.5 417Z" fill="#FFC95D"/>
<rect x="160" y="395" width="58" height="79" fill="#FFC95D"/>
<path d="M262.666 328.264C261.317 328.264 260.173 328.037 259.234 327.582C258.295 327.113 257.496 326.511 256.836 325.778L259.036 323.556C260.077 324.729 261.361 325.316 262.886 325.316C263.707 325.316 264.316 325.147 264.712 324.81C265.108 324.473 265.306 324.025 265.306 323.468C265.306 323.043 265.189 322.691 264.954 322.412C264.719 322.119 264.243 321.921 263.524 321.818L262.006 321.62C260.378 321.415 259.183 320.923 258.42 320.146C257.672 319.369 257.298 318.335 257.298 317.044C257.298 316.355 257.43 315.724 257.694 315.152C257.958 314.58 258.332 314.089 258.816 313.678C259.315 313.267 259.916 312.952 260.62 312.732C261.339 312.497 262.153 312.38 263.062 312.38C264.221 312.38 265.24 312.563 266.12 312.93C267 313.297 267.755 313.832 268.386 314.536L266.164 316.78C265.797 316.355 265.35 316.01 264.822 315.746C264.309 315.467 263.656 315.328 262.864 315.328C262.116 315.328 261.559 315.46 261.192 315.724C260.825 315.988 260.642 316.355 260.642 316.824C260.642 317.352 260.781 317.733 261.06 317.968C261.353 318.203 261.823 318.371 262.468 318.474L263.986 318.716C265.57 318.965 266.743 319.457 267.506 320.19C268.269 320.909 268.65 321.935 268.65 323.27C268.65 324.003 268.518 324.678 268.254 325.294C267.99 325.91 267.601 326.438 267.088 326.878C266.589 327.318 265.966 327.663 265.218 327.912C264.47 328.147 263.619 328.264 262.666 328.264ZM271.247 316.45H274.503V318.386H274.613C274.774 317.741 275.141 317.213 275.713 316.802C276.299 316.391 276.967 316.186 277.715 316.186C279.181 316.186 280.289 316.699 281.037 317.726C281.785 318.753 282.159 320.249 282.159 322.214C282.159 324.179 281.785 325.683 281.037 326.724C280.289 327.751 279.181 328.264 277.715 328.264C277.333 328.264 276.974 328.205 276.637 328.088C276.299 327.985 275.991 327.839 275.713 327.648C275.449 327.443 275.221 327.208 275.031 326.944C274.84 326.665 274.701 326.372 274.613 326.064H274.503V332.4H271.247V316.45ZM276.637 325.624C277.253 325.624 277.759 325.411 278.155 324.986C278.565 324.546 278.771 323.959 278.771 323.226V321.224C278.771 320.491 278.565 319.911 278.155 319.486C277.759 319.046 277.253 318.826 276.637 318.826C276.021 318.826 275.507 318.98 275.097 319.288C274.701 319.581 274.503 319.992 274.503 320.52V323.93C274.503 324.458 274.701 324.876 275.097 325.184C275.507 325.477 276.021 325.624 276.637 325.624ZM289.449 328.264C288.569 328.264 287.785 328.125 287.095 327.846C286.406 327.553 285.819 327.149 285.335 326.636C284.866 326.108 284.507 325.47 284.257 324.722C284.023 323.974 283.905 323.138 283.905 322.214C283.905 321.305 284.023 320.483 284.257 319.75C284.492 319.002 284.837 318.364 285.291 317.836C285.761 317.308 286.333 316.905 287.007 316.626C287.682 316.333 288.452 316.186 289.317 316.186C290.271 316.186 291.085 316.347 291.759 316.67C292.449 316.993 293.006 317.425 293.431 317.968C293.871 318.511 294.187 319.141 294.377 319.86C294.583 320.564 294.685 321.305 294.685 322.082V323.05H287.271V323.226C287.271 323.989 287.477 324.597 287.887 325.052C288.298 325.492 288.943 325.712 289.823 325.712C290.498 325.712 291.048 325.58 291.473 325.316C291.899 325.037 292.295 324.707 292.661 324.326L294.289 326.35C293.776 326.951 293.101 327.421 292.265 327.758C291.444 328.095 290.505 328.264 289.449 328.264ZM289.383 318.584C288.723 318.584 288.203 318.804 287.821 319.244C287.455 319.669 287.271 320.241 287.271 320.96V321.136H291.319V320.938C291.319 320.234 291.158 319.669 290.835 319.244C290.527 318.804 290.043 318.584 289.383 318.584ZM300.901 328.264C299.786 328.264 298.847 328.088 298.085 327.736C297.322 327.369 296.64 326.856 296.039 326.196L297.953 324.26C298.363 324.715 298.818 325.074 299.317 325.338C299.815 325.602 300.38 325.734 301.011 325.734C301.656 325.734 302.103 325.639 302.353 325.448C302.602 325.243 302.727 324.971 302.727 324.634C302.727 324.091 302.338 323.769 301.561 323.666L300.307 323.512C297.711 323.189 296.413 322.001 296.413 319.948C296.413 319.391 296.515 318.885 296.721 318.43C296.941 317.961 297.241 317.565 297.623 317.242C298.019 316.905 298.488 316.648 299.031 316.472C299.588 316.281 300.211 316.186 300.901 316.186C301.502 316.186 302.03 316.23 302.485 316.318C302.954 316.391 303.365 316.509 303.717 316.67C304.083 316.817 304.413 317.007 304.707 317.242C305.015 317.462 305.315 317.711 305.609 317.99L303.739 319.904C303.372 319.537 302.954 319.251 302.485 319.046C302.03 318.826 301.561 318.716 301.077 318.716C300.519 318.716 300.123 318.804 299.889 318.98C299.654 319.156 299.537 319.391 299.537 319.684C299.537 319.992 299.617 320.234 299.779 320.41C299.955 320.571 300.277 320.689 300.747 320.762L302.045 320.938C304.582 321.275 305.851 322.434 305.851 324.414C305.851 324.971 305.733 325.485 305.499 325.954C305.264 326.423 304.927 326.834 304.487 327.186C304.061 327.523 303.541 327.787 302.925 327.978C302.323 328.169 301.649 328.264 300.901 328.264ZM312.889 328.264C312.009 328.264 311.224 328.125 310.535 327.846C309.845 327.553 309.259 327.149 308.775 326.636C308.305 326.108 307.946 325.47 307.697 324.722C307.462 323.974 307.345 323.138 307.345 322.214C307.345 321.305 307.462 320.483 307.697 319.75C307.931 319.002 308.276 318.364 308.731 317.836C309.2 317.308 309.772 316.905 310.447 316.626C311.121 316.333 311.891 316.186 312.757 316.186C313.71 316.186 314.524 316.347 315.199 316.67C315.888 316.993 316.445 317.425 316.871 317.968C317.311 318.511 317.626 319.141 317.817 319.86C318.022 320.564 318.125 321.305 318.125 322.082V323.05H310.711V323.226C310.711 323.989 310.916 324.597 311.327 325.052C311.737 325.492 312.383 325.712 313.263 325.712C313.937 325.712 314.487 325.58 314.913 325.316C315.338 325.037 315.734 324.707 316.101 324.326L317.729 326.35C317.215 326.951 316.541 327.421 315.705 327.758C314.883 328.095 313.945 328.264 312.889 328.264ZM312.823 318.584C312.163 318.584 311.642 318.804 311.261 319.244C310.894 319.669 310.711 320.241 310.711 320.96V321.136H314.759V320.938C314.759 320.234 314.597 319.669 314.275 319.244C313.967 318.804 313.483 318.584 312.823 318.584ZM325.623 328V316.45H328.879V318.408H329.011C329.217 317.807 329.576 317.286 330.089 316.846C330.603 316.406 331.314 316.186 332.223 316.186C333.411 316.186 334.306 316.582 334.907 317.374C335.523 318.166 335.831 319.295 335.831 320.762V328H332.575V321.026C332.575 320.278 332.458 319.728 332.223 319.376C331.989 319.009 331.571 318.826 330.969 318.826C330.705 318.826 330.449 318.863 330.199 318.936C329.95 318.995 329.723 319.097 329.517 319.244C329.327 319.391 329.173 319.574 329.055 319.794C328.938 319.999 328.879 320.241 328.879 320.52V328H325.623ZM343.415 328.264C342.564 328.264 341.802 328.125 341.127 327.846C340.467 327.567 339.902 327.164 339.433 326.636C338.978 326.108 338.626 325.47 338.377 324.722C338.128 323.974 338.003 323.138 338.003 322.214C338.003 321.29 338.128 320.454 338.377 319.706C338.626 318.958 338.978 318.327 339.433 317.814C339.902 317.286 340.467 316.883 341.127 316.604C341.802 316.325 342.564 316.186 343.415 316.186C344.266 316.186 345.021 316.325 345.681 316.604C346.356 316.883 346.92 317.286 347.375 317.814C347.844 318.327 348.204 318.958 348.453 319.706C348.702 320.454 348.827 321.29 348.827 322.214C348.827 323.138 348.702 323.974 348.453 324.722C348.204 325.47 347.844 326.108 347.375 326.636C346.92 327.164 346.356 327.567 345.681 327.846C345.021 328.125 344.266 328.264 343.415 328.264ZM343.415 325.69C344.06 325.69 344.559 325.492 344.911 325.096C345.263 324.7 345.439 324.135 345.439 323.402V321.048C345.439 320.315 345.263 319.75 344.911 319.354C344.559 318.958 344.06 318.76 343.415 318.76C342.77 318.76 342.271 318.958 341.919 319.354C341.567 319.75 341.391 320.315 341.391 321.048V323.402C341.391 324.135 341.567 324.7 341.919 325.096C342.271 325.492 342.77 325.69 343.415 325.69ZM355.066 328C353.937 328 353.079 327.714 352.492 327.142C351.92 326.57 351.634 325.734 351.634 324.634V318.98H350.006V316.45H350.82C351.26 316.45 351.561 316.347 351.722 316.142C351.883 315.922 351.964 315.614 351.964 315.218V313.326H354.89V316.45H357.178V318.98H354.89V325.47H357.002V328H355.066ZM367.976 328C367.389 328 366.898 327.817 366.502 327.45C366.121 327.083 365.879 326.592 365.776 325.976H365.644C365.468 326.724 365.079 327.296 364.478 327.692C363.877 328.073 363.136 328.264 362.256 328.264C361.097 328.264 360.21 327.956 359.594 327.34C358.978 326.724 358.67 325.91 358.67 324.898C358.67 323.681 359.11 322.779 359.99 322.192C360.885 321.591 362.095 321.29 363.62 321.29H365.446V320.564C365.446 320.007 365.299 319.567 365.006 319.244C364.713 318.907 364.221 318.738 363.532 318.738C362.887 318.738 362.373 318.877 361.992 319.156C361.611 319.435 361.295 319.75 361.046 320.102L359.11 318.386C359.579 317.697 360.166 317.161 360.87 316.78C361.589 316.384 362.557 316.186 363.774 316.186C365.417 316.186 366.649 316.545 367.47 317.264C368.291 317.983 368.702 319.031 368.702 320.41V325.47H369.78V328H367.976ZM363.466 325.998C364.009 325.998 364.471 325.881 364.852 325.646C365.248 325.411 365.446 325.03 365.446 324.502V323.138H363.862C362.586 323.138 361.948 323.571 361.948 324.436V324.766C361.948 325.191 362.08 325.507 362.344 325.712C362.608 325.903 362.982 325.998 363.466 325.998ZM371.965 328V316.45H375.221V318.958H375.331C375.39 318.635 375.493 318.327 375.639 318.034C375.786 317.726 375.977 317.455 376.211 317.22C376.461 316.985 376.754 316.802 377.091 316.67C377.429 316.523 377.825 316.45 378.279 316.45H378.851V319.486H378.037C377.084 319.486 376.373 319.611 375.903 319.86C375.449 320.109 375.221 320.571 375.221 321.246V328H371.965ZM382.488 315.218C381.828 315.218 381.344 315.071 381.036 314.778C380.742 314.47 380.596 314.081 380.596 313.612V313.128C380.596 312.659 380.742 312.277 381.036 311.984C381.344 311.676 381.828 311.522 382.488 311.522C383.148 311.522 383.624 311.676 383.918 311.984C384.226 312.277 384.38 312.659 384.38 313.128V313.612C384.38 314.081 384.226 314.47 383.918 314.778C383.624 315.071 383.148 315.218 382.488 315.218ZM380.86 316.45H384.116V328H380.86V316.45ZM390.389 328C389.274 328 388.453 327.729 387.925 327.186C387.411 326.643 387.155 325.859 387.155 324.832V311.72H390.411V325.47H391.863V328H390.389ZM395.443 315.218C394.783 315.218 394.299 315.071 393.991 314.778C393.698 314.47 393.551 314.081 393.551 313.612V313.128C393.551 312.659 393.698 312.277 393.991 311.984C394.299 311.676 394.783 311.522 395.443 311.522C396.103 311.522 396.58 311.676 396.873 311.984C397.181 312.277 397.335 312.659 397.335 313.128V313.612C397.335 314.081 397.181 314.47 396.873 314.778C396.58 315.071 396.103 315.218 395.443 315.218ZM393.815 316.45H397.071V328H393.815V316.45ZM262.622 352.264C261.83 352.264 261.111 352.132 260.466 351.868C259.835 351.589 259.293 351.201 258.838 350.702C258.398 350.189 258.061 349.565 257.826 348.832C257.591 348.099 257.474 347.277 257.474 346.368C257.474 345.224 257.643 344.153 257.98 343.156C258.317 342.144 258.75 341.227 259.278 340.406C259.821 339.57 260.415 338.837 261.06 338.206C261.705 337.561 262.336 337.04 262.952 336.644H265.328C264.507 337.245 263.773 337.832 263.128 338.404C262.483 338.976 261.918 339.577 261.434 340.208C260.95 340.824 260.539 341.491 260.202 342.21C259.865 342.914 259.593 343.713 259.388 344.608L259.498 344.652C259.865 344.021 260.334 343.501 260.906 343.09C261.493 342.665 262.255 342.452 263.194 342.452C263.854 342.452 264.463 342.562 265.02 342.782C265.577 343.002 266.054 343.317 266.45 343.728C266.846 344.139 267.154 344.637 267.374 345.224C267.609 345.811 267.726 346.463 267.726 347.182C267.726 347.93 267.601 348.619 267.352 349.25C267.117 349.866 266.773 350.401 266.318 350.856C265.878 351.296 265.343 351.641 264.712 351.89C264.081 352.139 263.385 352.264 262.622 352.264ZM262.6 350.658C263.612 350.658 264.397 350.379 264.954 349.822C265.526 349.265 265.812 348.465 265.812 347.424V347.248C265.812 346.207 265.526 345.407 264.954 344.85C264.397 344.293 263.612 344.014 262.6 344.014C261.588 344.014 260.796 344.293 260.224 344.85C259.667 345.407 259.388 346.207 259.388 347.248V347.424C259.388 348.465 259.667 349.265 260.224 349.822C260.796 350.379 261.588 350.658 262.6 350.658ZM273.217 352L283.865 336.644H285.559L274.911 352H273.217ZM274.097 345.092C272.983 345.092 272.125 344.725 271.523 343.992C270.922 343.244 270.621 342.159 270.621 340.736C270.621 339.313 270.922 338.235 271.523 337.502C272.125 336.754 272.983 336.38 274.097 336.38C275.212 336.38 276.07 336.754 276.671 337.502C277.273 338.235 277.573 339.313 277.573 340.736C277.573 342.159 277.273 343.244 276.671 343.992C276.07 344.725 275.212 345.092 274.097 345.092ZM274.097 343.948C275.359 343.948 275.989 343.097 275.989 341.396V340.076C275.989 338.375 275.359 337.524 274.097 337.524C272.836 337.524 272.205 338.375 272.205 340.076V341.396C272.205 343.097 272.836 343.948 274.097 343.948ZM284.679 352.264C283.565 352.264 282.707 351.897 282.105 351.164C281.504 350.416 281.203 349.331 281.203 347.908C281.203 346.485 281.504 345.407 282.105 344.674C282.707 343.926 283.565 343.552 284.679 343.552C285.794 343.552 286.652 343.926 287.253 344.674C287.855 345.407 288.155 346.485 288.155 347.908C288.155 349.331 287.855 350.416 287.253 351.164C286.652 351.897 285.794 352.264 284.679 352.264ZM284.679 351.12C285.941 351.12 286.571 350.269 286.571 348.568V347.248C286.571 345.547 285.941 344.696 284.679 344.696C283.418 344.696 282.787 345.547 282.787 347.248V348.568C282.787 350.269 283.418 351.12 284.679 351.12Z" fill="#E6E4D9"/>
<path d="M258.333 362C258.333 363.473 259.527 364.667 261 364.667C262.473 364.667 263.667 363.473 263.667 362C263.667 360.527 262.473 359.333 261 359.333C259.527 359.333 258.333 360.527 258.333 362ZM261.5 425L261.5 362L260.5 362L260.5 425L261.5 425Z" fill="#FFDB91"/>
<rect x="233" y="421" width="57" height="53" fill="#FFDB91"/>
<path d="M329.694 353.644H337.152C338.428 353.644 339.418 354.003 340.122 354.722C340.841 355.441 341.2 356.394 341.2 357.582C341.2 358.169 341.119 358.667 340.958 359.078C340.811 359.489 340.606 359.826 340.342 360.09C340.093 360.354 339.792 360.552 339.44 360.684C339.103 360.801 338.736 360.867 338.34 360.882V361.014C338.707 361.014 339.088 361.08 339.484 361.212C339.895 361.344 340.269 361.557 340.606 361.85C340.943 362.129 341.222 362.495 341.442 362.95C341.677 363.405 341.794 363.962 341.794 364.622C341.794 365.223 341.691 365.795 341.486 366.338C341.295 366.866 341.024 367.328 340.672 367.724C340.32 368.12 339.902 368.435 339.418 368.67C338.934 368.89 338.406 369 337.834 369H329.694V353.644ZM333.038 366.184H336.888C337.328 366.184 337.673 366.067 337.922 365.832C338.186 365.583 338.318 365.238 338.318 364.798V364.05C338.318 363.61 338.186 363.273 337.922 363.038C337.673 362.789 337.328 362.664 336.888 362.664H333.038V366.184ZM333.038 359.936H336.36C336.8 359.936 337.145 359.811 337.394 359.562C337.643 359.313 337.768 358.968 337.768 358.528V357.868C337.768 357.428 337.643 357.083 337.394 356.834C337.145 356.585 336.8 356.46 336.36 356.46H333.038V359.936ZM355.852 358.924H355.786L354.664 361.168L351.672 366.602L348.746 361.19L347.58 358.77H347.514V369H344.368V353.644H347.91L351.672 360.838H351.716L355.434 353.644H358.998V369H355.852V358.924ZM338.956 379.272H332.224L331.784 385.124H331.938C332.305 384.611 332.715 384.2 333.17 383.892C333.639 383.584 334.277 383.43 335.084 383.43C335.744 383.43 336.353 383.54 336.91 383.76C337.467 383.98 337.951 384.295 338.362 384.706C338.773 385.102 339.088 385.593 339.308 386.18C339.543 386.767 339.66 387.434 339.66 388.182C339.66 388.93 339.543 389.619 339.308 390.25C339.073 390.866 338.729 391.401 338.274 391.856C337.834 392.296 337.291 392.641 336.646 392.89C336.015 393.139 335.297 393.264 334.49 393.264C333.845 393.264 333.273 393.191 332.774 393.044C332.29 392.897 331.857 392.699 331.476 392.45C331.095 392.201 330.757 391.922 330.464 391.614C330.185 391.306 329.929 390.983 329.694 390.646L331.08 389.59C331.271 389.898 331.469 390.177 331.674 390.426C331.894 390.675 332.129 390.888 332.378 391.064C332.642 391.24 332.943 391.379 333.28 391.482C333.617 391.57 334.021 391.614 334.49 391.614C335.546 391.614 336.345 391.335 336.888 390.778C337.431 390.221 337.702 389.436 337.702 388.424V388.204C337.702 387.192 337.431 386.407 336.888 385.85C336.345 385.293 335.546 385.014 334.49 385.014C333.786 385.014 333.229 385.146 332.818 385.41C332.422 385.659 332.063 385.96 331.74 386.312L330.178 386.092L330.728 377.644H338.956V379.272ZM345.217 393L355.865 377.644H357.559L346.911 393H345.217ZM346.097 386.092C344.983 386.092 344.125 385.725 343.523 384.992C342.922 384.244 342.621 383.159 342.621 381.736C342.621 380.313 342.922 379.235 343.523 378.502C344.125 377.754 344.983 377.38 346.097 377.38C347.212 377.38 348.07 377.754 348.671 378.502C349.273 379.235 349.573 380.313 349.573 381.736C349.573 383.159 349.273 384.244 348.671 384.992C348.07 385.725 347.212 386.092 346.097 386.092ZM346.097 384.948C347.359 384.948 347.989 384.097 347.989 382.396V381.076C347.989 379.375 347.359 378.524 346.097 378.524C344.836 378.524 344.205 379.375 344.205 381.076V382.396C344.205 384.097 344.836 384.948 346.097 384.948ZM356.679 393.264C355.565 393.264 354.707 392.897 354.105 392.164C353.504 391.416 353.203 390.331 353.203 388.908C353.203 387.485 353.504 386.407 354.105 385.674C354.707 384.926 355.565 384.552 356.679 384.552C357.794 384.552 358.652 384.926 359.253 385.674C359.855 386.407 360.155 387.485 360.155 388.908C360.155 390.331 359.855 391.416 359.253 392.164C358.652 392.897 357.794 393.264 356.679 393.264ZM356.679 392.12C357.941 392.12 358.571 391.269 358.571 389.568V388.248C358.571 386.547 357.941 385.696 356.679 385.696C355.418 385.696 354.787 386.547 354.787 388.248V389.568C354.787 391.269 355.418 392.12 356.679 392.12Z" fill="#E6E4D9"/>
<path d="M330.333 403C330.333 404.473 331.527 405.667 333 405.667C334.473 405.667 335.667 404.473 335.667 403C335.667 401.527 334.473 400.333 333 400.333C331.527 400.333 330.333 401.527 330.333 403ZM333.5 431.5L333.5 403L332.5 403L332.5 431.5L333.5 431.5Z" fill="#E6E4D9"/>
<rect x="305" y="431" width="57" height="43" fill="#E6E4D9"/>
<path d="M408.898 377.264C407.857 377.264 406.918 377.103 406.082 376.78C405.246 376.443 404.535 375.951 403.948 375.306C403.361 374.646 402.907 373.832 402.584 372.864C402.261 371.881 402.1 370.737 402.1 369.432C402.1 368.141 402.261 366.997 402.584 366C402.907 364.988 403.361 364.145 403.948 363.47C404.535 362.781 405.246 362.26 406.082 361.908C406.918 361.556 407.857 361.38 408.898 361.38C410.321 361.38 411.494 361.673 412.418 362.26C413.342 362.832 414.083 363.741 414.64 364.988L411.758 366.484C411.553 365.839 411.23 365.325 410.79 364.944C410.365 364.548 409.734 364.35 408.898 364.35C407.915 364.35 407.123 364.673 406.522 365.318C405.935 365.949 405.642 366.873 405.642 368.09V370.554C405.642 371.771 405.935 372.703 406.522 373.348C407.123 373.979 407.915 374.294 408.898 374.294C409.719 374.294 410.372 374.074 410.856 373.634C411.355 373.179 411.721 372.637 411.956 372.006L414.684 373.59C414.112 374.763 413.357 375.673 412.418 376.318C411.494 376.949 410.321 377.264 408.898 377.264ZM421.534 377.264C420.683 377.264 419.921 377.125 419.246 376.846C418.586 376.567 418.021 376.164 417.552 375.636C417.097 375.108 416.745 374.47 416.496 373.722C416.247 372.974 416.122 372.138 416.122 371.214C416.122 370.29 416.247 369.454 416.496 368.706C416.745 367.958 417.097 367.327 417.552 366.814C418.021 366.286 418.586 365.883 419.246 365.604C419.921 365.325 420.683 365.186 421.534 365.186C422.385 365.186 423.14 365.325 423.8 365.604C424.475 365.883 425.039 366.286 425.494 366.814C425.963 367.327 426.323 367.958 426.572 368.706C426.821 369.454 426.946 370.29 426.946 371.214C426.946 372.138 426.821 372.974 426.572 373.722C426.323 374.47 425.963 375.108 425.494 375.636C425.039 376.164 424.475 376.567 423.8 376.846C423.14 377.125 422.385 377.264 421.534 377.264ZM421.534 374.69C422.179 374.69 422.678 374.492 423.03 374.096C423.382 373.7 423.558 373.135 423.558 372.402V370.048C423.558 369.315 423.382 368.75 423.03 368.354C422.678 367.958 422.179 367.76 421.534 367.76C420.889 367.76 420.39 367.958 420.038 368.354C419.686 368.75 419.51 369.315 419.51 370.048V372.402C419.51 373.135 419.686 373.7 420.038 374.096C420.39 374.492 420.889 374.69 421.534 374.69ZM429.266 377V365.45H432.522V367.408H432.654C432.859 366.807 433.219 366.286 433.732 365.846C434.245 365.406 434.957 365.186 435.866 365.186C437.054 365.186 437.949 365.582 438.55 366.374C439.166 367.166 439.474 368.295 439.474 369.762V377H436.218V370.026C436.218 369.278 436.101 368.728 435.866 368.376C435.631 368.009 435.213 367.826 434.612 367.826C434.348 367.826 434.091 367.863 433.842 367.936C433.593 367.995 433.365 368.097 433.16 368.244C432.969 368.391 432.815 368.574 432.698 368.794C432.581 368.999 432.522 369.241 432.522 369.52V377H429.266ZM446.42 377C445.29 377 444.432 376.714 443.846 376.142C443.274 375.57 442.988 374.734 442.988 373.634V367.98H441.36V365.45H442.174C442.614 365.45 442.914 365.347 443.076 365.142C443.237 364.922 443.318 364.614 443.318 364.218V362.326H446.244V365.45H448.532V367.98H446.244V374.47H448.356V377H446.42ZM452.421 364.218C451.761 364.218 451.277 364.071 450.969 363.778C450.676 363.47 450.529 363.081 450.529 362.612V362.128C450.529 361.659 450.676 361.277 450.969 360.984C451.277 360.676 451.761 360.522 452.421 360.522C453.081 360.522 453.558 360.676 453.851 360.984C454.159 361.277 454.313 361.659 454.313 362.128V362.612C454.313 363.081 454.159 363.47 453.851 363.778C453.558 364.071 453.081 364.218 452.421 364.218ZM450.793 365.45H454.049V377H450.793V365.45ZM457.088 377V365.45H460.344V367.408H460.476C460.682 366.807 461.041 366.286 461.554 365.846C462.068 365.406 462.779 365.186 463.688 365.186C464.876 365.186 465.771 365.582 466.372 366.374C466.988 367.166 467.296 368.295 467.296 369.762V377H464.04V370.026C464.04 369.278 463.923 368.728 463.688 368.376C463.454 368.009 463.036 367.826 462.434 367.826C462.17 367.826 461.914 367.863 461.664 367.936C461.415 367.995 461.188 368.097 460.982 368.244C460.792 368.391 460.638 368.574 460.52 368.794C460.403 368.999 460.344 369.241 460.344 369.52V377H457.088ZM480.886 377.836C480.886 378.452 480.776 378.995 480.556 379.464C480.35 379.933 480.006 380.329 479.522 380.652C479.038 380.989 478.392 381.239 477.586 381.4C476.794 381.576 475.811 381.664 474.638 381.664C473.64 381.664 472.79 381.598 472.086 381.466C471.396 381.349 470.832 381.173 470.392 380.938C469.966 380.718 469.651 380.439 469.446 380.102C469.255 379.779 469.16 379.405 469.16 378.98C469.16 378.335 469.35 377.829 469.732 377.462C470.113 377.095 470.641 376.868 471.316 376.78V376.538C470.758 376.435 470.34 376.201 470.062 375.834C469.783 375.453 469.644 375.013 469.644 374.514C469.644 374.206 469.702 373.942 469.82 373.722C469.952 373.487 470.113 373.289 470.304 373.128C470.509 372.952 470.744 372.813 471.008 372.71C471.272 372.607 471.536 372.527 471.8 372.468V372.38C471.096 372.057 470.575 371.617 470.238 371.06C469.9 370.488 469.732 369.828 469.732 369.08C469.732 367.907 470.135 366.968 470.942 366.264C471.763 365.545 473.01 365.186 474.682 365.186C475.444 365.186 476.097 365.259 476.64 365.406V364.966C476.64 364.35 476.786 363.91 477.08 363.646C477.388 363.367 477.82 363.228 478.378 363.228H480.204V365.648H477.652V365.78C478.326 366.103 478.825 366.55 479.148 367.122C479.47 367.679 479.632 368.332 479.632 369.08C479.632 370.239 479.221 371.17 478.4 371.874C477.593 372.563 476.354 372.908 474.682 372.908C473.934 372.908 473.252 372.827 472.636 372.666C472.298 372.886 472.13 373.194 472.13 373.59C472.13 373.869 472.232 374.089 472.438 374.25C472.658 374.397 473.017 374.47 473.516 374.47H476.86C478.268 374.47 479.287 374.763 479.918 375.35C480.563 375.937 480.886 376.765 480.886 377.836ZM477.828 378.276C477.828 377.939 477.696 377.682 477.432 377.506C477.168 377.33 476.706 377.242 476.046 377.242H472.086C471.939 377.389 471.829 377.55 471.756 377.726C471.697 377.917 471.668 378.1 471.668 378.276C471.668 378.701 471.851 379.009 472.218 379.2C472.584 379.405 473.208 379.508 474.088 379.508H475.408C476.288 379.508 476.911 379.405 477.278 379.2C477.644 379.009 477.828 378.701 477.828 378.276ZM474.682 370.774C475.327 370.774 475.804 370.642 476.112 370.378C476.434 370.099 476.596 369.703 476.596 369.19V368.926C476.596 368.413 476.434 368.024 476.112 367.76C475.804 367.481 475.327 367.342 474.682 367.342C474.036 367.342 473.552 367.481 473.23 367.76C472.922 368.024 472.768 368.413 472.768 368.926V369.19C472.768 369.703 472.922 370.099 473.23 370.378C473.552 370.642 474.036 370.774 474.682 370.774ZM487.022 377.264C486.142 377.264 485.357 377.125 484.668 376.846C483.978 376.553 483.392 376.149 482.908 375.636C482.438 375.108 482.079 374.47 481.83 373.722C481.595 372.974 481.478 372.138 481.478 371.214C481.478 370.305 481.595 369.483 481.83 368.75C482.064 368.002 482.409 367.364 482.864 366.836C483.333 366.308 483.905 365.905 484.58 365.626C485.254 365.333 486.024 365.186 486.89 365.186C487.843 365.186 488.657 365.347 489.332 365.67C490.021 365.993 490.578 366.425 491.004 366.968C491.444 367.511 491.759 368.141 491.95 368.86C492.155 369.564 492.258 370.305 492.258 371.082V372.05H484.844V372.226C484.844 372.989 485.049 373.597 485.46 374.052C485.87 374.492 486.516 374.712 487.396 374.712C488.07 374.712 488.62 374.58 489.046 374.316C489.471 374.037 489.867 373.707 490.234 373.326L491.862 375.35C491.348 375.951 490.674 376.421 489.838 376.758C489.016 377.095 488.078 377.264 487.022 377.264ZM486.956 367.584C486.296 367.584 485.775 367.804 485.394 368.244C485.027 368.669 484.844 369.241 484.844 369.96V370.136H488.892V369.938C488.892 369.234 488.73 368.669 488.408 368.244C488.1 367.804 487.616 367.584 486.956 367.584ZM494.557 377V365.45H497.813V367.408H497.945C498.15 366.807 498.51 366.286 499.023 365.846C499.536 365.406 500.248 365.186 501.157 365.186C502.345 365.186 503.24 365.582 503.841 366.374C504.457 367.166 504.765 368.295 504.765 369.762V377H501.509V370.026C501.509 369.278 501.392 368.728 501.157 368.376C500.922 368.009 500.504 367.826 499.903 367.826C499.639 367.826 499.382 367.863 499.133 367.936C498.884 367.995 498.656 368.097 498.451 368.244C498.26 368.391 498.106 368.574 497.989 368.794C497.872 368.999 497.813 369.241 497.813 369.52V377H494.557ZM507.003 377V374.426L512.745 367.98H507.201V365.45H516.529V368.002L510.765 374.47H516.683V377H507.003ZM523.609 377.264C522.729 377.264 521.945 377.125 521.255 376.846C520.566 376.553 519.979 376.149 519.495 375.636C519.026 375.108 518.667 374.47 518.417 373.722C518.183 372.974 518.065 372.138 518.065 371.214C518.065 370.305 518.183 369.483 518.417 368.75C518.652 368.002 518.997 367.364 519.451 366.836C519.921 366.308 520.493 365.905 521.167 365.626C521.842 365.333 522.612 365.186 523.477 365.186C524.431 365.186 525.245 365.347 525.919 365.67C526.609 365.993 527.166 366.425 527.591 366.968C528.031 367.511 528.347 368.141 528.537 368.86C528.743 369.564 528.845 370.305 528.845 371.082V372.05H521.431V372.226C521.431 372.989 521.637 373.597 522.047 374.052C522.458 374.492 523.103 374.712 523.983 374.712C524.658 374.712 525.208 374.58 525.633 374.316C526.059 374.037 526.455 373.707 526.821 373.326L528.449 375.35C527.936 375.951 527.261 376.421 526.425 376.758C525.604 377.095 524.665 377.264 523.609 377.264ZM523.543 367.584C522.883 367.584 522.363 367.804 521.981 368.244C521.615 368.669 521.431 369.241 521.431 369.96V370.136H525.479V369.938C525.479 369.234 525.318 368.669 524.995 368.244C524.687 367.804 524.203 367.584 523.543 367.584ZM409.25 401V397.986H401.836V396.358L408.26 385.644H411.01V396.446H413.232V397.986H411.01V401H409.25ZM403.574 396.446H409.25V387.074H409.14L403.574 396.446ZM418.217 401L428.865 385.644H430.559L419.911 401H418.217ZM419.097 394.092C417.983 394.092 417.125 393.725 416.523 392.992C415.922 392.244 415.621 391.159 415.621 389.736C415.621 388.313 415.922 387.235 416.523 386.502C417.125 385.754 417.983 385.38 419.097 385.38C420.212 385.38 421.07 385.754 421.671 386.502C422.273 387.235 422.573 388.313 422.573 389.736C422.573 391.159 422.273 392.244 421.671 392.992C421.07 393.725 420.212 394.092 419.097 394.092ZM419.097 392.948C420.359 392.948 420.989 392.097 420.989 390.396V389.076C420.989 387.375 420.359 386.524 419.097 386.524C417.836 386.524 417.205 387.375 417.205 389.076V390.396C417.205 392.097 417.836 392.948 419.097 392.948ZM429.679 401.264C428.565 401.264 427.707 400.897 427.105 400.164C426.504 399.416 426.203 398.331 426.203 396.908C426.203 395.485 426.504 394.407 427.105 393.674C427.707 392.926 428.565 392.552 429.679 392.552C430.794 392.552 431.652 392.926 432.253 393.674C432.855 394.407 433.155 395.485 433.155 396.908C433.155 398.331 432.855 399.416 432.253 400.164C431.652 400.897 430.794 401.264 429.679 401.264ZM429.679 400.12C430.941 400.12 431.571 399.269 431.571 397.568V396.248C431.571 394.547 430.941 393.696 429.679 393.696C428.418 393.696 427.787 394.547 427.787 396.248V397.568C427.787 399.269 428.418 400.12 429.679 400.12Z" fill="#E6E4D9"/>
<path d="M402.833 411C402.833 412.473 404.027 413.667 405.5 413.667C406.973 413.667 408.167 412.473 408.167 411C408.167 409.527 406.973 408.333 405.5 408.333C404.027 408.333 402.833 409.527 402.833 411ZM406 439.5V411H405V439.5H406Z" fill="#FFEBC4"/>
<rect x="377" y="439" width="58" height="35" fill="#FFEBC4"/>
<path d="M479.258 426L474.308 410.644H477.696L479.984 418.014L481.194 422.832H481.26L482.426 418.014L484.714 410.644H487.992L482.998 426H479.258ZM491.455 413.218C490.795 413.218 490.311 413.071 490.003 412.778C489.709 412.47 489.563 412.081 489.563 411.612V411.128C489.563 410.659 489.709 410.277 490.003 409.984C490.311 409.676 490.795 409.522 491.455 409.522C492.115 409.522 492.591 409.676 492.885 409.984C493.193 410.277 493.347 410.659 493.347 411.128V411.612C493.347 412.081 493.193 412.47 492.885 412.778C492.591 413.071 492.115 413.218 491.455 413.218ZM489.827 414.45H493.083V426H489.827V414.45ZM500.038 426.264C498.923 426.264 497.984 426.088 497.222 425.736C496.459 425.369 495.777 424.856 495.176 424.196L497.09 422.26C497.5 422.715 497.955 423.074 498.454 423.338C498.952 423.602 499.517 423.734 500.148 423.734C500.793 423.734 501.24 423.639 501.49 423.448C501.739 423.243 501.864 422.971 501.864 422.634C501.864 422.091 501.475 421.769 500.698 421.666L499.444 421.512C496.848 421.189 495.55 420.001 495.55 417.948C495.55 417.391 495.652 416.885 495.858 416.43C496.078 415.961 496.378 415.565 496.76 415.242C497.156 414.905 497.625 414.648 498.168 414.472C498.725 414.281 499.348 414.186 500.038 414.186C500.639 414.186 501.167 414.23 501.622 414.318C502.091 414.391 502.502 414.509 502.854 414.67C503.22 414.817 503.55 415.007 503.844 415.242C504.152 415.462 504.452 415.711 504.746 415.99L502.876 417.904C502.509 417.537 502.091 417.251 501.622 417.046C501.167 416.826 500.698 416.716 500.214 416.716C499.656 416.716 499.26 416.804 499.026 416.98C498.791 417.156 498.674 417.391 498.674 417.684C498.674 417.992 498.754 418.234 498.916 418.41C499.092 418.571 499.414 418.689 499.884 418.762L501.182 418.938C503.719 419.275 504.988 420.434 504.988 422.414C504.988 422.971 504.87 423.485 504.636 423.954C504.401 424.423 504.064 424.834 503.624 425.186C503.198 425.523 502.678 425.787 502.062 425.978C501.46 426.169 500.786 426.264 500.038 426.264ZM508.835 413.218C508.175 413.218 507.691 413.071 507.383 412.778C507.09 412.47 506.943 412.081 506.943 411.612V411.128C506.943 410.659 507.09 410.277 507.383 409.984C507.691 409.676 508.175 409.522 508.835 409.522C509.495 409.522 509.972 409.676 510.265 409.984C510.573 410.277 510.727 410.659 510.727 411.128V411.612C510.727 412.081 510.573 412.47 510.265 412.778C509.972 413.071 509.495 413.218 508.835 413.218ZM507.207 414.45H510.463V426H507.207V414.45ZM517.55 426C516.421 426 515.563 425.714 514.976 425.142C514.404 424.57 514.118 423.734 514.118 422.634V416.98H512.49V414.45H513.304C513.744 414.45 514.045 414.347 514.206 414.142C514.368 413.922 514.448 413.614 514.448 413.218V411.326H517.374V414.45H519.662V416.98H517.374V423.47H519.486V426H517.55ZM530.46 426C529.874 426 529.382 425.817 528.986 425.45C528.605 425.083 528.363 424.592 528.26 423.976H528.128C527.952 424.724 527.564 425.296 526.962 425.692C526.361 426.073 525.62 426.264 524.74 426.264C523.582 426.264 522.694 425.956 522.078 425.34C521.462 424.724 521.154 423.91 521.154 422.898C521.154 421.681 521.594 420.779 522.474 420.192C523.369 419.591 524.579 419.29 526.104 419.29H527.93V418.564C527.93 418.007 527.784 417.567 527.49 417.244C527.197 416.907 526.706 416.738 526.016 416.738C525.371 416.738 524.858 416.877 524.476 417.156C524.095 417.435 523.78 417.75 523.53 418.102L521.594 416.386C522.064 415.697 522.65 415.161 523.354 414.78C524.073 414.384 525.041 414.186 526.258 414.186C527.901 414.186 529.133 414.545 529.954 415.264C530.776 415.983 531.186 417.031 531.186 418.41V423.47H532.264V426H530.46ZM525.95 423.998C526.493 423.998 526.955 423.881 527.336 423.646C527.732 423.411 527.93 423.03 527.93 422.502V421.138H526.346C525.07 421.138 524.432 421.571 524.432 422.436V422.766C524.432 423.191 524.564 423.507 524.828 423.712C525.092 423.903 525.466 423.998 525.95 423.998ZM540.067 426V424.372H544.357V412.008H544.203L540.331 415.616L539.253 414.45L543.323 410.644H546.205V424.372H550.165V426H540.067ZM555.348 426L565.996 410.644H567.69L557.042 426H555.348ZM556.228 419.092C555.114 419.092 554.256 418.725 553.654 417.992C553.053 417.244 552.752 416.159 552.752 414.736C552.752 413.313 553.053 412.235 553.654 411.502C554.256 410.754 555.114 410.38 556.228 410.38C557.343 410.38 558.201 410.754 558.802 411.502C559.404 412.235 559.704 413.313 559.704 414.736C559.704 416.159 559.404 417.244 558.802 417.992C558.201 418.725 557.343 419.092 556.228 419.092ZM556.228 417.948C557.49 417.948 558.12 417.097 558.12 415.396V414.076C558.12 412.375 557.49 411.524 556.228 411.524C554.967 411.524 554.336 412.375 554.336 414.076V415.396C554.336 417.097 554.967 417.948 556.228 417.948ZM566.81 426.264C565.696 426.264 564.838 425.897 564.236 425.164C563.635 424.416 563.334 423.331 563.334 421.908C563.334 420.485 563.635 419.407 564.236 418.674C564.838 417.926 565.696 417.552 566.81 417.552C567.925 417.552 568.783 417.926 569.384 418.674C569.986 419.407 570.286 420.485 570.286 421.908C570.286 423.331 569.986 424.416 569.384 425.164C568.783 425.897 567.925 426.264 566.81 426.264ZM566.81 425.12C568.072 425.12 568.702 424.269 568.702 422.568V421.248C568.702 419.547 568.072 418.696 566.81 418.696C565.549 418.696 564.918 419.547 564.918 421.248V422.568C564.918 424.269 565.549 425.12 566.81 425.12Z" fill="#E6E4D9"/>
<path d="M475.833 436C475.833 437.473 477.027 438.667 478.5 438.667C479.973 438.667 481.167 437.473 481.167 436C481.167 434.527 479.973 433.333 478.5 433.333C477.027 433.333 475.833 434.527 475.833 436ZM479 464.5V436H478V464.5H479Z" fill="#FFF5E0"/>
<rect x="450" y="464" width="58" height="10" fill="#FFF5E0"/>
<path d="M0 474H523" stroke="#E6E4D9" stroke-width="3"/>
</svg>
