<svg width="103" height="105" viewBox="0 0 103 105" fill="none" xmlns="http://www.w3.org/2000/svg">
<path d="M48.3063 81.2972V80.7972H47.8063H33.3948V74.9151H55.8357C59.2793 74.9151 62.0709 72.1234 62.0709 68.6799C62.0709 65.2365 59.2794 62.4446 55.8357 62.4446H46.6593C39.967 62.4446 34.5418 57.0194 34.5418 50.3271C34.5418 43.6348 39.967 38.2098 46.6593 38.2098H47.8063H48.3063V37.7098V27.8866H54.1887V37.7098V38.2098H54.6887H69.1002V44.0922H46.6593C43.2157 44.0922 40.4242 46.8837 40.4242 50.3273C40.4242 53.7709 43.2157 56.5625 46.6593 56.5625H55.8357C62.528 56.5625 67.9533 61.9877 67.9533 68.6799C67.9533 75.3721 62.528 80.7972 55.8357 80.7972H54.6887H54.1887V81.2972V91.1208H48.3063V81.2972ZM91.7106 41.3504L90.894 40.6823V41.7374L90.8942 95.2382C90.8942 99.9325 87.0886 103.738 82.3943 103.738H20.1006C15.4063 103.738 11.6008 99.9325 11.6008 95.2382V41.7377V40.6827L10.7842 41.3508L5.30156 45.8363C4.04534 46.8641 2.19388 46.6794 1.1655 45.4237C0.136445 44.1671 0.321286 42.3142 1.57829 41.2857L51.2476 0.646038L100.917 41.2859C102.174 42.3143 102.359 44.1672 101.33 45.4237C100.301 46.6794 98.4499 46.8641 97.1938 45.8364L91.7106 41.3504ZM17.6666 35.7199L17.4832 35.87V36.1069V94.6559C17.4832 96.4232 18.9159 97.8559 20.6831 97.8559H81.8118C83.5791 97.8559 85.0118 96.4232 85.0118 94.6559V36.1067V35.8698L84.8284 35.7197L51.5642 8.5048L51.2476 8.24577L50.931 8.5048L17.6666 35.7199Z" fill="#E6E4D9" stroke="#13637E"/>
</svg>
