<svg width="103" height="103" viewBox="0 0 103 103" fill="none" xmlns="http://www.w3.org/2000/svg">
<path d="M71.0598 64.5324C71.0597 64.5272 71.0596 64.5219 71.0595 64.5167L71.0598 64.5334V64.5324Z" fill="#E6E4D9"/>
<path fill-rule="evenodd" clip-rule="evenodd" d="M73.829 91.8833C70.2193 95.4781 65.2446 97.7035 59.7481 97.7142H24.5243V102.367H59.7667L59.7699 102.368C66.5422 102.349 72.6732 99.6045 77.1225 95.1739L99.0339 73.2626L99.0367 73.2599C101.234 71.1243 102.599 68.1371 102.599 64.831C102.599 58.3396 97.3364 53.0773 90.8451 53.0773C87.5529 53.0773 84.5768 54.4309 82.4411 56.6139L75.6898 63.3652C75.1109 51.1422 65.5832 41.2622 53.5129 40.131L53.5129 31.3152H60.0738L60.0752 31.3151C73.6104 31.2992 84.5795 20.33 84.5955 6.79362V4.46696H73.38C64.3511 4.47757 56.4639 9.36236 52.2082 16.6319C48.9171 6.96728 39.7677 0.0127335 28.9912 0H17.7772V2.32805C17.7931 15.8631 28.7625 26.8322 42.2991 26.8482H48.8599V28.9139C48.8598 28.9387 48.8597 28.9636 48.8597 28.9885L48.8599 40.1328C38.6501 41.0982 30.2617 48.3308 27.5596 58.0472C26.3776 57.8688 25.1674 57.7762 23.9356 57.7762C18.2 57.7762 12.9331 59.7823 8.84313 63.0955L8.79685 63.1315C3.43413 67.4284 0 74.0327 0 81.4391C0 81.5549 0.00079975 81.6704 0.00229928 81.7683V82.2662H4.65544V81.728C4.65551 81.7325 4.65557 81.737 4.65564 81.7415L4.65544 81.7265V81.728C4.65407 81.6333 4.65334 81.5385 4.65334 81.4434C4.65334 75.4998 7.40778 70.1993 11.7468 66.7205L11.7104 66.7489C15.0454 64.0466 19.2941 62.4275 23.9206 62.4275C27.0522 62.4275 30.0106 63.1693 32.5181 64.4359L37.3341 66.8181H55.3232L55.3149 66.8184C55.3699 66.817 55.4251 66.8164 55.4803 66.8164C58.8132 66.8164 61.6004 69.1524 62.3026 72.3227L62.2973 72.2842C62.3573 72.6401 62.3883 73.0059 62.3883 73.3788C62.3883 76.9981 59.4578 79.9327 55.8395 79.9397L33.4115 79.9395V84.5926H61.0369L85.7226 59.9074C87.0102 58.602 88.7996 57.7928 90.778 57.7928C94.6998 57.7928 97.8788 60.9718 97.8788 64.8933C97.8788 66.8811 97.062 68.678 95.7444 69.9681L73.829 91.8833ZM32.0601 59.1818C32.9793 59.5114 33.8727 59.8952 34.7362 60.3296L34.598 60.2666L38.4368 62.165H55.2715C55.3378 62.1636 55.416 62.163 55.4944 62.163C61.0761 62.163 65.7396 66.0942 66.8672 71.3389L66.881 71.4154V71.5037C66.9152 71.699 66.9431 71.8944 66.9649 72.0899L70.7098 68.3451C70.9359 67.2654 71.0627 66.0739 71.0627 64.8529C71.0627 64.7458 71.0617 64.639 71.0598 64.5324V64.4962C71.021 53.5524 62.1403 44.6957 51.191 44.6957C42.0832 44.6957 34.4068 50.8239 32.0601 59.1818ZM28.9924 4.6533C39.1403 4.6653 47.5085 12.2744 48.7247 22.1952H42.2978C32.1498 22.1831 23.7817 14.5739 22.5652 4.6533H28.9924ZM79.7979 9.21634C78.591 19.0408 70.2229 26.65 60.0738 26.662H53.6478L53.6574 26.5658C54.8642 16.7413 63.2324 9.13206 73.3814 9.12007H79.8074L79.7979 9.21634Z" fill="#E6E4D9"/>
</svg>
