<svg width="103" height="96" viewBox="0 0 103 96" fill="none" xmlns="http://www.w3.org/2000/svg">
<path d="M68.9783 69.6721C71.4203 69.6721 73.4 67.6925 73.4 65.2505C73.4 62.8085 71.4203 60.8292 68.9783 60.8292C66.5363 60.8292 64.5566 62.8087 64.5566 65.2505C64.5566 67.6925 66.5363 69.6721 68.9783 69.6721Z" fill="#E6E4D9"/>
<path fill-rule="evenodd" clip-rule="evenodd" d="M76.4317 87.6073L102.397 95.0042V10.1553L69.02 0.665635L33.4604 9.50838L0 0V84.7838L33.3812 94.3154L61.2478 87.3273C63.1974 89.5464 65.2452 91.6867 67.3957 93.752L68.992 95.2507L70.584 93.7474L70.6113 93.7212C72.6161 91.7775 74.5444 89.7553 76.4317 87.6073ZM79.7084 83.6993L97.7424 88.8329V13.6739L71.3054 6.15635V45.2137C81.0675 46.0794 88.7668 54.1204 89.0938 64.0272L89.0946 64.0589V64.1334C89.0946 69.2825 85.938 75.8679 79.7084 83.6993ZM66.6511 45.2226V6.05095L35.7459 13.7363V88.9327L57.9396 83.3592C51.9204 75.721 48.8712 69.2536 48.8712 64.138V64.0635C49.2006 54.1312 56.8945 46.0924 66.6511 45.2226ZM31.0915 88.8319V13.6752L4.65445 6.15281V81.2745L31.0915 88.8319ZM68.4109 49.7914C68.5777 49.7914 68.7438 49.7942 68.8852 49.799H69.0655C69.0594 49.7992 69.0533 49.7994 69.0472 49.7996L69.0712 49.799H69.0655C69.225 49.7939 69.3849 49.7914 69.5457 49.7914C77.5908 49.7914 84.1461 56.1696 84.4309 64.1708C84.3983 71.6499 74.4054 83.3038 68.9738 88.8049C63.5376 83.3456 53.5585 71.7571 53.5259 64.1708L53.5266 64.1448C53.8106 56.1696 60.3659 49.7914 68.4109 49.7914Z" fill="#E6E4D9"/>
</svg>
