<svg width="48" height="46" viewBox="0 0 48 46" fill="none" xmlns="http://www.w3.org/2000/svg">
<path fill-rule="evenodd" clip-rule="evenodd" d="M24.2384 45.6055C37.1881 45.6055 47.6859 35.3964 47.6859 22.8028C47.6859 10.2091 37.1881 0 24.2384 0C11.2887 0 0.790894 10.2091 0.790894 22.8028C0.790894 35.3964 11.2887 45.6055 24.2384 45.6055ZM27.7208 9.31479C26.5508 9.01038 25.3214 8.84784 24.0523 8.84784C16.2294 8.84784 9.88804 15.0147 9.88804 22.6223C9.88804 30.2299 16.2294 36.3968 24.0523 36.3968C31.8752 36.3968 38.2165 30.2299 38.2165 22.6223C38.2165 21.3881 38.0494 20.1925 37.7363 19.0547L34.725 21.9818C34.4941 22.2077 34.2392 22.4019 33.9672 22.5672V22.6223C33.9672 24.5293 33.3857 26.3935 32.2963 27.9792C31.2068 29.5648 29.6583 30.8007 27.8466 31.5305C26.0348 32.2602 24.0413 32.4512 22.118 32.0791C20.1947 31.7071 18.428 30.7888 17.0413 29.4403C15.6547 28.0918 14.7104 26.3738 14.3278 24.5034C13.9453 22.633 14.1416 20.6943 14.892 18.9324C15.6425 17.1705 16.9133 15.6647 18.5438 14.6052C20.1743 13.5457 22.0913 12.9802 24.0523 12.9802H24.1089C24.2795 12.7126 24.481 12.4649 24.7095 12.2419L27.7208 9.31479ZM23.4535 16.8969C23.4597 16.5165 23.4659 16.1366 23.4659 15.7585C22.1198 15.8673 20.8338 16.3482 19.7595 17.1444C18.6852 17.9407 17.8675 19.0191 17.4028 20.2525C16.9381 21.4858 16.8457 22.8227 17.1366 24.1054C17.4276 25.3881 18.0896 26.5632 19.0447 27.492C19.9998 28.4209 21.2082 29.0647 22.5272 29.3476C23.8462 29.6305 25.2209 29.5407 26.4892 29.0888C27.7574 28.6369 28.8664 27.8416 29.6851 26.7969C30.5039 25.7522 30.9984 24.5016 31.1103 23.1926C30.7208 23.1926 30.3299 23.1986 29.9385 23.2046C29.1172 23.2173 28.294 23.23 27.4786 23.187L26.7137 23.9309C26.4506 24.1867 26.1383 24.3897 25.7945 24.5282C25.4507 24.6666 25.0823 24.7379 24.7102 24.7379C24.3381 24.7379 23.9697 24.6666 23.6259 24.5282C23.2821 24.3897 22.9698 24.1867 22.7067 23.9309C22.4436 23.675 22.2349 23.3712 22.0925 23.0369C21.9501 22.7026 21.8768 22.3443 21.8768 21.9825C21.8768 21.6206 21.9501 21.2623 22.0925 20.928C22.2349 20.5937 22.4436 20.2899 22.7067 20.0341L23.4715 19.2903C23.4274 18.4971 23.4405 17.6958 23.4535 16.8969ZM33.8998 9.52969C33.7442 9.30341 33.5232 9.12702 33.2647 9.02277V9.0214C33.0058 8.91712 32.7209 8.88986 32.4461 8.94306C32.1713 8.99627 31.9189 9.12755 31.7208 9.3203L26.7137 14.1896C26.582 14.3176 26.4776 14.4697 26.4064 14.637C26.3352 14.8043 26.2986 14.9837 26.2987 15.1648V18.49L23.7081 21.0065C23.4423 21.2648 23.2929 21.6152 23.2928 21.9806C23.2927 22.346 23.4418 22.6965 23.7074 22.9549C23.973 23.2134 24.3333 23.3587 24.709 23.3588C25.0847 23.3589 25.4451 23.2139 25.7109 22.9556L28.3015 20.4363H31.7194C32.095 20.4362 32.4552 20.291 32.7208 20.0327L37.7307 15.1662C37.9287 14.9735 38.0636 14.7281 38.1182 14.461C38.1728 14.1938 38.1448 13.9169 38.0376 13.6652C37.9304 13.4136 37.7489 13.1985 37.516 13.0471C37.2832 12.8958 37.0094 12.8149 36.7293 12.8149H34.1386V10.2942C34.1384 10.022 34.0553 9.75596 33.8998 9.52969Z" fill="#13637E"/>
</svg>
