<svg width="37" height="37" viewBox="0 0 37 37" fill="none" xmlns="http://www.w3.org/2000/svg">
<path opacity="0.54" fill-rule="evenodd" clip-rule="evenodd" d="M24.0707 26.192C21.8535 27.9501 19.0494 29 16 29C8.8203 29 3 23.1797 3 16C3 9.32761 8.02684 3.8293 14.5 3.0856C14.9922 3.02906 15.4927 3 16 3C16.5073 3 17.0078 3.02906 17.5 3.0856C23.9732 3.8293 29 9.32761 29 16C29 19.0494 27.9501 21.8535 26.192 24.0707C25.5688 24.8566 24.8566 25.5688 24.0707 26.192ZM26.2035 28.3248C23.434 30.6202 19.8781 32 16 32C7.16344 32 0 24.8366 0 16C0 7.16344 7.16344 0 16 0C24.8366 0 32 7.16344 32 16C32 19.8781 30.6202 23.434 28.3248 26.2035L36.5607 34.4393C37.1464 35.0251 37.1464 35.9749 36.5607 36.5607C35.9749 37.1464 35.0251 37.1464 34.4393 36.5607L26.2035 28.3248Z" fill="#BEBEBE"/>
</svg>
