<svg width="59" height="744" viewBox="0 0 59 744" fill="none" xmlns="http://www.w3.org/2000/svg">
<path d="M29 692.695L29 7.5332" stroke="#13637E" stroke-width="3.64257"/>
<circle cx="29.4441" cy="81.905" r="29.4441" fill="#13637E"/>
<path d="M22.5415 94.354L16.6406 87.2766V69.4609H35.9205C40.4827 69.4609 43.3441 73.9643 43.3441 77.8671C43.3441 83.0735 40.3257 83.2633 39.7547 83.4803C41.2775 84.2124 42.5555 85.3513 43.3441 87.1461L37.3345 94.354V74.4233L29.938 81.799L22.5415 74.4233V94.354Z" fill="#E6E4D9"/>
<path d="M32.4126 89.9611V94.2998H30.2371V87.5355C31.4608 87.6704 32.4126 88.7049 32.4126 89.9611Z" fill="#E6E4D9"/>
<path d="M27.5178 89.9611V94.2998H29.6933V87.5355C28.4696 87.6704 27.5178 88.7049 27.5178 89.9611Z" fill="#E6E4D9"/>
<circle cx="29.0009" cy="716.015" r="27.3192" fill="#13637E"/>
<path d="M17.5941 728.372V715.267L15.0779 717.189L13.4004 714.952L17.5941 711.737V707.404H20.39V709.605L28.7774 703.21L44.1545 714.952L42.477 717.154L39.9608 715.267V728.372H17.5941ZM20.39 725.577H27.3795V719.985H30.1754V725.577H37.1649V713.135L28.7774 706.74L20.39 713.135V725.577ZM17.5941 706.006C17.5941 704.841 18.0019 703.851 18.8173 703.035C19.6328 702.22 20.6229 701.812 21.7879 701.812C22.184 701.812 22.516 701.678 22.7839 701.41C23.0518 701.142 23.1858 700.81 23.1858 700.414H25.9816C25.9816 701.579 25.5739 702.569 24.7584 703.385C23.943 704.2 22.9528 704.608 21.7879 704.608C21.3918 704.608 21.0598 704.742 20.7919 705.01C20.5239 705.278 20.39 705.61 20.39 706.006H17.5941Z" fill="#E6E4D9"/>
<circle cx="29.3561" cy="11.3561" r="9.80861" fill="#E6E4D9" stroke="#13637E" stroke-width="3.09493"/>
</svg>
