<svg width="776" height="560" viewBox="0 0 776 560" fill="none" xmlns="http://www.w3.org/2000/svg">
<g filter="url(#filter0_d_990_16469)">
<rect x="100" y="100" width="598" height="363.238" rx="43.2148" fill="#13637E"/>
<rect width="541.938" height="283.816" transform="translate(128.031 139.711)" fill="#13637E"/>
<path d="M307.898 175.845V285.564C307.898 328.215 342.411 362.79 384.984 362.79C427.558 362.79 462.07 328.215 462.07 285.564V175.845" stroke="#E6E4D9" stroke-width="5.52449"/>
<path d="M184.494 169.533L182.941 164.962H176.683L175.13 169.533H173.243L178.658 154.044H181.032L186.447 169.533H184.494ZM179.856 155.775H179.745L177.127 163.32H182.475L179.856 155.775ZM198.489 170.798C198.489 171.982 198.023 172.847 197.091 173.395C196.173 173.957 194.79 174.238 192.941 174.238C191.151 174.238 189.864 173.994 189.08 173.506C188.296 173.017 187.903 172.322 187.903 171.42C187.903 170.798 188.066 170.31 188.392 169.955C188.717 169.615 189.161 169.363 189.723 169.2V168.956C189.043 168.631 188.702 168.098 188.702 167.359C188.702 166.782 188.887 166.345 189.257 166.049C189.627 165.739 190.1 165.509 190.677 165.361V165.273C189.997 164.947 189.464 164.481 189.08 163.875C188.71 163.268 188.525 162.565 188.525 161.766C188.525 161.189 188.628 160.657 188.836 160.169C189.043 159.68 189.331 159.266 189.701 158.926C190.086 158.571 190.537 158.297 191.055 158.105C191.587 157.912 192.179 157.816 192.83 157.816C193.644 157.816 194.369 157.964 195.005 158.26V158.06C195.005 157.617 195.108 157.254 195.315 156.973C195.523 156.677 195.863 156.529 196.336 156.529H198.045V158.083H195.87V158.815C196.284 159.17 196.602 159.599 196.824 160.102C197.061 160.59 197.179 161.145 197.179 161.766C197.179 162.343 197.076 162.876 196.869 163.364C196.662 163.852 196.366 164.274 195.981 164.629C195.611 164.969 195.16 165.236 194.627 165.428C194.095 165.62 193.503 165.716 192.852 165.716C192.482 165.716 192.112 165.679 191.743 165.605C191.358 165.709 191.01 165.864 190.7 166.071C190.389 166.264 190.234 166.537 190.234 166.893C190.234 167.233 190.396 167.462 190.722 167.58C191.047 167.699 191.469 167.758 191.987 167.758H194.428C195.848 167.758 196.876 168.032 197.512 168.579C198.163 169.112 198.489 169.851 198.489 170.798ZM196.824 170.931C196.824 170.473 196.647 170.103 196.292 169.822C195.952 169.556 195.338 169.422 194.45 169.422H190.633C189.923 169.748 189.568 170.266 189.568 170.976C189.568 171.479 189.753 171.908 190.123 172.263C190.507 172.618 191.151 172.795 192.053 172.795H193.695C194.687 172.795 195.456 172.64 196.003 172.329C196.551 172.019 196.824 171.553 196.824 170.931ZM192.852 164.296C193.607 164.296 194.206 164.119 194.65 163.764C195.093 163.394 195.315 162.832 195.315 162.077V161.456C195.315 160.701 195.093 160.146 194.65 159.791C194.206 159.421 193.607 159.237 192.852 159.237C192.098 159.237 191.498 159.421 191.055 159.791C190.611 160.146 190.389 160.701 190.389 161.456V162.077C190.389 162.832 190.611 163.394 191.055 163.764C191.498 164.119 192.098 164.296 192.852 164.296ZM204.735 169.8C203.951 169.8 203.241 169.659 202.604 169.378C201.983 169.097 201.443 168.697 200.984 168.18C200.541 167.647 200.193 167.018 199.941 166.293C199.705 165.554 199.586 164.725 199.586 163.808C199.586 162.905 199.705 162.084 199.941 161.345C200.193 160.605 200.541 159.976 200.984 159.458C201.443 158.926 201.983 158.519 202.604 158.238C203.241 157.957 203.951 157.816 204.735 157.816C205.504 157.816 206.192 157.957 206.799 158.238C207.405 158.519 207.923 158.911 208.352 159.414C208.781 159.902 209.106 160.487 209.328 161.167C209.565 161.848 209.683 162.595 209.683 163.408V164.252H201.45V164.784C201.45 165.273 201.524 165.731 201.672 166.16C201.835 166.574 202.057 166.937 202.338 167.248C202.634 167.558 202.989 167.802 203.403 167.98C203.832 168.157 204.313 168.246 204.846 168.246C205.571 168.246 206.199 168.076 206.732 167.736C207.279 167.396 207.701 166.907 207.997 166.271L209.262 167.181C208.892 167.965 208.315 168.601 207.531 169.089C206.747 169.563 205.815 169.8 204.735 169.8ZM204.735 159.303C204.247 159.303 203.803 159.392 203.403 159.569C203.004 159.732 202.656 159.969 202.36 160.28C202.079 160.59 201.857 160.96 201.695 161.389C201.532 161.803 201.45 162.262 201.45 162.765V162.92H207.775V162.676C207.775 161.655 207.494 160.842 206.932 160.235C206.384 159.614 205.652 159.303 204.735 159.303ZM212.609 169.533V158.083H214.384V159.947H214.473C214.754 159.296 215.146 158.778 215.649 158.393C216.167 158.009 216.855 157.816 217.713 157.816C218.896 157.816 219.829 158.201 220.509 158.97C221.204 159.725 221.552 160.797 221.552 162.188V169.533H219.777V162.499C219.777 160.442 218.911 159.414 217.18 159.414C216.825 159.414 216.478 159.458 216.137 159.547C215.812 159.636 215.516 159.769 215.25 159.947C214.983 160.124 214.769 160.353 214.606 160.635C214.458 160.901 214.384 161.219 214.384 161.589V169.533H212.609ZM224.068 169.533V168.047L230.57 159.636H224.267V158.083H232.722V159.414L226.087 167.98H232.9V169.533H224.068ZM236.403 155.397C236.018 155.397 235.737 155.309 235.56 155.131C235.397 154.939 235.316 154.695 235.316 154.399V154.11C235.316 153.814 235.397 153.578 235.56 153.4C235.737 153.208 236.018 153.112 236.403 153.112C236.788 153.112 237.061 153.208 237.224 153.4C237.402 153.578 237.491 153.814 237.491 154.11V154.399C237.491 154.695 237.402 154.939 237.224 155.131C237.061 155.309 236.788 155.397 236.403 155.397ZM235.515 158.083H237.291V169.533H235.515V158.083ZM249.385 169.533C248.719 169.533 248.239 169.356 247.943 169.001C247.662 168.646 247.484 168.202 247.41 167.669H247.299C247.048 168.379 246.633 168.912 246.056 169.267C245.479 169.622 244.791 169.8 243.993 169.8C242.779 169.8 241.833 169.489 241.152 168.868C240.486 168.246 240.153 167.403 240.153 166.338C240.153 165.258 240.546 164.429 241.33 163.852C242.129 163.275 243.364 162.987 245.036 162.987H247.299V161.855C247.299 161.041 247.077 160.42 246.633 159.991C246.19 159.562 245.509 159.347 244.592 159.347C243.896 159.347 243.312 159.503 242.839 159.813C242.38 160.124 241.995 160.538 241.685 161.056L240.619 160.058C240.93 159.436 241.426 158.911 242.106 158.482C242.787 158.038 243.645 157.816 244.681 157.816C246.071 157.816 247.151 158.157 247.92 158.837C248.69 159.518 249.074 160.464 249.074 161.678V167.98H250.384V169.533H249.385ZM244.281 168.291C244.725 168.291 245.132 168.239 245.502 168.135C245.871 168.032 246.19 167.884 246.456 167.691C246.722 167.499 246.929 167.277 247.077 167.026C247.225 166.774 247.299 166.5 247.299 166.205V164.318H244.947C243.926 164.318 243.179 164.466 242.705 164.762C242.247 165.058 242.018 165.487 242.018 166.049V166.515C242.018 167.077 242.217 167.514 242.617 167.825C243.031 168.135 243.586 168.291 244.281 168.291ZM130.223 199.533V197.98H132.398V185.597H130.223V184.044H136.437V185.597H134.262V197.98H136.437V199.533H130.223ZM139.663 199.533V188.083H141.439V189.947H141.527C141.661 189.651 141.809 189.377 141.971 189.126C142.149 188.859 142.356 188.63 142.593 188.438C142.844 188.245 143.133 188.097 143.458 187.994C143.784 187.875 144.168 187.816 144.612 187.816C145.367 187.816 146.062 188.001 146.698 188.371C147.334 188.726 147.808 189.318 148.118 190.146H148.163C148.37 189.525 148.754 188.985 149.317 188.526C149.894 188.053 150.67 187.816 151.647 187.816C152.815 187.816 153.725 188.201 154.376 188.97C155.042 189.725 155.375 190.797 155.375 192.188V199.533H153.6V192.499C153.6 191.478 153.4 190.709 153 190.191C152.601 189.673 151.965 189.414 151.092 189.414C150.737 189.414 150.397 189.458 150.071 189.547C149.76 189.636 149.479 189.769 149.228 189.947C148.976 190.124 148.777 190.353 148.629 190.635C148.481 190.901 148.407 191.219 148.407 191.589V199.533H146.631V192.499C146.631 191.478 146.432 190.709 146.032 190.191C145.633 189.673 145.011 189.414 144.168 189.414C143.813 189.414 143.473 189.458 143.147 189.547C142.822 189.636 142.533 189.769 142.282 189.947C142.03 190.124 141.823 190.353 141.661 190.635C141.513 190.901 141.439 191.219 141.439 191.589V199.533H139.663ZM159.037 199.533V188.083H160.813V189.947H160.902C161.035 189.651 161.183 189.377 161.345 189.126C161.523 188.859 161.73 188.63 161.967 188.438C162.218 188.245 162.507 188.097 162.832 187.994C163.158 187.875 163.542 187.816 163.986 187.816C164.741 187.816 165.436 188.001 166.072 188.371C166.708 188.726 167.182 189.318 167.492 190.146H167.537C167.744 189.525 168.129 188.985 168.691 188.526C169.268 188.053 170.044 187.816 171.021 187.816C172.19 187.816 173.099 188.201 173.75 188.97C174.416 189.725 174.749 190.797 174.749 192.188V199.533H172.974V192.499C172.974 191.478 172.774 190.709 172.375 190.191C171.975 189.673 171.339 189.414 170.466 189.414C170.111 189.414 169.771 189.458 169.445 189.547C169.135 189.636 168.853 189.769 168.602 189.947C168.35 190.124 168.151 190.353 168.003 190.635C167.855 190.901 167.781 191.219 167.781 191.589V199.533H166.006V192.499C166.006 191.478 165.806 190.709 165.406 190.191C165.007 189.673 164.386 189.414 163.542 189.414C163.187 189.414 162.847 189.458 162.522 189.547C162.196 189.636 161.908 189.769 161.656 189.947C161.405 190.124 161.197 190.353 161.035 190.635C160.887 190.901 160.813 191.219 160.813 191.589V199.533H159.037ZM182.739 199.8C181.97 199.8 181.267 199.659 180.631 199.378C179.995 199.097 179.447 198.697 178.989 198.18C178.545 197.647 178.197 197.018 177.946 196.293C177.694 195.554 177.568 194.725 177.568 193.808C177.568 192.905 177.694 192.084 177.946 191.345C178.197 190.605 178.545 189.976 178.989 189.458C179.447 188.926 179.995 188.519 180.631 188.238C181.267 187.957 181.97 187.816 182.739 187.816C183.508 187.816 184.204 187.957 184.825 188.238C185.461 188.519 186.008 188.926 186.467 189.458C186.926 189.976 187.281 190.605 187.532 191.345C187.784 192.084 187.91 192.905 187.91 193.808C187.91 194.725 187.784 195.554 187.532 196.293C187.281 197.018 186.926 197.647 186.467 198.18C186.008 198.697 185.461 199.097 184.825 199.378C184.204 199.659 183.508 199.8 182.739 199.8ZM182.739 198.224C183.701 198.224 184.485 197.928 185.091 197.336C185.698 196.745 186.001 195.842 186.001 194.629V192.987C186.001 191.774 185.698 190.871 185.091 190.28C184.485 189.688 183.701 189.392 182.739 189.392C181.777 189.392 180.993 189.688 180.387 190.28C179.78 190.871 179.477 191.774 179.477 192.987V194.629C179.477 195.842 179.78 196.745 180.387 197.336C180.993 197.928 181.777 198.224 182.739 198.224ZM190.829 183.112H192.605V189.947H192.693C192.989 189.222 193.418 188.689 193.98 188.349C194.557 187.994 195.245 187.816 196.044 187.816C196.754 187.816 197.398 187.957 197.975 188.238C198.552 188.519 199.04 188.918 199.44 189.436C199.854 189.954 200.164 190.583 200.372 191.323C200.593 192.062 200.704 192.891 200.704 193.808C200.704 194.725 200.593 195.554 200.372 196.293C200.164 197.033 199.854 197.662 199.44 198.18C199.04 198.697 198.552 199.097 197.975 199.378C197.398 199.659 196.754 199.8 196.044 199.8C194.491 199.8 193.374 199.089 192.693 197.669H192.605V199.533H190.829V183.112ZM195.556 198.202C196.562 198.202 197.354 197.891 197.931 197.27C198.507 196.634 198.796 195.805 198.796 194.784V192.832C198.796 191.811 198.507 190.99 197.931 190.368C197.354 189.732 196.562 189.414 195.556 189.414C195.157 189.414 194.772 189.473 194.402 189.592C194.047 189.695 193.736 189.843 193.47 190.035C193.204 190.228 192.989 190.464 192.826 190.746C192.679 191.012 192.605 191.3 192.605 191.611V195.872C192.605 196.242 192.679 196.574 192.826 196.87C192.989 197.151 193.204 197.396 193.47 197.603C193.736 197.795 194.047 197.943 194.402 198.047C194.772 198.15 195.157 198.202 195.556 198.202ZM204.59 185.397C204.205 185.397 203.924 185.309 203.746 185.131C203.584 184.939 203.502 184.695 203.502 184.399V184.11C203.502 183.814 203.584 183.578 203.746 183.4C203.924 183.208 204.205 183.112 204.59 183.112C204.974 183.112 205.248 183.208 205.411 183.4C205.588 183.578 205.677 183.814 205.677 184.11V184.399C205.677 184.695 205.588 184.939 205.411 185.131C205.248 185.309 204.974 185.397 204.59 185.397ZM203.702 188.083H205.477V199.533H203.702V188.083ZM211.136 199.533C210.515 199.533 210.041 199.363 209.716 199.023C209.405 198.668 209.25 198.224 209.25 197.691V183.112H211.025V197.98H212.712V199.533H211.136ZM216.184 185.397C215.799 185.397 215.518 185.309 215.341 185.131C215.178 184.939 215.096 184.695 215.096 184.399V184.11C215.096 183.814 215.178 183.578 215.341 183.4C215.518 183.208 215.799 183.112 216.184 183.112C216.568 183.112 216.842 183.208 217.005 183.4C217.182 183.578 217.271 183.814 217.271 184.11V184.399C217.271 184.695 217.182 184.939 217.005 185.131C216.842 185.309 216.568 185.397 216.184 185.397ZM215.296 188.083H217.071V199.533H215.296V188.083ZM229.166 199.533C228.5 199.533 228.019 199.356 227.723 199.001C227.442 198.646 227.265 198.202 227.191 197.669H227.08C226.828 198.379 226.414 198.912 225.837 199.267C225.26 199.622 224.572 199.8 223.773 199.8C222.56 199.8 221.613 199.489 220.933 198.868C220.267 198.246 219.934 197.403 219.934 196.338C219.934 195.258 220.326 194.429 221.11 193.852C221.909 193.275 223.145 192.987 224.816 192.987H227.08V191.855C227.08 191.041 226.858 190.42 226.414 189.991C225.97 189.562 225.29 189.347 224.372 189.347C223.677 189.347 223.093 189.503 222.619 189.813C222.161 190.124 221.776 190.538 221.465 191.056L220.4 190.058C220.711 189.436 221.206 188.911 221.887 188.482C222.568 188.038 223.426 187.816 224.461 187.816C225.852 187.816 226.932 188.157 227.701 188.837C228.47 189.518 228.855 190.464 228.855 191.678V197.98H230.164V199.533H229.166ZM224.062 198.291C224.506 198.291 224.912 198.239 225.282 198.135C225.652 198.032 225.97 197.884 226.237 197.691C226.503 197.499 226.71 197.277 226.858 197.026C227.006 196.774 227.08 196.5 227.08 196.205V194.318H224.727C223.707 194.318 222.96 194.466 222.486 194.762C222.028 195.058 221.798 195.487 221.798 196.049V196.515C221.798 197.077 221.998 197.514 222.397 197.825C222.812 198.135 223.366 198.291 224.062 198.291ZM232.698 199.533V188.083H234.474V190.191H234.584C234.792 189.643 235.161 189.155 235.694 188.726C236.227 188.297 236.959 188.083 237.891 188.083H238.579V189.858H237.536C236.574 189.858 235.82 190.043 235.272 190.413C234.74 190.768 234.474 191.219 234.474 191.766V199.533H232.698ZM245.043 199.8C244.259 199.8 243.549 199.659 242.913 199.378C242.292 199.097 241.752 198.697 241.293 198.18C240.849 197.647 240.502 197.018 240.25 196.293C240.013 195.554 239.895 194.725 239.895 193.808C239.895 192.905 240.013 192.084 240.25 191.345C240.502 190.605 240.849 189.976 241.293 189.458C241.752 188.926 242.292 188.519 242.913 188.238C243.549 187.957 244.259 187.816 245.043 187.816C245.813 187.816 246.501 187.957 247.107 188.238C247.714 188.519 248.232 188.911 248.661 189.414C249.09 189.902 249.415 190.487 249.637 191.167C249.874 191.848 249.992 192.595 249.992 193.408V194.252H241.759V194.784C241.759 195.273 241.833 195.731 241.981 196.16C242.144 196.574 242.366 196.937 242.647 197.248C242.943 197.558 243.298 197.802 243.712 197.98C244.141 198.157 244.622 198.246 245.154 198.246C245.879 198.246 246.508 198.076 247.041 197.736C247.588 197.396 248.01 196.907 248.306 196.271L249.57 197.181C249.201 197.965 248.624 198.601 247.84 199.089C247.055 199.563 246.123 199.8 245.043 199.8ZM245.043 189.303C244.555 189.303 244.111 189.392 243.712 189.569C243.312 189.732 242.965 189.969 242.669 190.28C242.388 190.59 242.166 190.96 242.003 191.389C241.84 191.803 241.759 192.262 241.759 192.765V192.92H248.084V192.676C248.084 191.655 247.803 190.842 247.24 190.235C246.693 189.614 245.961 189.303 245.043 189.303Z" fill="#E6E4D9"/>
<rect x="279.489" y="144.809" width="57.0832" height="64.4487" rx="28.5416" fill="#13637E"/>
<rect x="279.489" y="144.809" width="57.0832" height="64.4487" rx="28.5416" stroke="#E6E4D9" stroke-width="5.52418"/>
<path d="M300.793 187.533V184.381H306.45V169.768H306.185L301.706 175.071L299.291 173.038L304.388 166.969H310.251V184.381H314.964V187.533H300.793Z" fill="#E6E4D9"/>
<path d="M189.908 265.013L188.044 261.574H187.977V274.467H186.158V258.977H188.31L193.969 268.431L195.833 271.871H195.9V258.977H197.719V274.467H195.567L189.908 265.013ZM205.997 274.733C205.228 274.733 204.525 274.593 203.889 274.312C203.253 274.03 202.706 273.631 202.247 273.113C201.803 272.581 201.456 271.952 201.204 271.227C200.953 270.487 200.827 269.659 200.827 268.742C200.827 267.839 200.953 267.018 201.204 266.278C201.456 265.539 201.803 264.91 202.247 264.392C202.706 263.859 203.253 263.453 203.889 263.171C204.525 262.89 205.228 262.75 205.997 262.75C206.767 262.75 207.462 262.89 208.083 263.171C208.72 263.453 209.267 263.859 209.726 264.392C210.184 264.91 210.539 265.539 210.791 266.278C211.042 267.018 211.168 267.839 211.168 268.742C211.168 269.659 211.042 270.487 210.791 271.227C210.539 271.952 210.184 272.581 209.726 273.113C209.267 273.631 208.72 274.03 208.083 274.312C207.462 274.593 206.767 274.733 205.997 274.733ZM205.997 273.158C206.959 273.158 207.743 272.862 208.35 272.27C208.956 271.678 209.259 270.776 209.259 269.563V267.92C209.259 266.707 208.956 265.805 208.35 265.213C207.743 264.621 206.959 264.325 205.997 264.325C205.036 264.325 204.252 264.621 203.645 265.213C203.039 265.805 202.735 266.707 202.735 267.92V269.563C202.735 270.776 203.039 271.678 203.645 272.27C204.252 272.862 205.036 273.158 205.997 273.158ZM216.618 274.467C215.996 274.467 215.523 274.297 215.197 273.957C214.887 273.601 214.731 273.143 214.731 272.581V264.57H212.845V263.016H213.91C214.295 263.016 214.554 262.942 214.687 262.794C214.835 262.632 214.909 262.358 214.909 261.973V259.843H216.507V263.016H219.014V264.57H216.507V272.914H218.837V274.467H216.618ZM230.189 274.467C229.524 274.467 229.043 274.289 228.747 273.934C228.466 273.579 228.288 273.135 228.214 272.603H228.103C227.852 273.313 227.438 273.846 226.861 274.201C226.284 274.556 225.596 274.733 224.797 274.733C223.584 274.733 222.637 274.423 221.956 273.801C221.291 273.18 220.958 272.337 220.958 271.271C220.958 270.191 221.35 269.363 222.134 268.786C222.933 268.209 224.168 267.92 225.84 267.92H228.103V266.789C228.103 265.975 227.882 265.354 227.438 264.925C226.994 264.496 226.313 264.281 225.396 264.281C224.701 264.281 224.116 264.436 223.643 264.747C223.184 265.058 222.8 265.472 222.489 265.99L221.424 264.991C221.735 264.37 222.23 263.845 222.911 263.416C223.591 262.972 224.449 262.75 225.485 262.75C226.876 262.75 227.956 263.09 228.725 263.771C229.494 264.451 229.879 265.398 229.879 266.611V272.914H231.188V274.467H230.189ZM225.085 273.224C225.529 273.224 225.936 273.172 226.306 273.069C226.676 272.965 226.994 272.817 227.26 272.625C227.526 272.433 227.734 272.211 227.882 271.959C228.029 271.708 228.103 271.434 228.103 271.138V269.252H225.751C224.73 269.252 223.983 269.4 223.51 269.696C223.051 269.992 222.822 270.421 222.822 270.983V271.449C222.822 272.011 223.022 272.448 223.421 272.758C223.835 273.069 224.39 273.224 225.085 273.224ZM234.61 260.331C234.225 260.331 233.944 260.242 233.766 260.065C233.604 259.872 233.522 259.628 233.522 259.332V259.044C233.522 258.748 233.604 258.511 233.766 258.334C233.944 258.141 234.225 258.045 234.61 258.045C234.994 258.045 235.268 258.141 235.431 258.334C235.608 258.511 235.697 258.748 235.697 259.044V259.332C235.697 259.628 235.608 259.872 235.431 260.065C235.268 260.242 234.994 260.331 234.61 260.331ZM233.722 263.016H235.497V274.467H233.722V263.016ZM243.597 274.733C242.828 274.733 242.125 274.593 241.489 274.312C240.853 274.03 240.305 273.631 239.847 273.113C239.403 272.581 239.055 271.952 238.804 271.227C238.552 270.487 238.426 269.659 238.426 268.742C238.426 267.839 238.552 267.018 238.804 266.278C239.055 265.539 239.403 264.91 239.847 264.392C240.305 263.859 240.853 263.453 241.489 263.171C242.125 262.89 242.828 262.75 243.597 262.75C244.366 262.75 245.062 262.89 245.683 263.171C246.319 263.453 246.867 263.859 247.325 264.392C247.784 264.91 248.139 265.539 248.39 266.278C248.642 267.018 248.768 267.839 248.768 268.742C248.768 269.659 248.642 270.487 248.39 271.227C248.139 271.952 247.784 272.581 247.325 273.113C246.867 273.631 246.319 274.03 245.683 274.312C245.062 274.593 244.366 274.733 243.597 274.733ZM243.597 273.158C244.559 273.158 245.343 272.862 245.949 272.27C246.556 271.678 246.859 270.776 246.859 269.563V267.92C246.859 266.707 246.556 265.805 245.949 265.213C245.343 264.621 244.559 264.325 243.597 264.325C242.635 264.325 241.851 264.621 241.245 265.213C240.638 265.805 240.335 266.707 240.335 267.92V269.563C240.335 270.776 240.638 271.678 241.245 272.27C241.851 272.862 242.635 273.158 243.597 273.158Z" fill="#E6E4D9"/>
<rect x="278.551" y="234.743" width="57.0832" height="64.4487" rx="28.5416" fill="#13637E"/>
<rect x="278.551" y="234.743" width="57.0832" height="64.4487" rx="28.5416" stroke="#E6E4D9" stroke-width="5.52418"/>
<path d="M314.346 277.467H300.087V273.873L306.539 268.216C307.639 267.253 308.444 266.389 308.955 265.623C309.465 264.837 309.721 263.993 309.721 263.089V262.706C309.721 261.803 309.426 261.115 308.837 260.644C308.248 260.153 307.531 259.907 306.686 259.907C305.625 259.907 304.82 260.212 304.27 260.821C303.72 261.41 303.327 262.127 303.092 262.971L299.733 261.675C299.949 260.988 300.253 260.34 300.646 259.731C301.039 259.102 301.53 258.552 302.119 258.081C302.728 257.609 303.435 257.236 304.241 256.961C305.046 256.686 305.969 256.549 307.01 256.549C308.09 256.549 309.053 256.706 309.897 257.02C310.742 257.315 311.449 257.737 312.019 258.287C312.608 258.837 313.05 259.485 313.345 260.231C313.659 260.978 313.816 261.793 313.816 262.677C313.816 263.541 313.678 264.327 313.403 265.034C313.128 265.741 312.755 266.419 312.284 267.067C311.812 267.695 311.263 268.304 310.634 268.893C310.005 269.463 309.338 270.042 308.631 270.632L304.3 274.197H314.346V277.467Z" fill="#E6E4D9"/>
<rect x="355.665" y="324.676" width="57.0832" height="64.4487" rx="28.5416" fill="#13637E"/>
<rect x="355.665" y="324.676" width="57.0832" height="64.4487" rx="28.5416" stroke="#E6E4D9" stroke-width="5.52418"/>
<path d="M383.093 355.144C384.272 355.144 385.136 354.909 385.686 354.437C386.256 353.946 386.54 353.327 386.54 352.581V352.375C386.54 351.53 386.265 350.872 385.715 350.401C385.185 349.91 384.448 349.664 383.506 349.664C382.602 349.664 381.797 349.88 381.09 350.312C380.402 350.745 379.803 351.353 379.293 352.139L376.818 349.9C377.171 349.429 377.554 348.987 377.967 348.574C378.399 348.142 378.89 347.779 379.44 347.484C379.99 347.17 380.609 346.924 381.296 346.747C381.983 346.571 382.759 346.482 383.624 346.482C384.665 346.482 385.607 346.61 386.452 346.865C387.316 347.101 388.053 347.455 388.662 347.926C389.29 348.397 389.771 348.967 390.105 349.635C390.439 350.283 390.606 351.019 390.606 351.844C390.606 352.512 390.498 353.111 390.282 353.642C390.086 354.172 389.801 354.634 389.428 355.026C389.074 355.419 388.652 355.743 388.161 355.999C387.689 356.234 387.188 356.411 386.658 356.529V356.706C387.247 356.824 387.807 357.01 388.338 357.265C388.868 357.521 389.32 357.865 389.693 358.297C390.086 358.709 390.39 359.2 390.606 359.77C390.842 360.339 390.96 360.988 390.96 361.714C390.96 362.618 390.773 363.443 390.4 364.189C390.046 364.936 389.536 365.574 388.868 366.104C388.2 366.634 387.405 367.047 386.481 367.342C385.558 367.617 384.527 367.754 383.388 367.754C382.386 367.754 381.502 367.646 380.736 367.43C379.97 367.234 379.293 366.959 378.703 366.605C378.134 366.251 377.633 365.849 377.201 365.397C376.769 364.926 376.395 364.435 376.081 363.924L378.939 361.744C379.175 362.156 379.43 362.539 379.705 362.893C379.98 363.227 380.294 363.521 380.648 363.777C381.001 364.032 381.404 364.228 381.856 364.366C382.308 364.503 382.818 364.572 383.388 364.572C384.527 364.572 385.401 364.297 386.01 363.747C386.619 363.197 386.923 362.441 386.923 361.479V361.272C386.923 360.33 386.589 359.613 385.922 359.122C385.273 358.631 384.331 358.385 383.093 358.385H381.06V355.144H383.093Z" fill="#E6E4D9"/>
<path d="M293.23 422.337C291.262 422.337 289.731 421.671 288.636 420.34C287.542 418.993 286.994 417.018 286.994 414.415C286.994 411.811 287.542 409.814 288.636 408.423C289.731 407.017 291.262 406.315 293.23 406.315C294.532 406.315 295.619 406.611 296.492 407.202C297.38 407.794 298.068 408.63 298.556 409.71L297.047 410.62C296.736 409.821 296.263 409.185 295.627 408.711C294.99 408.223 294.192 407.979 293.23 407.979C292.564 407.979 291.965 408.105 291.432 408.356C290.915 408.608 290.471 408.97 290.101 409.444C289.746 409.902 289.472 410.457 289.28 411.108C289.088 411.744 288.991 412.462 288.991 413.261V415.568C288.991 417.166 289.361 418.416 290.101 419.319C290.841 420.221 291.884 420.672 293.23 420.672C294.221 420.672 295.05 420.421 295.715 419.918C296.381 419.4 296.869 418.72 297.18 417.876L298.667 418.808C298.179 419.903 297.476 420.769 296.559 421.405C295.641 422.026 294.532 422.337 293.23 422.337ZM305.704 422.337C304.934 422.337 304.232 422.196 303.595 421.915C302.959 421.634 302.412 421.235 301.953 420.717C301.509 420.184 301.162 419.556 300.91 418.831C300.659 418.091 300.533 417.262 300.533 416.345C300.533 415.443 300.659 414.622 300.91 413.882C301.162 413.142 301.509 412.513 301.953 411.996C302.412 411.463 302.959 411.056 303.595 410.775C304.232 410.494 304.934 410.353 305.704 410.353C306.473 410.353 307.168 410.494 307.79 410.775C308.426 411.056 308.973 411.463 309.432 411.996C309.89 412.513 310.245 413.142 310.497 413.882C310.748 414.622 310.874 415.443 310.874 416.345C310.874 417.262 310.748 418.091 310.497 418.831C310.245 419.556 309.89 420.184 309.432 420.717C308.973 421.235 308.426 421.634 307.79 421.915C307.168 422.196 306.473 422.337 305.704 422.337ZM305.704 420.761C306.665 420.761 307.449 420.465 308.056 419.874C308.662 419.282 308.966 418.379 308.966 417.166V415.524C308.966 414.311 308.662 413.409 308.056 412.817C307.449 412.225 306.665 411.929 305.704 411.929C304.742 411.929 303.958 412.225 303.351 412.817C302.745 413.409 302.441 414.311 302.441 415.524V417.166C302.441 418.379 302.745 419.282 303.351 419.874C303.958 420.465 304.742 420.761 305.704 420.761ZM313.794 422.071V410.62H315.569V412.484H315.658C315.939 411.833 316.331 411.315 316.834 410.93C317.352 410.546 318.04 410.353 318.898 410.353C320.081 410.353 321.014 410.738 321.694 411.507C322.389 412.262 322.737 413.335 322.737 414.725V422.071H320.962V415.036C320.962 412.979 320.096 411.951 318.365 411.951C318.01 411.951 317.663 411.996 317.322 412.084C316.997 412.173 316.701 412.306 316.435 412.484C316.168 412.661 315.954 412.891 315.791 413.172C315.643 413.438 315.569 413.756 315.569 414.126V422.071H313.794ZM329.846 422.337C328.781 422.337 327.886 422.137 327.161 421.738C326.451 421.323 325.837 420.776 325.319 420.096L326.584 419.075C327.028 419.637 327.524 420.073 328.071 420.384C328.618 420.68 329.254 420.828 329.979 420.828C330.734 420.828 331.318 420.665 331.733 420.34C332.162 420.014 332.376 419.556 332.376 418.964C332.376 418.52 332.228 418.143 331.932 417.832C331.651 417.507 331.133 417.285 330.379 417.166L329.469 417.033C328.936 416.959 328.448 416.848 328.004 416.7C327.561 416.537 327.168 416.33 326.828 416.079C326.503 415.813 326.244 415.487 326.052 415.102C325.874 414.718 325.785 414.259 325.785 413.727C325.785 413.164 325.889 412.676 326.096 412.262C326.303 411.833 326.584 411.478 326.939 411.197C327.309 410.916 327.745 410.709 328.248 410.575C328.751 410.427 329.291 410.353 329.868 410.353C330.8 410.353 331.577 410.516 332.199 410.842C332.835 411.167 333.389 411.618 333.863 412.195L332.687 413.261C332.435 412.906 332.065 412.587 331.577 412.306C331.089 412.01 330.475 411.863 329.735 411.863C328.996 411.863 328.433 412.025 328.049 412.351C327.679 412.661 327.494 413.09 327.494 413.638C327.494 414.2 327.679 414.607 328.049 414.858C328.433 415.11 328.981 415.295 329.691 415.413L330.579 415.546C331.851 415.739 332.753 416.108 333.286 416.656C333.819 417.188 334.085 417.891 334.085 418.764C334.085 419.874 333.708 420.746 332.953 421.383C332.199 422.019 331.163 422.337 329.846 422.337ZM344.277 420.206H344.189C344.07 420.473 343.922 420.739 343.745 421.005C343.582 421.257 343.375 421.486 343.123 421.693C342.872 421.886 342.569 422.041 342.214 422.159C341.859 422.278 341.444 422.337 340.971 422.337C339.787 422.337 338.848 421.96 338.153 421.205C337.457 420.436 337.11 419.356 337.11 417.965V410.62H338.885V417.654C338.885 419.711 339.758 420.739 341.504 420.739C341.859 420.739 342.199 420.695 342.524 420.606C342.865 420.517 343.16 420.384 343.412 420.206C343.678 420.029 343.885 419.807 344.033 419.541C344.196 419.26 344.277 418.927 344.277 418.542V410.62H346.053V422.071H344.277V420.206ZM351.72 422.071C351.098 422.071 350.625 421.9 350.299 421.56C349.989 421.205 349.833 420.761 349.833 420.229V405.649H351.609V420.517H353.295V422.071H351.72ZM360.185 422.337C359.401 422.337 358.69 422.196 358.054 421.915C357.433 421.634 356.893 421.235 356.434 420.717C355.991 420.184 355.643 419.556 355.391 418.831C355.155 418.091 355.036 417.262 355.036 416.345C355.036 415.443 355.155 414.622 355.391 413.882C355.643 413.142 355.991 412.513 356.434 411.996C356.893 411.463 357.433 411.056 358.054 410.775C358.69 410.494 359.401 410.353 360.185 410.353C360.954 410.353 361.642 410.494 362.248 410.775C362.855 411.056 363.373 411.448 363.802 411.951C364.231 412.439 364.556 413.024 364.778 413.704C365.015 414.385 365.133 415.132 365.133 415.946V416.789H356.9V417.322C356.9 417.81 356.974 418.268 357.122 418.697C357.285 419.112 357.507 419.474 357.788 419.785C358.084 420.096 358.439 420.34 358.853 420.517C359.282 420.695 359.763 420.783 360.296 420.783C361.021 420.783 361.649 420.613 362.182 420.273C362.729 419.933 363.151 419.445 363.447 418.808L364.712 419.718C364.342 420.502 363.765 421.139 362.981 421.627C362.197 422.1 361.265 422.337 360.185 422.337ZM360.185 411.84C359.696 411.84 359.253 411.929 358.853 412.107C358.454 412.269 358.106 412.506 357.81 412.817C357.529 413.127 357.307 413.497 357.144 413.926C356.982 414.341 356.9 414.799 356.9 415.302V415.458H363.225V415.213C363.225 414.193 362.944 413.379 362.382 412.772C361.834 412.151 361.102 411.84 360.185 411.84ZM368.059 422.071V410.62H369.834V412.484H369.923C370.204 411.833 370.596 411.315 371.099 410.93C371.617 410.546 372.305 410.353 373.163 410.353C374.346 410.353 375.278 410.738 375.959 411.507C376.654 412.262 377.002 413.335 377.002 414.725V422.071H375.227V415.036C375.227 412.979 374.361 411.951 372.63 411.951C372.275 411.951 371.928 411.996 371.587 412.084C371.262 412.173 370.966 412.306 370.7 412.484C370.433 412.661 370.219 412.891 370.056 413.172C369.908 413.438 369.834 413.756 369.834 414.126V422.071H368.059ZM379.518 422.071V420.584L386.02 412.173H379.717V410.62H388.172V411.951L381.537 420.517H388.35V422.071H379.518ZM399.287 422.071C398.621 422.071 398.141 421.893 397.845 421.538C397.564 421.183 397.386 420.739 397.312 420.206H397.201C396.95 420.917 396.535 421.449 395.958 421.804C395.381 422.159 394.694 422.337 393.895 422.337C392.682 422.337 391.735 422.026 391.054 421.405C390.388 420.783 390.056 419.94 390.056 418.875C390.056 417.795 390.448 416.967 391.232 416.39C392.031 415.813 393.266 415.524 394.938 415.524H397.201V414.392C397.201 413.579 396.979 412.957 396.535 412.528C396.092 412.099 395.411 411.885 394.494 411.885C393.798 411.885 393.214 412.04 392.741 412.351C392.282 412.661 391.897 413.076 391.587 413.593L390.522 412.595C390.832 411.973 391.328 411.448 392.008 411.019C392.689 410.575 393.547 410.353 394.583 410.353C395.973 410.353 397.053 410.694 397.823 411.374C398.592 412.055 398.976 413.002 398.976 414.215V420.517H400.286V422.071H399.287ZM394.183 420.828C394.627 420.828 395.034 420.776 395.404 420.672C395.774 420.569 396.092 420.421 396.358 420.229C396.624 420.036 396.831 419.814 396.979 419.563C397.127 419.311 397.201 419.038 397.201 418.742V416.856H394.849C393.828 416.856 393.081 417.004 392.608 417.299C392.149 417.595 391.92 418.024 391.92 418.587V419.053C391.92 419.615 392.119 420.051 392.519 420.362C392.933 420.672 393.488 420.828 394.183 420.828ZM413.457 408.223V422.071H411.592V408.223H406.666V406.581H418.383V408.223H413.457ZM423.617 422.337C422.832 422.337 422.122 422.196 421.486 421.915C420.865 421.634 420.325 421.235 419.866 420.717C419.422 420.184 419.075 419.556 418.823 418.831C418.587 418.091 418.468 417.262 418.468 416.345C418.468 415.443 418.587 414.622 418.823 413.882C419.075 413.142 419.422 412.513 419.866 411.996C420.325 411.463 420.865 411.056 421.486 410.775C422.122 410.494 422.832 410.353 423.617 410.353C424.386 410.353 425.074 410.494 425.68 410.775C426.287 411.056 426.805 411.448 427.234 411.951C427.663 412.439 427.988 413.024 428.21 413.704C428.447 414.385 428.565 415.132 428.565 415.946V416.789H420.332V417.322C420.332 417.81 420.406 418.268 420.554 418.697C420.717 419.112 420.939 419.474 421.22 419.785C421.516 420.096 421.871 420.34 422.285 420.517C422.714 420.695 423.195 420.783 423.728 420.783C424.452 420.783 425.081 420.613 425.614 420.273C426.161 419.933 426.583 419.445 426.879 418.808L428.144 419.718C427.774 420.502 427.197 421.139 426.413 421.627C425.629 422.1 424.697 422.337 423.617 422.337ZM423.617 411.84C423.128 411.84 422.685 411.929 422.285 412.107C421.886 412.269 421.538 412.506 421.242 412.817C420.961 413.127 420.739 413.497 420.576 413.926C420.414 414.341 420.332 414.799 420.332 415.302V415.458H426.657V415.213C426.657 414.193 426.376 413.379 425.814 412.772C425.266 412.151 424.534 411.84 423.617 411.84ZM435.751 422.337C434.953 422.337 434.235 422.196 433.599 421.915C432.963 421.634 432.423 421.235 431.979 420.717C431.55 420.199 431.217 419.57 430.98 418.831C430.758 418.091 430.647 417.262 430.647 416.345C430.647 415.428 430.758 414.599 430.98 413.86C431.217 413.12 431.55 412.491 431.979 411.973C432.423 411.456 432.963 411.056 433.599 410.775C434.235 410.494 434.953 410.353 435.751 410.353C436.891 410.353 437.8 410.605 438.481 411.108C439.176 411.596 439.694 412.24 440.034 413.039L438.548 413.793C438.34 413.201 438 412.743 437.527 412.417C437.053 412.092 436.462 411.929 435.751 411.929C435.219 411.929 434.753 412.018 434.353 412.195C433.954 412.358 433.621 412.595 433.355 412.906C433.088 413.201 432.889 413.564 432.756 413.993C432.622 414.407 432.556 414.866 432.556 415.369V417.322C432.556 418.328 432.822 419.156 433.355 419.807C433.902 420.443 434.701 420.761 435.751 420.761C437.186 420.761 438.222 420.096 438.858 418.764L440.145 419.63C439.775 420.458 439.221 421.116 438.481 421.605C437.756 422.093 436.846 422.337 435.751 422.337ZM442.651 422.071V410.62H444.427V412.484H444.515C444.797 411.833 445.189 411.315 445.692 410.93C446.209 410.546 446.897 410.353 447.755 410.353C448.939 410.353 449.871 410.738 450.552 411.507C451.247 412.262 451.595 413.335 451.595 414.725V422.071H449.819V415.036C449.819 412.979 448.954 411.951 447.223 411.951C446.868 411.951 446.52 411.996 446.18 412.084C445.854 412.173 445.558 412.306 445.292 412.484C445.026 412.661 444.811 412.891 444.649 413.172C444.501 413.438 444.427 413.756 444.427 414.126V422.071H442.651ZM456.152 407.935C455.767 407.935 455.486 407.846 455.308 407.668C455.146 407.476 455.064 407.232 455.064 406.936V406.648C455.064 406.352 455.146 406.115 455.308 405.937C455.486 405.745 455.767 405.649 456.152 405.649C456.536 405.649 456.81 405.745 456.973 405.937C457.15 406.115 457.239 406.352 457.239 406.648V406.936C457.239 407.232 457.15 407.476 456.973 407.668C456.81 407.846 456.536 407.935 456.152 407.935ZM455.264 410.62H457.039V422.071H455.264V410.62ZM465.073 422.337C464.274 422.337 463.556 422.196 462.92 421.915C462.284 421.634 461.744 421.235 461.3 420.717C460.871 420.199 460.538 419.57 460.302 418.831C460.08 418.091 459.969 417.262 459.969 416.345C459.969 415.428 460.08 414.599 460.302 413.86C460.538 413.12 460.871 412.491 461.3 411.973C461.744 411.456 462.284 411.056 462.92 410.775C463.556 410.494 464.274 410.353 465.073 410.353C466.212 410.353 467.122 410.605 467.802 411.108C468.498 411.596 469.015 412.24 469.356 413.039L467.869 413.793C467.662 413.201 467.321 412.743 466.848 412.417C466.375 412.092 465.783 411.929 465.073 411.929C464.54 411.929 464.074 412.018 463.675 412.195C463.275 412.358 462.942 412.595 462.676 412.906C462.41 413.201 462.21 413.564 462.077 413.993C461.944 414.407 461.877 414.866 461.877 415.369V417.322C461.877 418.328 462.143 419.156 462.676 419.807C463.223 420.443 464.022 420.761 465.073 420.761C466.508 420.761 467.543 420.096 468.18 418.764L469.467 419.63C469.097 420.458 468.542 421.116 467.802 421.605C467.077 422.093 466.167 422.337 465.073 422.337ZM480.294 422.071C479.629 422.071 479.148 421.893 478.852 421.538C478.571 421.183 478.393 420.739 478.319 420.206H478.208C477.957 420.917 477.543 421.449 476.966 421.804C476.389 422.159 475.701 422.337 474.902 422.337C473.689 422.337 472.742 422.026 472.061 421.405C471.396 420.783 471.063 419.94 471.063 418.875C471.063 417.795 471.455 416.967 472.239 416.39C473.038 415.813 474.273 415.524 475.945 415.524H478.208V414.392C478.208 413.579 477.987 412.957 477.543 412.528C477.099 412.099 476.418 411.885 475.501 411.885C474.806 411.885 474.221 412.04 473.748 412.351C473.289 412.661 472.905 413.076 472.594 413.593L471.529 412.595C471.84 411.973 472.335 411.448 473.016 411.019C473.696 410.575 474.554 410.353 475.59 410.353C476.981 410.353 478.061 410.694 478.83 411.374C479.599 412.055 479.984 413.002 479.984 414.215V420.517H481.293V422.071H480.294ZM475.19 420.828C475.634 420.828 476.041 420.776 476.411 420.672C476.781 420.569 477.099 420.421 477.365 420.229C477.631 420.036 477.839 419.814 477.987 419.563C478.134 419.311 478.208 419.038 478.208 418.742V416.856H475.856C474.835 416.856 474.088 417.004 473.615 417.299C473.156 417.595 472.927 418.024 472.927 418.587V419.053C472.927 419.615 473.127 420.051 473.526 420.362C473.94 420.672 474.495 420.828 475.19 420.828Z" fill="#E6E4D9"/>
<rect x="432.129" y="234.743" width="57.0832" height="64.4487" rx="28.5416" fill="#13637E"/>
<rect x="432.129" y="234.743" width="57.0832" height="64.4487" rx="28.5416" stroke="#E6E4D9" stroke-width="5.52418"/>
<path d="M462.091 277.467V273.49H452.781V270.19L460.971 256.902H465.774V270.484H468.455V273.49H465.774V277.467H462.091ZM455.963 270.484H462.091V260.673H461.855L455.963 270.484Z" fill="#E6E4D9"/>
<path d="M525.193 259.733C523.225 259.733 521.694 259.067 520.599 257.736C519.504 256.39 518.957 254.415 518.957 251.811C518.957 249.207 519.504 247.21 520.599 245.819C521.694 244.414 523.225 243.711 525.193 243.711C526.495 243.711 527.582 244.007 528.455 244.599C529.343 245.19 530.031 246.026 530.519 247.106L529.01 248.016C528.699 247.217 528.226 246.581 527.589 246.108C526.953 245.619 526.154 245.375 525.193 245.375C524.527 245.375 523.928 245.501 523.395 245.753C522.878 246.004 522.434 246.367 522.064 246.84C521.709 247.299 521.435 247.853 521.243 248.504C521.05 249.141 520.954 249.858 520.954 250.657V252.965C520.954 254.563 521.324 255.813 522.064 256.715C522.804 257.618 523.847 258.069 525.193 258.069C526.184 258.069 527.013 257.817 527.678 257.314C528.344 256.797 528.832 256.116 529.143 255.273L530.63 256.205C530.141 257.3 529.439 258.165 528.522 258.801C527.604 259.423 526.495 259.733 525.193 259.733ZM537.666 259.733C536.897 259.733 536.194 259.593 535.558 259.312C534.922 259.03 534.375 258.631 533.916 258.113C533.472 257.581 533.125 256.952 532.873 256.227C532.622 255.487 532.496 254.659 532.496 253.742C532.496 252.839 532.622 252.018 532.873 251.278C533.125 250.539 533.472 249.91 533.916 249.392C534.375 248.859 534.922 248.453 535.558 248.171C536.194 247.89 536.897 247.75 537.666 247.75C538.436 247.75 539.131 247.89 539.752 248.171C540.389 248.453 540.936 248.859 541.395 249.392C541.853 249.91 542.208 250.539 542.46 251.278C542.711 252.018 542.837 252.839 542.837 253.742C542.837 254.659 542.711 255.487 542.46 256.227C542.208 256.952 541.853 257.581 541.395 258.113C540.936 258.631 540.389 259.03 539.752 259.312C539.131 259.593 538.436 259.733 537.666 259.733ZM537.666 258.158C538.628 258.158 539.412 257.862 540.019 257.27C540.625 256.678 540.929 255.776 540.929 254.563V252.92C540.929 251.707 540.625 250.805 540.019 250.213C539.412 249.621 538.628 249.325 537.666 249.325C536.705 249.325 535.921 249.621 535.314 250.213C534.708 250.805 534.404 251.707 534.404 252.92V254.563C534.404 255.776 534.708 256.678 535.314 257.27C535.921 257.862 536.705 258.158 537.666 258.158ZM545.757 259.467V248.016H547.532V249.88H547.621C547.902 249.229 548.294 248.711 548.797 248.327C549.315 247.942 550.003 247.75 550.861 247.75C552.044 247.75 552.976 248.135 553.657 248.904C554.352 249.658 554.7 250.731 554.7 252.122V259.467H552.925V252.432C552.925 250.376 552.059 249.348 550.328 249.348C549.973 249.348 549.625 249.392 549.285 249.481C548.96 249.57 548.664 249.703 548.398 249.88C548.131 250.058 547.917 250.287 547.754 250.568C547.606 250.834 547.532 251.153 547.532 251.522V259.467H545.757ZM561.809 259.733C560.744 259.733 559.849 259.533 559.124 259.134C558.414 258.72 557.8 258.172 557.282 257.492L558.547 256.471C558.991 257.033 559.486 257.47 560.034 257.78C560.581 258.076 561.217 258.224 561.942 258.224C562.697 258.224 563.281 258.061 563.695 257.736C564.124 257.411 564.339 256.952 564.339 256.36C564.339 255.916 564.191 255.539 563.895 255.228C563.614 254.903 563.096 254.681 562.342 254.563L561.432 254.429C560.899 254.355 560.411 254.245 559.967 254.097C559.523 253.934 559.131 253.727 558.791 253.475C558.466 253.209 558.207 252.883 558.014 252.499C557.837 252.114 557.748 251.656 557.748 251.123C557.748 250.561 557.852 250.073 558.059 249.658C558.266 249.229 558.547 248.874 558.902 248.593C559.272 248.312 559.708 248.105 560.211 247.972C560.714 247.824 561.254 247.75 561.831 247.75C562.763 247.75 563.54 247.913 564.161 248.238C564.798 248.564 565.352 249.015 565.826 249.592L564.65 250.657C564.398 250.302 564.028 249.984 563.54 249.703C563.052 249.407 562.438 249.259 561.698 249.259C560.958 249.259 560.396 249.422 560.012 249.747C559.642 250.058 559.457 250.487 559.457 251.034C559.457 251.596 559.642 252.003 560.012 252.255C560.396 252.506 560.944 252.691 561.654 252.809L562.541 252.943C563.814 253.135 564.716 253.505 565.249 254.052C565.781 254.585 566.048 255.288 566.048 256.16C566.048 257.27 565.67 258.143 564.916 258.779C564.161 259.415 563.126 259.733 561.809 259.733ZM576.24 257.603H576.152C576.033 257.869 575.885 258.135 575.708 258.402C575.545 258.653 575.338 258.883 575.086 259.09C574.835 259.282 574.532 259.437 574.177 259.556C573.821 259.674 573.407 259.733 572.934 259.733C571.75 259.733 570.811 259.356 570.115 258.601C569.42 257.832 569.073 256.752 569.073 255.362V248.016H570.848V255.051C570.848 257.107 571.721 258.135 573.466 258.135C573.821 258.135 574.162 258.091 574.487 258.002C574.827 257.914 575.123 257.78 575.375 257.603C575.641 257.425 575.848 257.203 575.996 256.937C576.159 256.656 576.24 256.323 576.24 255.938V248.016H578.016V259.467H576.24V257.603ZM583.682 259.467C583.061 259.467 582.588 259.297 582.262 258.957C581.951 258.601 581.796 258.158 581.796 257.625V243.045H583.571V257.914H585.258V259.467H583.682ZM592.148 259.733C591.363 259.733 590.653 259.593 590.017 259.312C589.396 259.03 588.856 258.631 588.397 258.113C587.953 257.581 587.606 256.952 587.354 256.227C587.118 255.487 586.999 254.659 586.999 253.742C586.999 252.839 587.118 252.018 587.354 251.278C587.606 250.539 587.953 249.91 588.397 249.392C588.856 248.859 589.396 248.453 590.017 248.171C590.653 247.89 591.363 247.75 592.148 247.75C592.917 247.75 593.605 247.89 594.211 248.171C594.818 248.453 595.336 248.845 595.765 249.348C596.194 249.836 596.519 250.42 596.741 251.101C596.978 251.781 597.096 252.528 597.096 253.342V254.185H588.863V254.718C588.863 255.206 588.937 255.665 589.085 256.094C589.248 256.508 589.47 256.871 589.751 257.181C590.047 257.492 590.402 257.736 590.816 257.914C591.245 258.091 591.726 258.18 592.259 258.18C592.983 258.18 593.612 258.01 594.145 257.669C594.692 257.329 595.114 256.841 595.41 256.205L596.675 257.115C596.305 257.899 595.728 258.535 594.944 259.023C594.16 259.497 593.228 259.733 592.148 259.733ZM592.148 249.237C591.659 249.237 591.216 249.325 590.816 249.503C590.417 249.666 590.069 249.902 589.773 250.213C589.492 250.524 589.27 250.894 589.107 251.323C588.945 251.737 588.863 252.196 588.863 252.699V252.854H595.188V252.61C595.188 251.589 594.907 250.775 594.345 250.169C593.797 249.547 593.065 249.237 592.148 249.237ZM600.022 259.467V248.016H601.797V249.88H601.886C602.167 249.229 602.559 248.711 603.062 248.327C603.58 247.942 604.268 247.75 605.126 247.75C606.309 247.75 607.241 248.135 607.922 248.904C608.617 249.658 608.965 250.731 608.965 252.122V259.467H607.19V252.432C607.19 250.376 606.324 249.348 604.593 249.348C604.238 249.348 603.89 249.392 603.55 249.481C603.225 249.57 602.929 249.703 602.662 249.88C602.396 250.058 602.182 250.287 602.019 250.568C601.871 250.834 601.797 251.153 601.797 251.522V259.467H600.022ZM611.48 259.467V257.98L617.983 249.57H611.68V248.016H620.135V249.348L613.5 257.914H620.313V259.467H611.48ZM631.25 259.467C630.584 259.467 630.103 259.289 629.808 258.934C629.527 258.579 629.349 258.135 629.275 257.603H629.164C628.913 258.313 628.498 258.846 627.921 259.201C627.344 259.556 626.656 259.733 625.858 259.733C624.644 259.733 623.698 259.423 623.017 258.801C622.351 258.18 622.018 257.337 622.018 256.271C622.018 255.191 622.41 254.363 623.195 253.786C623.993 253.209 625.229 252.92 626.901 252.92H629.164V251.789C629.164 250.975 628.942 250.354 628.498 249.925C628.054 249.496 627.374 249.281 626.457 249.281C625.761 249.281 625.177 249.436 624.704 249.747C624.245 250.058 623.86 250.472 623.55 250.99L622.484 249.991C622.795 249.37 623.291 248.845 623.971 248.416C624.652 247.972 625.51 247.75 626.545 247.75C627.936 247.75 629.016 248.09 629.785 248.771C630.555 249.451 630.939 250.398 630.939 251.611V257.914H632.249V259.467H631.25ZM626.146 258.224C626.59 258.224 626.997 258.172 627.367 258.069C627.736 257.965 628.054 257.817 628.321 257.625C628.587 257.433 628.794 257.211 628.942 256.959C629.09 256.708 629.164 256.434 629.164 256.138V254.252H626.812C625.791 254.252 625.044 254.4 624.57 254.696C624.112 254.992 623.882 255.421 623.882 255.983V256.449C623.882 257.011 624.082 257.448 624.482 257.758C624.896 258.069 625.451 258.224 626.146 258.224ZM519.734 289.467V273.977H521.598V287.825H528.189V289.467H519.734ZM534.762 289.733C533.978 289.733 533.268 289.593 532.632 289.312C532.01 289.03 531.47 288.631 531.012 288.113C530.568 287.581 530.22 286.952 529.969 286.227C529.732 285.487 529.614 284.659 529.614 283.742C529.614 282.839 529.732 282.018 529.969 281.278C530.22 280.539 530.568 279.91 531.012 279.392C531.47 278.859 532.01 278.453 532.632 278.171C533.268 277.89 533.978 277.75 534.762 277.75C535.531 277.75 536.219 277.89 536.826 278.171C537.432 278.453 537.95 278.845 538.379 279.348C538.808 279.836 539.134 280.42 539.356 281.101C539.592 281.781 539.711 282.528 539.711 283.342V284.185H531.478V284.718C531.478 285.206 531.552 285.665 531.7 286.094C531.862 286.508 532.084 286.871 532.365 287.181C532.661 287.492 533.016 287.736 533.431 287.914C533.86 288.091 534.34 288.18 534.873 288.18C535.598 288.18 536.227 288.01 536.759 287.669C537.307 287.329 537.728 286.841 538.024 286.205L539.289 287.115C538.919 287.899 538.342 288.535 537.558 289.023C536.774 289.497 535.842 289.733 534.762 289.733ZM534.762 279.237C534.274 279.237 533.83 279.325 533.431 279.503C533.031 279.666 532.683 279.902 532.388 280.213C532.106 280.524 531.885 280.894 531.722 281.323C531.559 281.737 531.478 282.196 531.478 282.699V282.854H537.802V282.61C537.802 281.589 537.521 280.775 536.959 280.169C536.412 279.547 535.679 279.237 534.762 279.237ZM552.289 290.732C552.289 291.915 551.823 292.781 550.891 293.328C549.974 293.89 548.591 294.171 546.742 294.171C544.951 294.171 543.664 293.927 542.88 293.439C542.096 292.951 541.704 292.256 541.704 291.353C541.704 290.732 541.867 290.244 542.192 289.889C542.518 289.548 542.962 289.297 543.524 289.134V288.89C542.843 288.564 542.503 288.032 542.503 287.292C542.503 286.715 542.688 286.279 543.058 285.983C543.428 285.672 543.901 285.443 544.478 285.295V285.206C543.797 284.881 543.265 284.415 542.88 283.808C542.51 283.202 542.325 282.499 542.325 281.7C542.325 281.123 542.429 280.59 542.636 280.102C542.843 279.614 543.132 279.2 543.502 278.859C543.886 278.504 544.337 278.231 544.855 278.038C545.388 277.846 545.98 277.75 546.631 277.75C547.444 277.75 548.169 277.898 548.805 278.194V277.994C548.805 277.55 548.909 277.188 549.116 276.907C549.323 276.611 549.663 276.463 550.137 276.463H551.846V278.016H549.671V278.748C550.085 279.104 550.403 279.533 550.625 280.036C550.862 280.524 550.98 281.079 550.98 281.7C550.98 282.277 550.877 282.809 550.669 283.298C550.462 283.786 550.166 284.208 549.782 284.563C549.412 284.903 548.961 285.169 548.428 285.362C547.895 285.554 547.304 285.65 546.653 285.65C546.283 285.65 545.913 285.613 545.543 285.539C545.159 285.643 544.811 285.798 544.5 286.005C544.19 286.197 544.034 286.471 544.034 286.826C544.034 287.166 544.197 287.396 544.522 287.514C544.848 287.632 545.27 287.692 545.787 287.692H548.228C549.649 287.692 550.677 287.965 551.313 288.513C551.964 289.045 552.289 289.785 552.289 290.732ZM550.625 290.865C550.625 290.406 550.447 290.036 550.092 289.755C549.752 289.489 549.138 289.356 548.251 289.356H544.434C543.723 289.681 543.368 290.199 543.368 290.909C543.368 291.412 543.553 291.841 543.923 292.196C544.308 292.552 544.951 292.729 545.854 292.729H547.496C548.487 292.729 549.257 292.574 549.804 292.263C550.351 291.952 550.625 291.486 550.625 290.865ZM546.653 284.23C547.407 284.23 548.006 284.052 548.45 283.697C548.894 283.327 549.116 282.765 549.116 282.011V281.389C549.116 280.635 548.894 280.08 548.45 279.725C548.006 279.355 547.407 279.17 546.653 279.17C545.898 279.17 545.299 279.355 544.855 279.725C544.411 280.08 544.19 280.635 544.19 281.389V282.011C544.19 282.765 544.411 283.327 544.855 283.697C545.299 284.052 545.898 284.23 546.653 284.23ZM562.617 289.467C561.951 289.467 561.47 289.289 561.175 288.934C560.894 288.579 560.716 288.135 560.642 287.603H560.531C560.28 288.313 559.865 288.846 559.288 289.201C558.711 289.556 558.023 289.733 557.225 289.733C556.011 289.733 555.065 289.423 554.384 288.801C553.718 288.18 553.385 287.337 553.385 286.271C553.385 285.191 553.777 284.363 554.562 283.786C555.36 283.209 556.596 282.92 558.268 282.92H560.531V281.789C560.531 280.975 560.309 280.354 559.865 279.925C559.421 279.496 558.741 279.281 557.824 279.281C557.128 279.281 556.544 279.436 556.071 279.747C555.612 280.058 555.227 280.472 554.917 280.99L553.851 279.991C554.162 279.37 554.658 278.845 555.338 278.416C556.019 277.972 556.877 277.75 557.912 277.75C559.303 277.75 560.383 278.09 561.152 278.771C561.922 279.451 562.306 280.398 562.306 281.611V287.914H563.616V289.467H562.617ZM557.513 288.224C557.957 288.224 558.364 288.172 558.734 288.069C559.103 287.965 559.421 287.817 559.688 287.625C559.954 287.433 560.161 287.211 560.309 286.959C560.457 286.708 560.531 286.434 560.531 286.138V284.252H558.179C557.158 284.252 556.411 284.4 555.937 284.696C555.479 284.992 555.25 285.421 555.25 285.983V286.449C555.25 287.011 555.449 287.448 555.849 287.758C556.263 288.069 556.818 288.224 557.513 288.224ZM568.036 289.467C567.414 289.467 566.941 289.297 566.615 288.957C566.305 288.601 566.149 288.158 566.149 287.625V273.045H567.925V287.914H569.611V289.467H568.036ZM576.501 289.733C575.717 289.733 575.007 289.593 574.371 289.312C573.749 289.03 573.209 288.631 572.751 288.113C572.307 287.581 571.959 286.952 571.708 286.227C571.471 285.487 571.352 284.659 571.352 283.742C571.352 282.839 571.471 282.018 571.708 281.278C571.959 280.539 572.307 279.91 572.751 279.392C573.209 278.859 573.749 278.453 574.371 278.171C575.007 277.89 575.717 277.75 576.501 277.75C577.27 277.75 577.958 277.89 578.565 278.171C579.171 278.453 579.689 278.845 580.118 279.348C580.547 279.836 580.873 280.42 581.095 281.101C581.331 281.781 581.45 282.528 581.45 283.342V284.185H573.217V284.718C573.217 285.206 573.291 285.665 573.438 286.094C573.601 286.508 573.823 286.871 574.104 287.181C574.4 287.492 574.755 287.736 575.169 287.914C575.598 288.091 576.079 288.18 576.612 288.18C577.337 288.18 577.966 288.01 578.498 287.669C579.046 287.329 579.467 286.841 579.763 286.205L581.028 287.115C580.658 287.899 580.081 288.535 579.297 289.023C578.513 289.497 577.581 289.733 576.501 289.733ZM576.501 279.237C576.013 279.237 575.569 279.325 575.169 279.503C574.77 279.666 574.422 279.902 574.126 280.213C573.845 280.524 573.623 280.894 573.461 281.323C573.298 281.737 573.217 282.196 573.217 282.699V282.854H579.541V282.61C579.541 281.589 579.26 280.775 578.698 280.169C578.15 279.547 577.418 279.237 576.501 279.237Z" fill="#E6E4D9"/>
<rect x="432.129" y="144.809" width="57.0832" height="64.4487" rx="28.5416" fill="#13637E"/>
<rect x="432.129" y="144.809" width="57.0832" height="64.4487" rx="28.5416" stroke="#E6E4D9" stroke-width="5.52418"/>
<path d="M467.011 170.327H457.76L457.288 177.222H457.495C457.711 176.789 457.946 176.387 458.202 176.014C458.457 175.64 458.752 175.326 459.086 175.071C459.42 174.815 459.803 174.619 460.235 174.482C460.686 174.324 461.227 174.246 461.855 174.246C462.739 174.246 463.564 174.393 464.33 174.688C465.096 174.982 465.754 175.415 466.304 175.984C466.874 176.534 467.315 177.212 467.63 178.017C467.964 178.822 468.131 179.736 468.131 180.757C468.131 181.798 467.964 182.751 467.63 183.615C467.296 184.479 466.805 185.235 466.157 185.883C465.508 186.512 464.713 187.003 463.77 187.357C462.827 187.71 461.747 187.887 460.529 187.887C459.587 187.887 458.742 187.779 457.996 187.563C457.249 187.366 456.591 187.091 456.022 186.738C455.452 186.384 454.961 185.982 454.549 185.53C454.136 185.058 453.773 184.567 453.458 184.057L456.287 181.877C456.522 182.269 456.768 182.643 457.023 182.996C457.279 183.33 457.573 183.625 457.907 183.88C458.261 184.135 458.644 184.342 459.056 184.499C459.488 184.636 459.989 184.705 460.559 184.705C461.718 184.705 462.592 184.381 463.181 183.733C463.79 183.085 464.094 182.201 464.094 181.081V180.845C464.094 179.785 463.79 178.95 463.181 178.341C462.572 177.732 461.727 177.428 460.647 177.428C459.803 177.428 459.115 177.595 458.585 177.929C458.055 178.243 457.632 178.587 457.318 178.96L454.136 178.518L454.902 166.969H467.011V170.327Z" fill="#E6E4D9"/>
<path d="M524.083 160.8C522.826 160.8 521.753 160.563 520.865 160.089C519.978 159.601 519.223 158.936 518.602 158.092L519.978 156.938C520.525 157.663 521.132 158.218 521.798 158.603C522.463 158.973 523.247 159.157 524.15 159.157C525.259 159.157 526.103 158.891 526.68 158.359C527.271 157.826 527.567 157.116 527.567 156.228C527.567 155.488 527.345 154.919 526.902 154.519C526.458 154.12 525.725 153.802 524.705 153.565L523.44 153.277C522.019 152.951 520.932 152.463 520.178 151.812C519.438 151.146 519.068 150.214 519.068 149.016C519.068 148.335 519.194 147.729 519.445 147.196C519.697 146.664 520.044 146.22 520.488 145.865C520.947 145.51 521.487 145.243 522.108 145.066C522.744 144.874 523.44 144.777 524.194 144.777C525.363 144.777 526.362 144.992 527.19 145.421C528.033 145.85 528.743 146.479 529.32 147.307L527.922 148.328C527.493 147.736 526.976 147.27 526.369 146.93C525.762 146.59 525.008 146.42 524.105 146.42C523.114 146.42 522.33 146.634 521.753 147.063C521.191 147.477 520.91 148.106 520.91 148.949C520.91 149.689 521.147 150.251 521.62 150.636C522.108 151.006 522.841 151.302 523.817 151.524L525.082 151.812C526.606 152.152 527.708 152.67 528.388 153.366C529.069 154.061 529.409 154.985 529.409 156.139C529.409 156.85 529.283 157.493 529.032 158.07C528.795 158.647 528.448 159.135 527.989 159.535C527.53 159.934 526.968 160.245 526.302 160.467C525.651 160.689 524.912 160.8 524.083 160.8ZM536.756 160.8C535.972 160.8 535.262 160.659 534.625 160.378C534.004 160.097 533.464 159.697 533.005 159.18C532.562 158.647 532.214 158.018 531.962 157.293C531.726 156.554 531.607 155.725 531.607 154.808C531.607 153.905 531.726 153.084 531.962 152.345C532.214 151.605 532.562 150.976 533.005 150.458C533.464 149.926 534.004 149.519 534.625 149.238C535.262 148.957 535.972 148.816 536.756 148.816C537.525 148.816 538.213 148.957 538.82 149.238C539.426 149.519 539.944 149.911 540.373 150.414C540.802 150.902 541.127 151.487 541.349 152.167C541.586 152.848 541.704 153.595 541.704 154.408V155.252H533.471V155.784C533.471 156.273 533.545 156.731 533.693 157.16C533.856 157.574 534.078 157.937 534.359 158.248C534.655 158.558 535.01 158.802 535.424 158.98C535.853 159.157 536.334 159.246 536.867 159.246C537.592 159.246 538.22 159.076 538.753 158.736C539.3 158.396 539.722 157.907 540.018 157.271L541.283 158.181C540.913 158.965 540.336 159.601 539.552 160.089C538.768 160.563 537.836 160.8 536.756 160.8ZM536.756 150.303C536.268 150.303 535.824 150.392 535.424 150.569C535.025 150.732 534.677 150.969 534.381 151.28C534.1 151.59 533.878 151.96 533.716 152.389C533.553 152.803 533.471 153.262 533.471 153.765V153.92H539.796V153.676C539.796 152.655 539.515 151.842 538.953 151.235C538.405 150.614 537.673 150.303 536.756 150.303ZM544.63 160.533V149.083H546.405V151.191H546.516C546.723 150.643 547.093 150.155 547.626 149.726C548.158 149.297 548.891 149.083 549.823 149.083H550.511V150.858H549.468C548.506 150.858 547.751 151.043 547.204 151.413C546.671 151.768 546.405 152.219 546.405 152.766V160.533H544.63ZM555.525 160.533L551.508 149.083H553.283L555.281 154.764L556.523 158.669H556.634L557.877 154.764L559.919 149.083H561.627L557.589 160.533H555.525ZM564.805 146.397C564.42 146.397 564.139 146.309 563.962 146.131C563.799 145.939 563.718 145.695 563.718 145.399V145.11C563.718 144.814 563.799 144.578 563.962 144.4C564.139 144.208 564.42 144.112 564.805 144.112C565.19 144.112 565.463 144.208 565.626 144.4C565.804 144.578 565.892 144.814 565.892 145.11V145.399C565.892 145.695 565.804 145.939 565.626 146.131C565.463 146.309 565.19 146.397 564.805 146.397ZM563.917 149.083H565.693V160.533H563.917V149.083ZM568.311 160.533V159.047L574.813 150.636H568.511V149.083H576.966V150.414L570.331 158.98H577.143V160.533H568.311ZM580.647 146.397C580.262 146.397 579.981 146.309 579.803 146.131C579.641 145.939 579.559 145.695 579.559 145.399V145.11C579.559 144.814 579.641 144.578 579.803 144.4C579.981 144.208 580.262 144.112 580.647 144.112C581.031 144.112 581.305 144.208 581.468 144.4C581.645 144.578 581.734 144.814 581.734 145.11V145.399C581.734 145.695 581.645 145.939 581.468 146.131C581.305 146.309 581.031 146.397 580.647 146.397ZM579.759 149.083H581.534V160.533H579.759V149.083ZM597.875 158.669H597.786C597.09 160.089 595.973 160.8 594.435 160.8C593.725 160.8 593.081 160.659 592.504 160.378C591.927 160.097 591.432 159.697 591.017 159.18C590.618 158.662 590.307 158.033 590.085 157.293C589.878 156.554 589.775 155.725 589.775 154.808C589.775 153.891 589.878 153.062 590.085 152.323C590.307 151.583 590.618 150.954 591.017 150.436C591.432 149.918 591.927 149.519 592.504 149.238C593.081 148.957 593.725 148.816 594.435 148.816C595.234 148.816 595.914 148.994 596.476 149.349C597.053 149.689 597.49 150.222 597.786 150.947H597.875V144.112H599.65V160.533H597.875V158.669ZM594.923 159.202C595.323 159.202 595.7 159.15 596.055 159.047C596.425 158.943 596.743 158.795 597.009 158.603C597.275 158.396 597.482 158.151 597.63 157.87C597.793 157.574 597.875 157.242 597.875 156.872V152.611C597.875 152.3 597.793 152.012 597.63 151.746C597.482 151.464 597.275 151.228 597.009 151.035C596.743 150.843 596.425 150.695 596.055 150.592C595.7 150.473 595.323 150.414 594.923 150.414C593.917 150.414 593.126 150.732 592.549 151.368C591.972 151.99 591.683 152.811 591.683 153.832V155.784C591.683 156.805 591.972 157.634 592.549 158.27C593.126 158.891 593.917 159.202 594.923 159.202ZM604.312 146.397C603.927 146.397 603.646 146.309 603.468 146.131C603.306 145.939 603.224 145.695 603.224 145.399V145.11C603.224 144.814 603.306 144.578 603.468 144.4C603.646 144.208 603.927 144.112 604.312 144.112C604.696 144.112 604.97 144.208 605.133 144.4C605.31 144.578 605.399 144.814 605.399 145.11V145.399C605.399 145.695 605.31 145.939 605.133 146.131C604.97 146.309 604.696 146.397 604.312 146.397ZM603.424 149.083H605.199V160.533H603.424V149.083ZM520.178 174.636H518.313V173.083H520.178V170.775C520.178 169.976 520.385 169.332 520.799 168.844C521.213 168.356 521.842 168.112 522.685 168.112H524.416V169.665H521.953V173.083H524.416V174.636H521.953V184.533H520.178V174.636ZM535.073 184.533C534.407 184.533 533.926 184.356 533.63 184.001C533.349 183.646 533.172 183.202 533.098 182.669H532.987C532.735 183.379 532.321 183.912 531.744 184.267C531.167 184.622 530.479 184.8 529.68 184.8C528.467 184.8 527.52 184.489 526.84 183.868C526.174 183.246 525.841 182.403 525.841 181.338C525.841 180.258 526.233 179.429 527.017 178.852C527.816 178.275 529.052 177.987 530.723 177.987H532.987V176.855C532.987 176.041 532.765 175.42 532.321 174.991C531.877 174.562 531.197 174.347 530.279 174.347C529.584 174.347 529 174.503 528.526 174.813C528.068 175.124 527.683 175.538 527.372 176.056L526.307 175.058C526.618 174.436 527.114 173.911 527.794 173.482C528.475 173.038 529.333 172.816 530.368 172.816C531.759 172.816 532.839 173.157 533.608 173.837C534.378 174.518 534.762 175.464 534.762 176.678V182.98H536.071V184.533H535.073ZM529.969 183.291C530.413 183.291 530.819 183.239 531.189 183.135C531.559 183.032 531.877 182.884 532.144 182.691C532.41 182.499 532.617 182.277 532.765 182.026C532.913 181.774 532.987 181.5 532.987 181.205V179.318H530.635C529.614 179.318 528.867 179.466 528.393 179.762C527.935 180.058 527.705 180.487 527.705 181.049V181.515C527.705 182.077 527.905 182.514 528.304 182.825C528.719 183.135 529.273 183.291 529.969 183.291ZM542.866 184.8C542.067 184.8 541.35 184.659 540.713 184.378C540.077 184.097 539.537 183.697 539.093 183.18C538.664 182.662 538.332 182.033 538.095 181.293C537.873 180.554 537.762 179.725 537.762 178.808C537.762 177.891 537.873 177.062 538.095 176.323C538.332 175.583 538.664 174.954 539.093 174.436C539.537 173.918 540.077 173.519 540.713 173.238C541.35 172.957 542.067 172.816 542.866 172.816C544.005 172.816 544.915 173.068 545.596 173.571C546.291 174.059 546.809 174.703 547.149 175.501L545.662 176.256C545.455 175.664 545.115 175.206 544.641 174.88C544.168 174.555 543.576 174.392 542.866 174.392C542.333 174.392 541.867 174.481 541.468 174.658C541.069 174.821 540.736 175.058 540.469 175.368C540.203 175.664 540.003 176.027 539.87 176.456C539.737 176.87 539.67 177.329 539.67 177.832V179.784C539.67 180.79 539.937 181.619 540.469 182.27C541.017 182.906 541.816 183.224 542.866 183.224C544.301 183.224 545.337 182.558 545.973 181.227L547.26 182.092C546.89 182.921 546.335 183.579 545.596 184.067C544.871 184.556 543.961 184.8 542.866 184.8ZM550.654 170.397C550.269 170.397 549.988 170.309 549.81 170.131C549.648 169.939 549.566 169.695 549.566 169.399V169.11C549.566 168.814 549.648 168.578 549.81 168.4C549.988 168.208 550.269 168.112 550.654 168.112C551.038 168.112 551.312 168.208 551.475 168.4C551.652 168.578 551.741 168.814 551.741 169.11V169.399C551.741 169.695 551.652 169.939 551.475 170.131C551.312 170.309 551.038 170.397 550.654 170.397ZM549.766 173.083H551.541V184.533H549.766V173.083ZM557.2 184.533C556.579 184.533 556.105 184.363 555.78 184.023C555.469 183.668 555.314 183.224 555.314 182.691V168.112H557.089V182.98H558.776V184.533H557.2ZM562.248 170.397C561.863 170.397 561.582 170.309 561.405 170.131C561.242 169.939 561.16 169.695 561.16 169.399V169.11C561.16 168.814 561.242 168.578 561.405 168.4C561.582 168.208 561.863 168.112 562.248 168.112C562.632 168.112 562.906 168.208 563.069 168.4C563.246 168.578 563.335 168.814 563.335 169.11V169.399C563.335 169.695 563.246 169.939 563.069 170.131C562.906 170.309 562.632 170.397 562.248 170.397ZM561.36 173.083H563.135V184.533H561.36V173.083ZM569.438 184.533C568.816 184.533 568.343 184.363 568.018 184.023C567.707 183.668 567.552 183.209 567.552 182.647V174.636H565.665V173.083H566.73C567.115 173.083 567.374 173.009 567.507 172.861C567.655 172.698 567.729 172.424 567.729 172.04V169.909H569.327V173.083H571.834V174.636H569.327V182.98H571.657V184.533H569.438ZM583.01 184.533C582.344 184.533 581.863 184.356 581.567 184.001C581.286 183.646 581.109 183.202 581.035 182.669H580.924C580.672 183.379 580.258 183.912 579.681 184.267C579.104 184.622 578.416 184.8 577.617 184.8C576.404 184.8 575.457 184.489 574.777 183.868C574.111 183.246 573.778 182.403 573.778 181.338C573.778 180.258 574.17 179.429 574.954 178.852C575.753 178.275 576.988 177.987 578.66 177.987H580.924V176.855C580.924 176.041 580.702 175.42 580.258 174.991C579.814 174.562 579.134 174.347 578.216 174.347C577.521 174.347 576.937 174.503 576.463 174.813C576.005 175.124 575.62 175.538 575.309 176.056L574.244 175.058C574.555 174.436 575.05 173.911 575.731 173.482C576.411 173.038 577.27 172.816 578.305 172.816C579.696 172.816 580.776 173.157 581.545 173.837C582.314 174.518 582.699 175.464 582.699 176.678V182.98H584.008V184.533H583.01ZM577.906 183.291C578.35 183.291 578.756 183.239 579.126 183.135C579.496 183.032 579.814 182.884 580.08 182.691C580.347 182.499 580.554 182.277 580.702 182.026C580.85 181.774 580.924 181.5 580.924 181.205V179.318H578.571C577.551 179.318 576.804 179.466 576.33 179.762C575.872 180.058 575.642 180.487 575.642 181.049V181.515C575.642 182.077 575.842 182.514 576.241 182.825C576.656 183.135 577.21 183.291 577.906 183.291ZM585.388 184.533V183.047L591.89 174.636H585.588V173.083H594.043V174.414L587.408 182.98H594.22V184.533H585.388ZM597.724 170.397C597.339 170.397 597.058 170.309 596.88 170.131C596.718 169.939 596.636 169.695 596.636 169.399V169.11C596.636 168.814 596.718 168.578 596.88 168.4C597.058 168.208 597.339 168.112 597.724 168.112C598.108 168.112 598.382 168.208 598.545 168.4C598.722 168.578 598.811 168.814 598.811 169.11V169.399C598.811 169.695 598.722 169.939 598.545 170.131C598.382 170.309 598.108 170.397 597.724 170.397ZM596.836 173.083H598.611V184.533H596.836V173.083ZM606.711 184.8C605.942 184.8 605.239 184.659 604.603 184.378C603.967 184.097 603.419 183.697 602.961 183.18C602.517 182.647 602.169 182.018 601.918 181.293C601.666 180.554 601.541 179.725 601.541 178.808C601.541 177.905 601.666 177.084 601.918 176.345C602.169 175.605 602.517 174.976 602.961 174.458C603.419 173.926 603.967 173.519 604.603 173.238C605.239 172.957 605.942 172.816 606.711 172.816C607.481 172.816 608.176 172.957 608.797 173.238C609.433 173.519 609.981 173.926 610.439 174.458C610.898 174.976 611.253 175.605 611.505 176.345C611.756 177.084 611.882 177.905 611.882 178.808C611.882 179.725 611.756 180.554 611.505 181.293C611.253 182.018 610.898 182.647 610.439 183.18C609.981 183.697 609.433 184.097 608.797 184.378C608.176 184.659 607.481 184.8 606.711 184.8ZM606.711 183.224C607.673 183.224 608.457 182.928 609.063 182.336C609.67 181.745 609.973 180.842 609.973 179.629V177.987C609.973 176.774 609.67 175.871 609.063 175.28C608.457 174.688 607.673 174.392 606.711 174.392C605.75 174.392 604.965 174.688 604.359 175.28C603.752 175.871 603.449 176.774 603.449 177.987V179.629C603.449 180.842 603.752 181.745 604.359 182.336C604.965 182.928 605.75 183.224 606.711 183.224ZM614.802 184.533V173.083H616.577V174.947H616.666C616.947 174.296 617.339 173.778 617.842 173.393C618.36 173.009 619.047 172.816 619.906 172.816C621.089 172.816 622.021 173.201 622.702 173.97C623.397 174.725 623.745 175.797 623.745 177.188V184.533H621.969V177.499C621.969 175.442 621.104 174.414 619.373 174.414C619.018 174.414 618.67 174.458 618.33 174.547C618.004 174.636 617.709 174.769 617.442 174.947C617.176 175.124 616.962 175.353 616.799 175.635C616.651 175.901 616.577 176.219 616.577 176.589V184.533H614.802ZM631.719 184.8C630.935 184.8 630.225 184.659 629.589 184.378C628.968 184.097 628.428 183.697 627.969 183.18C627.525 182.647 627.178 182.018 626.926 181.293C626.689 180.554 626.571 179.725 626.571 178.808C626.571 177.905 626.689 177.084 626.926 176.345C627.178 175.605 627.525 174.976 627.969 174.458C628.428 173.926 628.968 173.519 629.589 173.238C630.225 172.957 630.935 172.816 631.719 172.816C632.489 172.816 633.177 172.957 633.783 173.238C634.39 173.519 634.908 173.911 635.337 174.414C635.766 174.902 636.091 175.487 636.313 176.167C636.55 176.848 636.668 177.595 636.668 178.408V179.252H628.435V179.784C628.435 180.273 628.509 180.731 628.657 181.16C628.82 181.574 629.042 181.937 629.323 182.248C629.619 182.558 629.974 182.802 630.388 182.98C630.817 183.157 631.298 183.246 631.83 183.246C632.555 183.246 633.184 183.076 633.717 182.736C634.264 182.396 634.686 181.907 634.981 181.271L636.246 182.181C635.877 182.965 635.3 183.601 634.515 184.089C633.731 184.563 632.799 184.8 631.719 184.8ZM631.719 174.303C631.231 174.303 630.787 174.392 630.388 174.569C629.988 174.732 629.641 174.969 629.345 175.28C629.064 175.59 628.842 175.96 628.679 176.389C628.516 176.803 628.435 177.262 628.435 177.765V177.92H634.76V177.676C634.76 176.655 634.478 175.842 633.916 175.235C633.369 174.614 632.637 174.303 631.719 174.303ZM653.803 182.714C653.641 182.906 653.433 183.128 653.182 183.379C652.93 183.616 652.62 183.838 652.25 184.045C651.895 184.252 651.466 184.43 650.963 184.578C650.475 184.726 649.92 184.8 649.298 184.8C648.529 184.8 647.849 184.689 647.257 184.467C646.665 184.245 646.169 183.942 645.77 183.557C645.371 183.157 645.067 182.699 644.86 182.181C644.653 181.663 644.549 181.108 644.549 180.517C644.549 179.94 644.638 179.429 644.816 178.985C644.993 178.542 645.23 178.15 645.526 177.809C645.837 177.454 646.177 177.144 646.547 176.877C646.931 176.611 647.323 176.367 647.723 176.145C647.19 175.583 646.761 175.013 646.436 174.436C646.125 173.844 645.97 173.201 645.97 172.506C645.97 171.988 646.066 171.5 646.258 171.041C646.451 170.582 646.717 170.19 647.057 169.865C647.412 169.525 647.834 169.258 648.322 169.066C648.825 168.874 649.38 168.777 649.986 168.777C650.534 168.777 651.037 168.859 651.495 169.022C651.954 169.184 652.346 169.414 652.672 169.709C652.997 169.991 653.248 170.338 653.426 170.752C653.618 171.167 653.715 171.618 653.715 172.106C653.715 172.624 653.618 173.09 653.426 173.504C653.248 173.904 652.997 174.273 652.672 174.614C652.346 174.954 651.969 175.272 651.54 175.568C651.111 175.849 650.652 176.123 650.164 176.389L653.648 180.139C653.87 179.577 654.04 178.978 654.158 178.342C654.277 177.706 654.351 177.055 654.38 176.389H657.398V177.898H655.823C655.719 178.549 655.579 179.163 655.401 179.74C655.224 180.302 655.009 180.827 654.758 181.316L657.776 184.533H655.468L653.803 182.714ZM649.898 170.264C649.261 170.264 648.736 170.464 648.322 170.863C647.923 171.263 647.723 171.758 647.723 172.35V172.617C647.723 173.06 647.856 173.512 648.122 173.97C648.403 174.414 648.766 174.887 649.21 175.39C649.565 175.198 649.905 174.998 650.23 174.791C650.571 174.569 650.867 174.333 651.118 174.081C651.384 173.83 651.599 173.571 651.762 173.304C651.924 173.023 652.006 172.727 652.006 172.417V172.151C652.006 171.544 651.791 171.078 651.362 170.752C650.948 170.427 650.46 170.264 649.898 170.264ZM649.454 183.246C650.208 183.246 650.859 183.106 651.407 182.825C651.954 182.529 652.42 182.137 652.805 181.648L648.655 177.166C648.359 177.329 648.07 177.499 647.789 177.676C647.523 177.854 647.286 178.068 647.079 178.32C646.872 178.556 646.702 178.838 646.569 179.163C646.451 179.474 646.391 179.844 646.391 180.273V180.605C646.391 181.419 646.665 182.063 647.212 182.536C647.775 183.01 648.522 183.246 649.454 183.246ZM523.817 208.8C523.018 208.8 522.301 208.659 521.664 208.378C521.028 208.097 520.488 207.697 520.044 207.18C519.615 206.662 519.282 206.033 519.046 205.293C518.824 204.554 518.713 203.725 518.713 202.808C518.713 201.891 518.824 201.062 519.046 200.323C519.282 199.583 519.615 198.954 520.044 198.436C520.488 197.918 521.028 197.519 521.664 197.238C522.301 196.957 523.018 196.816 523.817 196.816C524.956 196.816 525.866 197.068 526.546 197.571C527.242 198.059 527.76 198.703 528.1 199.501L526.613 200.256C526.406 199.664 526.066 199.206 525.592 198.88C525.119 198.555 524.527 198.392 523.817 198.392C523.284 198.392 522.818 198.481 522.419 198.658C522.019 198.821 521.687 199.058 521.42 199.368C521.154 199.664 520.954 200.027 520.821 200.456C520.688 200.87 520.621 201.329 520.621 201.832V203.784C520.621 204.79 520.888 205.619 521.42 206.27C521.968 206.906 522.767 207.224 523.817 207.224C525.252 207.224 526.288 206.558 526.924 205.227L528.211 206.092C527.841 206.921 527.286 207.579 526.546 208.067C525.822 208.556 524.912 208.8 523.817 208.8ZM534.914 208.8C534.145 208.8 533.442 208.659 532.806 208.378C532.17 208.097 531.622 207.697 531.164 207.18C530.72 206.647 530.372 206.018 530.121 205.293C529.869 204.554 529.744 203.725 529.744 202.808C529.744 201.905 529.869 201.084 530.121 200.345C530.372 199.605 530.72 198.976 531.164 198.458C531.622 197.926 532.17 197.519 532.806 197.238C533.442 196.957 534.145 196.816 534.914 196.816C535.684 196.816 536.379 196.957 537 197.238C537.636 197.519 538.184 197.926 538.642 198.458C539.101 198.976 539.456 199.605 539.708 200.345C539.959 201.084 540.085 201.905 540.085 202.808C540.085 203.725 539.959 204.554 539.708 205.293C539.456 206.018 539.101 206.647 538.642 207.18C538.184 207.697 537.636 208.097 537 208.378C536.379 208.659 535.684 208.8 534.914 208.8ZM534.914 207.224C535.876 207.224 536.66 206.928 537.266 206.336C537.873 205.745 538.176 204.842 538.176 203.629V201.987C538.176 200.774 537.873 199.871 537.266 199.28C536.66 198.688 535.876 198.392 534.914 198.392C533.953 198.392 533.168 198.688 532.562 199.28C531.955 199.871 531.652 200.774 531.652 201.987V203.629C531.652 204.842 531.955 205.745 532.562 206.336C533.168 206.928 533.953 207.224 534.914 207.224ZM547.332 208.8C546.563 208.8 545.86 208.659 545.224 208.378C544.588 208.097 544.04 207.697 543.582 207.18C543.138 206.647 542.79 206.018 542.539 205.293C542.287 204.554 542.161 203.725 542.161 202.808C542.161 201.905 542.287 201.084 542.539 200.345C542.79 199.605 543.138 198.976 543.582 198.458C544.04 197.926 544.588 197.519 545.224 197.238C545.86 196.957 546.563 196.816 547.332 196.816C548.101 196.816 548.796 196.957 549.418 197.238C550.054 197.519 550.601 197.926 551.06 198.458C551.519 198.976 551.874 199.605 552.125 200.345C552.377 201.084 552.502 201.905 552.502 202.808C552.502 203.725 552.377 204.554 552.125 205.293C551.874 206.018 551.519 206.647 551.06 207.18C550.601 207.697 550.054 208.097 549.418 208.378C548.796 208.659 548.101 208.8 547.332 208.8ZM547.332 207.224C548.293 207.224 549.078 206.928 549.684 206.336C550.291 205.745 550.594 204.842 550.594 203.629V201.987C550.594 200.774 550.291 199.871 549.684 199.28C549.078 198.688 548.293 198.392 547.332 198.392C546.37 198.392 545.586 198.688 544.98 199.28C544.373 199.871 544.07 200.774 544.07 201.987V203.629C544.07 204.842 544.373 205.745 544.98 206.336C545.586 206.928 546.37 207.224 547.332 207.224ZM555.422 208.533V197.083H557.197V199.191H557.308C557.516 198.643 557.885 198.155 558.418 197.726C558.951 197.297 559.683 197.083 560.615 197.083H561.303V198.858H560.26C559.298 198.858 558.544 199.043 557.996 199.413C557.464 199.768 557.197 200.219 557.197 200.766V208.533H555.422ZM570.764 206.669H570.675C569.98 208.089 568.863 208.8 567.324 208.8C566.614 208.8 565.97 208.659 565.393 208.378C564.816 208.097 564.321 207.697 563.907 207.18C563.507 206.662 563.196 206.033 562.975 205.293C562.767 204.554 562.664 203.725 562.664 202.808C562.664 201.891 562.767 201.062 562.975 200.323C563.196 199.583 563.507 198.954 563.907 198.436C564.321 197.918 564.816 197.519 565.393 197.238C565.97 196.957 566.614 196.816 567.324 196.816C568.123 196.816 568.803 196.994 569.366 197.349C569.943 197.689 570.379 198.222 570.675 198.947H570.764V192.112H572.539V208.533H570.764V206.669ZM567.812 207.202C568.212 207.202 568.589 207.15 568.944 207.047C569.314 206.943 569.632 206.795 569.898 206.603C570.165 206.396 570.372 206.151 570.52 205.87C570.682 205.574 570.764 205.242 570.764 204.872V200.611C570.764 200.3 570.682 200.012 570.52 199.746C570.372 199.464 570.165 199.228 569.898 199.035C569.632 198.843 569.314 198.695 568.944 198.592C568.589 198.473 568.212 198.414 567.812 198.414C566.806 198.414 566.015 198.732 565.438 199.368C564.861 199.99 564.572 200.811 564.572 201.832V203.784C564.572 204.805 564.861 205.634 565.438 206.27C566.015 206.891 566.806 207.202 567.812 207.202ZM577.201 194.397C576.816 194.397 576.535 194.309 576.358 194.131C576.195 193.939 576.114 193.695 576.114 193.399V193.11C576.114 192.814 576.195 192.578 576.358 192.4C576.535 192.208 576.816 192.112 577.201 192.112C577.586 192.112 577.859 192.208 578.022 192.4C578.2 192.578 578.288 192.814 578.288 193.11V193.399C578.288 193.695 578.2 193.939 578.022 194.131C577.859 194.309 577.586 194.397 577.201 194.397ZM576.313 197.083H578.089V208.533H576.313V197.083ZM581.861 208.533V197.083H583.636V198.947H583.725C584.006 198.296 584.398 197.778 584.901 197.393C585.419 197.009 586.107 196.816 586.965 196.816C588.149 196.816 589.081 197.201 589.761 197.97C590.457 198.725 590.804 199.797 590.804 201.188V208.533H589.029V201.499C589.029 199.442 588.164 198.414 586.433 198.414C586.078 198.414 585.73 198.458 585.39 198.547C585.064 198.636 584.768 198.769 584.502 198.947C584.236 199.124 584.021 199.353 583.858 199.635C583.71 199.901 583.636 200.219 583.636 200.589V208.533H581.861ZM602.796 208.533C602.13 208.533 601.649 208.356 601.353 208.001C601.072 207.646 600.895 207.202 600.821 206.669H600.71C600.458 207.379 600.044 207.912 599.467 208.267C598.89 208.622 598.202 208.8 597.403 208.8C596.19 208.8 595.243 208.489 594.563 207.868C593.897 207.246 593.564 206.403 593.564 205.338C593.564 204.258 593.956 203.429 594.74 202.852C595.539 202.275 596.774 201.987 598.446 201.987H600.71V200.855C600.71 200.041 600.488 199.42 600.044 198.991C599.6 198.562 598.92 198.347 598.002 198.347C597.307 198.347 596.723 198.503 596.249 198.813C595.791 199.124 595.406 199.538 595.095 200.056L594.03 199.058C594.341 198.436 594.836 197.911 595.517 197.482C596.197 197.038 597.055 196.816 598.091 196.816C599.482 196.816 600.562 197.157 601.331 197.837C602.1 198.518 602.485 199.464 602.485 200.678V206.98H603.794V208.533H602.796ZM597.692 207.291C598.135 207.291 598.542 207.239 598.912 207.135C599.282 207.032 599.6 206.884 599.866 206.691C600.133 206.499 600.34 206.277 600.488 206.026C600.636 205.774 600.71 205.5 600.71 205.205V203.318H598.357C597.337 203.318 596.589 203.466 596.116 203.762C595.657 204.058 595.428 204.487 595.428 205.049V205.515C595.428 206.077 595.628 206.514 596.027 206.825C596.441 207.135 596.996 207.291 597.692 207.291ZM606.328 208.533V197.083H608.103V198.947H608.192C608.325 198.651 608.473 198.377 608.636 198.126C608.813 197.859 609.021 197.63 609.257 197.438C609.509 197.245 609.797 197.097 610.123 196.994C610.448 196.875 610.833 196.816 611.277 196.816C612.031 196.816 612.727 197.001 613.363 197.371C613.999 197.726 614.472 198.318 614.783 199.146H614.827C615.034 198.525 615.419 197.985 615.981 197.526C616.558 197.053 617.335 196.816 618.311 196.816C619.48 196.816 620.39 197.201 621.041 197.97C621.707 198.725 622.04 199.797 622.04 201.188V208.533H620.264V201.499C620.264 200.478 620.065 199.709 619.665 199.191C619.266 198.673 618.629 198.414 617.757 198.414C617.402 198.414 617.061 198.458 616.736 198.547C616.425 198.636 616.144 198.769 615.893 198.947C615.641 199.124 615.441 199.353 615.293 199.635C615.145 199.901 615.071 200.219 615.071 200.589V208.533H613.296V201.499C613.296 200.478 613.096 199.709 612.697 199.191C612.298 198.673 611.676 198.414 610.833 198.414C610.478 198.414 610.138 198.458 609.812 198.547C609.487 198.636 609.198 198.769 608.947 198.947C608.695 199.124 608.488 199.353 608.325 199.635C608.177 199.901 608.103 200.219 608.103 200.589V208.533H606.328ZM630.007 208.8C629.223 208.8 628.513 208.659 627.877 208.378C627.256 208.097 626.716 207.697 626.257 207.18C625.813 206.647 625.465 206.018 625.214 205.293C624.977 204.554 624.859 203.725 624.859 202.808C624.859 201.905 624.977 201.084 625.214 200.345C625.465 199.605 625.813 198.976 626.257 198.458C626.716 197.926 627.256 197.519 627.877 197.238C628.513 196.957 629.223 196.816 630.007 196.816C630.777 196.816 631.465 196.957 632.071 197.238C632.678 197.519 633.195 197.911 633.625 198.414C634.054 198.902 634.379 199.487 634.601 200.167C634.838 200.848 634.956 201.595 634.956 202.408V203.252H626.723V203.784C626.723 204.273 626.797 204.731 626.945 205.16C627.108 205.574 627.33 205.937 627.611 206.248C627.907 206.558 628.262 206.802 628.676 206.98C629.105 207.157 629.586 207.246 630.118 207.246C630.843 207.246 631.472 207.076 632.005 206.736C632.552 206.396 632.974 205.907 633.269 205.271L634.534 206.181C634.165 206.965 633.588 207.601 632.803 208.089C632.019 208.563 631.087 208.8 630.007 208.8ZM630.007 198.303C629.519 198.303 629.075 198.392 628.676 198.569C628.276 198.732 627.929 198.969 627.633 199.28C627.352 199.59 627.13 199.96 626.967 200.389C626.804 200.803 626.723 201.262 626.723 201.765V201.92H633.048V201.676C633.048 200.655 632.766 199.842 632.204 199.235C631.657 198.614 630.925 198.303 630.007 198.303ZM637.881 208.533V197.083H639.657V198.947H639.746C640.027 198.296 640.419 197.778 640.922 197.393C641.439 197.009 642.127 196.816 642.985 196.816C644.169 196.816 645.101 197.201 645.782 197.97C646.477 198.725 646.825 199.797 646.825 201.188V208.533H645.049V201.499C645.049 199.442 644.184 198.414 642.453 198.414C642.098 198.414 641.75 198.458 641.41 198.547C641.084 198.636 640.789 198.769 640.522 198.947C640.256 199.124 640.041 199.353 639.879 199.635C639.731 199.901 639.657 200.219 639.657 200.589V208.533H637.881ZM653.024 208.533C652.403 208.533 651.929 208.363 651.604 208.023C651.293 207.668 651.138 207.209 651.138 206.647V198.636H649.251V197.083H650.317C650.701 197.083 650.96 197.009 651.093 196.861C651.241 196.698 651.315 196.424 651.315 196.04V193.909H652.913V197.083H655.421V198.636H652.913V206.98H655.243V208.533H653.024ZM662.515 208.8C661.745 208.8 661.043 208.659 660.407 208.378C659.77 208.097 659.223 207.697 658.764 207.18C658.321 206.647 657.973 206.018 657.721 205.293C657.47 204.554 657.344 203.725 657.344 202.808C657.344 201.905 657.47 201.084 657.721 200.345C657.973 199.605 658.321 198.976 658.764 198.458C659.223 197.926 659.77 197.519 660.407 197.238C661.043 196.957 661.745 196.816 662.515 196.816C663.284 196.816 663.979 196.957 664.601 197.238C665.237 197.519 665.784 197.926 666.243 198.458C666.702 198.976 667.057 199.605 667.308 200.345C667.56 201.084 667.685 201.905 667.685 202.808C667.685 203.725 667.56 204.554 667.308 205.293C667.057 206.018 666.702 206.647 666.243 207.18C665.784 207.697 665.237 208.097 664.601 208.378C663.979 208.659 663.284 208.8 662.515 208.8ZM662.515 207.224C663.476 207.224 664.261 206.928 664.867 206.336C665.474 205.745 665.777 204.842 665.777 203.629V201.987C665.777 200.774 665.474 199.871 664.867 199.28C664.261 198.688 663.476 198.392 662.515 198.392C661.553 198.392 660.769 198.688 660.162 199.28C659.556 199.871 659.253 200.774 659.253 201.987V203.629C659.253 204.842 659.556 205.745 660.162 206.336C660.769 206.928 661.553 207.224 662.515 207.224Z" fill="#E6E4D9"/>
</g>
<defs>
<filter id="filter0_d_990_16469" x="0.138672" y="0.138672" width="797.723" height="562.961" filterUnits="userSpaceOnUse" color-interpolation-filters="sRGB">
<feFlood flood-opacity="0" result="BackgroundImageFix"/>
<feColorMatrix in="SourceAlpha" type="matrix" values="0 0 0 0 0 0 0 0 0 0 0 0 0 0 0 0 0 0 127 0" result="hardAlpha"/>
<feMorphology radius="7.00781" operator="dilate" in="SourceAlpha" result="effect1_dropShadow_990_16469"/>
<feOffset/>
<feGaussianBlur stdDeviation="46.4268"/>
<feComposite in2="hardAlpha" operator="out"/>
<feColorMatrix type="matrix" values="0 0 0 0 0 0 0 0 0 0 0 0 0 0 0 0 0 0 0.18 0"/>
<feBlend mode="normal" in2="BackgroundImageFix" result="effect1_dropShadow_990_16469"/>
<feBlend mode="normal" in="SourceGraphic" in2="effect1_dropShadow_990_16469" result="shape"/>
</filter>
</defs>
</svg>
