<svg width="59" height="75" viewBox="0 0 59 75" fill="none" xmlns="http://www.w3.org/2000/svg">
<g clip-path="url(#clip0_185_110)">
<path fill-rule="evenodd" clip-rule="evenodd" d="M1.2334 2.78711H58.6449V57.6246C58.6336 61.3126 57.9522 64.8601 56.1141 67.3692H56.1038L1.2334 2.78711Z" fill="#CC2229"/>
<path fill-rule="evenodd" clip-rule="evenodd" d="M1.24316 2.94727H1.33011L56.2099 67.5186C54.5874 69.7359 52.0567 71.1422 48.2813 71.1314L37.206 71.0882C34.773 71.0769 32.6201 71.8663 30.7599 73.9652C29.2779 71.8333 26.9417 70.9575 23.7621 70.9678L14.9469 71.0332C5.53731 71.0877 1.24316 66.7179 1.24316 57.7735V2.94727Z" fill="#FFF22D"/>
<path fill-rule="evenodd" clip-rule="evenodd" d="M1.05664 2.73438V57.8907C1.05664 66.8773 5.37584 71.2722 14.8404 71.2177L23.7067 71.1641C26.9158 71.142 29.2549 72.0228 30.7453 74.1659C32.6276 72.067 34.7815 71.2619 37.2405 71.2722L48.3811 71.3154C56.4748 71.3478 58.8905 64.8541 58.9116 57.8907V2.73438H1.05664ZM57.943 61.6121L58.0304 61.0133L58.1061 60.4042L58.1503 59.7843L58.1935 59.1531L58.2146 58.5219L58.2259 57.8799V3.41961H1.74188V57.8799L1.75268 58.6963L1.79591 59.4793L1.85043 60.2293L1.93738 60.948L2.04643 61.6435L2.18789 62.3076L2.35098 62.9496L2.53567 63.5587L2.74247 64.1354L2.97088 64.691L3.2322 65.2234L3.51514 65.7245L3.81969 66.1916L4.14585 66.6376L4.50443 67.0625L4.88512 67.454L5.28791 67.8347L5.72312 68.183L6.17994 68.5091L6.66968 68.8029L7.18103 69.0858L7.72479 69.3354L8.30098 69.5648L8.89927 69.7711L9.53047 69.9562L10.2054 70.109L10.8906 70.25L11.6196 70.3477L12.381 70.4352L13.1644 70.4897L13.9911 70.5221L14.8399 70.5324L23.7063 70.4779H24.0216L24.3262 70.4892L24.6199 70.4995L24.9245 70.5098L25.2074 70.5423L25.5011 70.5644L25.7841 70.6076L26.067 70.6518L26.3386 70.695L26.6108 70.7495L26.8721 70.8149L27.1334 70.8802L27.3943 70.9558L27.6448 71.0433L27.8948 71.1307L28.134 71.2285L28.3732 71.3262L28.6016 71.4348L28.8296 71.5546L29.058 71.6853L29.2756 71.816L29.4824 71.9569L29.6995 72.0989L29.8955 72.262L30.091 72.4251L30.287 72.5989L30.4717 72.7733L30.6456 72.9585L30.7983 73.1324L30.8086 73.1221L31.0051 72.9369L31.2006 72.7625L31.3961 72.5886L31.6024 72.4359L31.8097 72.2728L32.0052 72.1318L32.2228 71.9898L32.4291 71.8592L32.6354 71.7285L32.853 71.6087L33.0707 71.5001L33.2883 71.4024L33.5059 71.3046L33.7225 71.2068L33.9519 71.1194L34.1803 71.0438L34.4087 70.9784L34.6371 70.9131L34.8655 70.8478L35.0939 70.8036L35.3224 70.75L35.5621 70.7176L35.8008 70.6734L36.0292 70.6523L36.2689 70.6302L36.5076 70.6081L36.7473 70.5978L36.9979 70.5874H37.2366L48.3654 70.6307L49.084 70.6203L49.7585 70.5658L50.3897 70.4902L50.9978 70.3703L51.5745 70.2176L52.1182 70.0437L52.6296 69.8364L53.1198 69.608L53.5766 69.3471L54.0005 69.0642L54.4141 68.7484L54.7948 68.4222L55.1534 68.0636L55.4914 67.6829L55.8062 67.2801L56.101 66.8562L56.3726 66.4102L56.6231 65.9431L56.8515 65.4641L57.0691 64.9528L57.2543 64.4414L57.4282 63.8977L57.581 63.3539L57.7219 62.788L57.8418 62.201L57.943 61.6121Z" fill="black"/>
<path fill-rule="evenodd" clip-rule="evenodd" d="M26.763 44.5526L26.7959 44.5309C22.7925 46.9786 19.3978 48.9803 15.4377 48.6541L15.2097 48.774H15.1007L15.0467 48.8285C15.0467 48.8821 15.1007 49.0569 15.1007 49.1105C22.542 48.2076 22.346 51.9177 26.0124 52.853C26.9482 53.0814 27.8726 53.7126 28.8953 53.7126C29.5913 53.7126 30.8759 53.6473 31.3651 54.1365C31.7237 54.4951 31.6259 55.0939 31.6913 55.6485C31.6913 56.4103 31.4628 57.9547 31.789 58.608C32.376 59.7834 32.431 61.654 31.5606 62.5892C31.2448 62.9375 31.1028 63.5142 30.6686 63.8074C30.5379 63.9052 30.5379 64.4062 30.3424 64.6017C30.0487 64.8955 29.4283 65.0256 29.0913 64.6995C28.7976 64.4057 28.8958 63.4813 28.8958 63.0569C28.8958 62.2297 28.5691 61.6417 28.1452 61.0439C28.1452 60.7831 26.927 58.5417 26.6549 58.4115C25.0123 57.5951 24.022 56.9099 21.9879 56.5071C20.1822 56.1485 16.092 54.6361 14.4489 54.528C14.0574 54.5059 10.0427 52.9827 9.48815 52.9827C7.63875 52.9827 6.98594 52.2326 6.98594 50.5134C6.98594 47.7179 9.97789 47.2611 11.0006 45.2265C13.8614 41.8539 16.5596 39.7323 19.1487 38.634C19.1487 38.4925 19.7249 37.655 19.8124 37.5464C19.9101 37.4266 20.5084 35.6641 20.1931 35.6641C19.3988 35.6641 17.1034 37.1982 17.1034 37.122C17.1034 36.5238 17.3318 35.9255 17.68 35.4573C18.659 34.1738 16.2988 35.3704 15.9937 35.7619C15.7329 36.0885 15.0147 36.8283 15.058 37.2743C14.6665 37.655 14.2858 39.026 14.2858 37.8402C14.2858 37.405 13.1761 38.8953 12.991 39.026C12.7301 39.2107 11.3376 39.9072 11.8052 39.5476C12.1643 39.2868 13.1761 38.1447 11.9899 38.7425C11.3154 39.08 9.43314 39.6675 9.47685 39.6454C11.62 38.5903 10.1729 38.8187 8.93308 39.3079C8.62854 39.4386 6.61557 39.6454 7.05078 39.6233C7.74682 39.5692 9.53089 38.383 8.23655 38.6335C7.85587 38.7204 7.49679 39.1556 7.18144 39.2097C7.08369 39.2318 6.0718 39.4165 6.25698 39.3079C6.40926 39.2097 6.61557 39.1011 6.69219 38.9488C6.74672 38.8398 6.89899 38.5574 6.69219 38.688C6.35473 38.8948 5.29962 39.2863 5.65869 38.742C5.84339 38.4812 5.39737 38.7966 5.35414 38.7966C4.2445 39.1556 4.41839 38.6335 5.278 38.4267C5.78935 38.3068 6.38764 37.6869 6.97562 37.5022C8.62903 36.9585 6.7143 36.0335 6.09439 37.2738C6.74721 36.621 6.71479 36.1858 7.87846 35.9029C8.75969 35.6961 9.43412 34.5864 7.78071 35.1307C7.36711 35.2613 8.34609 34.5216 8.42272 34.4671C8.83632 34.1841 10.3591 34.0319 10.0545 33.7165C9.86982 33.5421 9.22732 33.379 9.24942 33.3358C9.45622 33.02 10.5659 33.1727 10.9574 33.1727C11.1858 33.1727 12.2414 33.4557 12.2414 33.2051C12.2414 32.8461 11.0011 32.8137 10.7943 32.8137C10.4568 32.8137 11.1317 32.7375 11.1858 32.7375C12.8937 32.7375 14.471 33.662 16.0379 33.662C15.3198 33.0529 15.026 32.433 15.1675 31.8126C18.018 32.683 21.1838 31.9216 23.7076 32.4654C24.4253 30.9967 25.5025 30.3552 26.732 30.0938C26.6672 26.7212 27.2434 23.5662 28.7342 20.7162C28.8865 20.39 28.549 19.6065 28.3098 20.5207C27.7228 22.8161 26.3302 24.3717 23.8059 25.2206C21.9349 25.6337 19.9985 27.0262 18.4753 28.9085C17.9202 29.583 16.4515 32.237 14.0692 30.6705C13.6885 30.4205 13.6561 29.8875 12.6766 29.4631C11.785 29.0716 10.2942 28.7563 9.64141 28.299C9.33686 28.0814 8.93456 27.8421 8.76018 27.5808C8.53177 27.2434 8.53177 26.8956 8.22722 26.7109C7.60732 26.3189 7.30277 25.9058 7.26985 25.7206C6.92159 24.0888 7.3568 23.5775 8.56419 24.1974C10.3699 25.1223 12.3067 26.0905 14.3845 25.3507C16.7345 24.524 18.2793 22.0218 20.5747 19.6719C23.0332 17.1588 25.5462 15.4509 27.4723 13.3402C29.5933 11.0119 31.791 10.9902 33.075 14.4061C34.892 19.2578 36.0665 24.5127 36.3936 30.2024C36.9261 30.5182 37.405 31.0404 37.8289 31.758C37.8289 31.2251 38.6998 30.2785 38.8413 29.5275C39.0368 28.5485 38.9941 27.0361 38.6561 26.1332C38.2101 24.9691 37.6447 23.1201 37.906 21.76C37.906 20.8572 37.9817 22.4452 38.3196 21.956C38.8089 21.2378 38.6237 20.2913 38.6237 19.4209C38.6237 19.1595 38.8413 18.1806 38.8413 18.855C38.8413 18.9748 38.7656 20.672 39.1896 20.2584C39.6788 19.7686 39.4833 18.8221 39.4833 18.1039C39.4833 17.7665 39.7549 16.9727 39.7549 17.7994V19.3875C39.7549 20.0295 40.201 19.159 40.201 18.8977V17.1574C40.201 16.8965 40.3208 16.7438 40.3208 17.0483C40.3208 17.2767 40.7668 18.2233 40.9952 18.2233C41.4521 18.2233 41.148 17.0483 41.1804 16.7438C41.1804 17.1574 41.8981 18.2562 42.0833 18.7459C42.1589 18.9743 42.464 20.5516 42.6924 19.8448C43.2911 18.0278 42.8451 21.0089 42.8451 21.3135C42.8451 22.5209 43.5196 21.3896 43.7047 21.5748C43.9332 21.8032 43.106 24.1424 43.3344 24.1424C43.857 24.1424 43.9332 23.6094 43.7047 24.327C43.3344 25.5349 41.2566 27.0036 41.2566 27.9826C41.2566 28.7332 40.8872 29.2661 40.6917 29.832C41.8008 29.3423 42.9109 28.1133 44.0314 26.5576C43.8894 29.8536 42.3343 32.2581 39.3536 33.7705C41.3445 35.3586 42.5195 37.8608 42.9006 41.2443C44.8262 42.5931 46.6643 44.0839 48.133 46.2055C48.4591 46.6726 48.8506 46.2929 48.5137 45.8896C46.4359 43.4527 46.2944 41.1244 46.6638 38.5023C47.012 35.9893 46.2399 33.7047 45.2496 31.7467C43.7377 29.4734 44.5098 28.3309 47.5445 28.3309C49.2741 25.9048 51.6029 25.1759 54.333 25.6111C55.4653 25.7854 55.2147 25.9485 54.4426 26.623C51.9944 28.7008 49.9382 30.8331 51.0154 34.4125C52.2336 38.4267 53.5829 42.4521 54.333 47.0106C55.8892 49.9264 55.0075 53.1246 52.2444 52.7218C44.8463 51.6446 38.7111 49.415 33.9238 46.2384C33.2818 46.2384 33.3471 47.4895 33.3471 48.0544C33.3471 48.7077 34.4352 49.3821 34.4352 49.5781C34.4352 49.9917 33.6197 49.6213 33.6522 49.6538C33.7931 49.7844 33.9572 50.0565 34.1635 50.1548C34.4022 50.2633 34.7726 50.4917 34.9686 50.6337C35.4475 50.9378 36.4584 51.4388 37.0361 51.5144C38.0146 51.5144 37.2424 51.8524 36.7964 51.9501C36.6009 51.9826 34.5658 51.8848 35.0447 52.352C36.0571 53.3747 37.2753 53.4071 38.7327 53.4071C39.5059 53.4071 40.1803 53.5387 40.8548 53.745C41.5724 53.9847 42.3122 55.0939 42.9213 55.2358C42.9213 55.5728 41.9752 55.0615 42.3122 55.3989C42.8235 55.9103 43.4002 56.149 44.0093 56.5523C44.0093 56.5523 45.0865 57.129 44.5103 57.129C44.2377 57.129 43.5633 56.5199 43.8683 57.1614C43.9336 57.292 45.6632 58.3472 45.0865 58.3147C43.3997 58.1404 45.1518 58.5864 45.7285 58.9567C45.8695 59.0545 46.707 59.7618 46.0326 59.4239C45.9348 59.3915 45.6956 59.1198 45.5979 59.1198C44.4445 59.0221 44.2372 59.6636 45.1518 59.8375C45.4235 59.8699 43.8683 59.8051 43.3241 59.4568C43.3241 59.4568 42.8884 59.2284 42.8884 59.359C42.8884 59.6317 43.2263 59.9028 43.465 59.9681C44.4445 60.2732 42.715 60.2079 42.2468 59.9681C41.3661 59.5334 40.0826 59.1527 41.6377 60.2079C42.3446 60.675 39.2009 58.9567 39.2009 59.1527C39.2009 59.7294 39.2009 59.6317 38.3525 59.0874C37.8191 58.7495 37.0361 58.4783 36.7311 57.8363C36.089 56.5199 35.3822 55.508 34.4352 54.3875C34.5015 54.5182 34.5329 54.5182 34.5329 54.6601V56.6834C34.1959 56.5528 33.184 54.7569 33.0102 54.3551C32.6722 53.5068 32.0307 52.9954 31.454 52.4296C31.3233 52.2886 31.0846 52.2886 30.8449 52.2886C30.4102 52.2886 29.6591 52.5926 30.2687 51.9836C30.4107 51.8529 30.8788 51.8858 30.8788 51.6456C30.8788 51.1352 28.9199 52.2223 28.9199 50.7324C28.7784 50.4284 28.8113 49.3836 28.8874 49.0456C28.9199 48.8069 29.0505 47.8923 28.8545 47.7621C28.2779 47.3814 28.7455 45.8587 28.4738 45.728C28.2454 45.6298 27.0597 44.8792 27.0597 44.6071C27.0489 44.5963 27.038 44.5747 27.0159 44.553C27.0012 44.5394 26.982 44.5317 26.9619 44.5314C26.9403 44.5314 26.8421 44.5638 26.8312 44.5422C26.8312 44.5422 26.7988 44.5206 26.7988 44.5314C26.7988 44.5314 26.7988 44.5422 26.788 44.5422C26.7851 44.5417 26.7743 44.5526 26.763 44.5526Z" fill="white"/>
<path fill-rule="evenodd" clip-rule="evenodd" d="M34.6724 37.1004C35.4554 39.8094 35.0207 42.4423 32.04 44.9445C31.2782 45.532 30.3753 45.5207 29.3197 44.9121C27.2527 42.91 26.2737 40.6258 26.3828 38.0362C26.3828 36.0669 28.5367 36.176 29.8424 35.7624C30.0708 35.697 30.702 35.2834 30.81 35.2834C30.9196 35.2834 31.6264 35.697 31.8116 35.7295C32.8878 35.9903 34.1503 36.0232 34.6724 37.1004ZM31.6696 39.6788C31.6696 39.6356 31.6264 39.4941 31.6696 39.472C31.7242 39.4612 31.8652 39.4175 31.9423 39.4612C32.0287 39.4936 32.1054 39.6139 32.1589 39.6788C32.1589 39.6788 32.181 39.7333 32.2031 39.7333C32.2463 39.7549 32.3986 39.8094 32.4639 39.8311C32.4964 39.8527 32.6167 39.8311 32.6594 39.8748C32.7027 39.918 32.7027 39.9509 32.7027 40.0162C32.7027 40.0708 32.6815 40.0924 32.6162 40.0924H32.3765C32.323 40.0924 32.0395 39.8748 32.0071 39.8311C31.9629 39.7981 31.6696 39.7112 31.6696 39.6788ZM29.472 41.5169C29.4288 41.2561 29.5702 40.9839 29.8094 41.2231C29.9617 41.3754 29.6464 41.6908 29.9833 41.8538C30.2555 41.9953 31.0497 42.1697 31.3106 41.9192C31.7895 41.4403 31.4083 40.9181 31.2885 41.1578C31.0389 41.6908 31.1146 40.309 31.1146 40.2329C31.1146 39.8522 31.0168 38.938 31.147 38.6448C31.593 37.7744 33.16 37.3175 33.9425 38.1118C34.3453 38.5033 34.1601 38.9169 34.0844 38.743C33.7686 38.1118 32.18 38.6016 31.7885 38.7976C31.7129 38.8408 31.5488 39.0805 31.7453 39.0805C31.9619 39.0805 32.2242 38.7867 32.5607 38.7867C32.6806 38.7867 34.0844 38.8845 34.1055 38.9061C34.334 39.1345 34.0181 39.2328 33.5407 39.5157C33.5407 39.5265 33.4311 39.6572 33.268 39.7441C33.1153 39.8311 32.9198 39.8748 32.9095 39.8851C32.8662 39.9175 32.8874 40.0157 32.9095 40.0487C33.0622 40.2122 33.8668 39.9072 33.943 39.7333C33.9543 39.7117 34.2038 39.3418 34.2038 39.6572C34.2038 40.3316 32.9316 40.4515 32.4634 40.4515C31.7669 40.4515 31.7669 39.5918 31.4511 40.5708C31.4299 40.6253 31.93 41.2236 31.93 41.6151C31.93 41.9202 30.9186 42.5077 30.6357 42.3333C30.0049 41.9305 29.7657 42.3004 29.472 41.5169ZM29.6243 43.8565C29.6243 43.5844 30.027 43.8565 30.0595 43.8781C30.2225 43.9538 31.093 44.0952 31.2673 43.9759C31.3106 43.9543 31.5493 43.8344 31.6043 43.8344C31.8652 43.8344 31.6475 44.2151 31.4516 44.2151C31.4083 44.2151 31.0719 44.4106 31.0168 44.4322C30.8213 44.5304 30.2771 44.4106 30.1248 44.3345C29.9072 44.2372 29.6243 44.139 29.6243 43.8565ZM28.7538 42.964C28.8958 42.5504 29.4071 43.0622 29.6459 43.0622C30.2442 43.0622 30.9726 43.1492 31.6259 43.1492C31.8868 43.1492 32.1049 43.1276 32.3657 43.1276C32.4202 43.1276 32.6594 42.7901 32.8225 42.9424C33.1384 43.2582 32.0607 43.3776 31.9094 43.3776C31.4737 43.3776 30.5816 43.9218 30.1464 43.4758C29.9401 43.2793 28.7106 43.3776 28.7538 42.964ZM27.8186 40.4515C27.6987 40.3861 27.5685 40.3532 27.5685 40.1901C27.5685 40.114 28.0583 40.1901 28.1452 40.1901C28.2975 40.1901 28.6998 40.2447 28.8521 40.2117C29.1674 40.1135 29.4071 40.0157 29.6464 39.7765C29.7225 39.6896 29.8424 39.6896 29.9617 39.6896C30.2776 39.6896 29.7009 40.0482 29.7009 40.0482C29.5702 40.1896 29.0918 40.4289 28.8958 40.5271C28.7759 40.5816 28.4385 40.5487 28.2975 40.5487H28.0254C27.96 40.5492 27.8839 40.4515 27.8186 40.4515ZM27.2856 39.3742C27.068 39.3958 27.0243 38.9174 26.9698 38.7867C26.872 38.5691 26.9482 38.3299 27.1333 38.1447C27.6987 37.5681 28.493 37.5135 29.2873 37.7749C29.385 37.7965 30.2447 38.3299 30.0379 38.5254C30.0054 38.5691 29.5918 38.2646 29.5481 38.2317C29.2657 37.9487 28.1555 37.8731 27.7641 38.0686C27.5464 38.1664 27.3618 38.6998 27.5794 38.6016C28.1998 38.3078 29.2657 38.6016 29.7662 38.939C30.3758 39.3418 29.6031 39.5594 29.4076 39.7554C29.1679 39.9946 28.2219 39.6356 28.0588 39.6356C27.906 39.6356 28.102 39.0805 27.8412 39.0805C27.5464 39.0805 27.6226 39.5918 27.2856 39.3742ZM34.0191 45.3031C38.3496 48.5338 44.0063 50.8518 51.6112 51.8421C54.167 52.1137 55.2442 49.8831 53.7431 48.273C53.1993 43.9651 51.8721 39.5157 50.3591 35.1636C48.9995 31.2472 50.6539 28.8756 53.1335 26.9717C54.0152 26.286 54.3193 26.0797 54.1017 26.0035C53.7323 25.8842 53.3619 25.9603 52.9925 26.2973C51.8824 25.8729 50.8376 26.4388 49.5329 27.2438C49.25 27.4177 49.2171 27.7876 48.8796 28.1035C48.5314 28.4193 47.9114 28.7234 47.52 29.1699C45.8449 29.1802 45.2673 29.7244 45.8007 30.7904C47.2473 32.8466 47.5745 35.4141 47.3893 38.2425C46.149 43.5299 48.8909 44.3236 49.0864 45.5423C49.5865 48.6758 47.1285 46.6196 45.4092 44.2151C44.6592 43.1708 43.6576 42.9095 43.3093 42.9095C42.319 42.8987 40.3832 41.7129 39.7633 41.9197C39.6326 41.9521 37.0002 40.0158 37.0002 41.4629C37.0007 43.606 34.8134 43.6929 34.0191 45.3031ZM38.5235 34.4897C39.2303 34.4897 39.6218 34.359 40.0796 34.7942C40.6563 35.3812 40.6563 36.2845 41.0478 36.9373C41.6898 37.9709 42.016 40.5055 42.016 41.8003C42.016 42.181 41.6898 41.539 41.57 41.4741C41.3745 41.343 40.7216 40.756 40.7216 40.56C40.7216 39.9833 40.59 38.0362 40.2638 37.7095C39.8188 37.2635 39.557 37.1333 38.8393 37.1333C38.5888 37.1333 38.7087 37.1333 38.7087 36.7414C38.7087 36.0993 38.8388 34.9897 38.5235 34.4897ZM39.22 37.8618C39.22 37.6987 39.2303 37.6987 39.3831 37.6987C39.7849 37.6987 39.7638 38.493 39.8831 38.7646C40.0575 39.1021 40.1125 39.5044 40.1558 39.8959C40.199 40.3419 40.787 40.7987 40.787 41.0709C40.787 41.2772 40.7216 41.2123 40.4932 41.2123C39.9274 41.2123 39.7422 39.4828 39.5894 39.1021C39.4479 38.6998 39.22 38.2862 39.22 37.8618ZM38.0888 38.0146V37.8407C38.2951 36.9049 38.436 36.5459 38.436 37.2424C38.436 37.4271 38.4581 37.7208 38.4581 37.8623C38.5235 38.4061 38.8167 38.8305 39.0894 39.2873C39.2524 39.5594 39.4263 40.027 39.4263 40.3645C39.4263 40.3645 39.4484 40.7123 39.3831 40.7123C39.1758 40.6686 39.0672 40.1032 39.0451 39.9617C38.9587 39.5157 38.5662 39.2657 38.3928 38.8521C38.273 38.5362 38.0888 38.3299 38.0888 38.0146ZM37.6639 38.5583C37.6639 38.384 37.6639 38.2425 37.8712 38.3515C38.0018 38.4056 37.9797 38.5362 37.9797 38.6777C37.9797 38.8732 38.0018 39.08 38.0229 39.2652C38.0671 39.5152 38.3933 39.7328 38.3933 40.0266C38.3933 40.4618 37.9144 39.6891 37.8495 39.6238C37.6427 39.4175 37.6639 38.83 37.6639 38.5583ZM36.761 38.493C36.9565 38.6237 37.0336 38.6669 37.0336 38.9174C37.0336 39.1021 37.4576 39.5378 37.5337 39.7333C37.5558 39.7765 37.8166 40.1901 37.5558 40.1901C37.3927 40.1901 37.0223 39.4941 36.9899 39.3958C36.9133 39.1237 36.761 38.7867 36.761 38.493ZM35.9014 38.5146C36.011 38.5146 36.26 38.6669 36.3042 38.743C36.3474 38.8084 36.3916 38.8521 36.4019 38.9169C36.4019 38.9385 36.4452 38.9714 36.4452 38.9931C36.4673 39.1016 36.5326 39.2431 36.5979 39.3516C36.62 39.3954 36.6957 39.4823 36.7178 39.5039C36.761 39.5584 36.9133 39.8738 36.8917 39.9607C36.8264 40.1891 36.5758 39.7977 36.5331 39.776C36.4457 39.7328 36.2826 39.5368 36.2605 39.4607C36.2173 39.3516 36.1298 39.2431 36.0763 39.1448C36.0542 39.1016 35.9888 39.0142 35.9456 38.9493C35.9014 38.8953 35.8361 38.7646 35.8361 38.6772C35.8361 38.6227 35.8361 38.6011 35.8803 38.5578C35.9014 38.5362 35.9235 38.493 35.9014 38.5146ZM35.5856 40.4834C35.5856 40.4402 35.5644 40.364 35.5644 40.3203V40.2329L35.6077 40.1675C35.6077 40.1675 35.673 40.1238 35.6951 40.1238C35.7162 40.1238 35.7816 40.0806 35.7816 40.0806C35.8037 40.0806 35.8258 40.0477 35.8361 40.0261C35.8361 40.0261 35.9014 39.9823 35.9235 39.9823H36.0763L36.1195 40.004L36.1519 40.0472L36.174 40.0801V40.4824L36.1519 40.504L36.1195 40.5477L36.0974 40.5693H36.0763C36.0542 40.5693 35.9888 40.6131 35.9667 40.6131H35.7604C35.7383 40.6131 35.673 40.5693 35.673 40.5693L35.6509 40.5477L35.6298 40.5261V40.5055L35.5856 40.4834ZM35.4446 38.9935C35.5099 39.0368 35.5644 39.189 35.6509 39.2328C35.673 39.2328 35.8253 39.3742 35.8253 39.3742C35.8253 39.3958 35.8798 39.4396 35.9009 39.4396C35.9451 39.4833 36.0316 39.5594 36.0316 39.6243C36.0316 39.6896 35.8253 39.7333 35.7811 39.7333C35.5536 39.7333 35.4873 39.5157 35.4225 39.3742C35.4014 39.331 35.4014 39.2328 35.4014 39.1674C35.4014 39.0805 35.4446 39.0589 35.4446 38.9935ZM34.9986 41.5935C34.9986 41.3651 35.1071 41.1151 35.3365 41.093C35.423 41.093 35.5104 41.0714 35.5861 41.0493C35.7167 41.0276 35.8587 40.9623 36.011 40.9623C36.1519 40.9623 36.1952 41.1794 36.1952 41.2777C36.1952 41.4083 36.1519 41.5061 36.0321 41.5714C35.9235 41.6146 35.9014 41.6805 35.7383 41.6805C35.5856 41.6805 35.4014 41.7237 35.2712 41.6805C35.2599 41.6805 35.1946 41.6146 35.1734 41.6146C35.1292 41.5935 35.0639 41.5935 34.9986 41.5935ZM34.5417 42.4964C34.5417 42.3117 34.8576 42.3657 34.9878 42.3657C35.0855 42.3657 35.1941 42.3441 35.2707 42.3117C35.2918 42.3117 35.3139 42.2463 35.3572 42.2463C35.4014 42.2463 35.5315 42.1378 35.5644 42.1378C35.6077 42.1378 35.9662 42.0945 35.9884 42.1594C35.9884 42.2026 36.0105 42.3441 36.0105 42.3878C35.9884 42.4747 35.8798 42.627 35.8253 42.6378C35.8032 42.6378 35.7378 42.7027 35.6946 42.7027C35.5639 42.7248 34.9878 42.7248 34.9003 42.681L34.835 42.6378C34.7269 42.6049 34.7481 42.4964 34.5417 42.4964ZM34.106 43.2469C34.106 43.1276 34.2038 43.0185 34.3133 42.9969H34.4985C34.5629 43.0185 34.6503 43.1492 34.7048 43.1492C34.8355 43.1492 35.0855 43.2037 35.2162 43.1492H35.3572C35.3793 43.1492 35.4014 43.3127 35.4014 43.3339C35.4014 43.4208 35.1941 43.5407 35.1066 43.5407C34.8782 43.5407 34.585 43.5407 34.4214 43.3771C34.3566 43.3123 34.106 43.3776 34.106 43.2469ZM33.2685 44.1719C33.3231 44.0849 33.4316 43.9872 33.4969 43.8997C33.519 43.8565 33.5412 43.8344 33.5623 43.8128C33.5947 43.7696 34.0849 43.7912 34.139 43.8344C34.2264 43.8997 34.3787 43.9867 34.3998 44.0849C34.4322 44.2156 34.3787 44.3566 34.248 44.3787C34.106 44.4003 33.9543 44.4003 33.8123 44.4003C33.7042 44.4003 33.2685 44.2372 33.2685 44.1719ZM32.5293 44.9008C32.5514 44.9008 32.6599 44.9662 32.6599 44.9662C32.682 44.9878 32.7366 45.0747 32.7798 45.1184C32.9104 45.2383 33.1816 45.1621 33.3235 45.1621C33.4321 45.1621 33.411 45.0315 33.411 44.9662C33.411 44.89 33.3668 44.7815 33.2911 44.7815C33.1384 44.7815 32.9532 44.8031 32.7798 44.8031C32.6815 44.8026 32.6162 44.8463 32.5293 44.9008ZM35.7604 35.7295C35.7604 35.5448 35.9667 35.5448 36.0974 35.5448C36.2605 35.5448 36.2826 35.7732 36.2826 35.8822C36.2826 36.2413 36.6205 36.2197 36.6205 36.5783C36.6205 36.8288 36.2826 36.9482 36.2177 37.0788C36.12 37.2856 36.3705 37.4374 36.5557 37.4374C36.7723 37.4374 36.7944 37.3505 36.9575 37.3067C37.0882 37.2635 37.2301 37.0783 37.2301 37.3937C37.2301 37.6874 37.1427 37.6658 36.8922 37.7744C36.3263 38.0465 35.2928 37.4158 35.782 36.7625C35.8484 36.6755 35.9672 36.5341 35.9672 36.425C35.9672 36.1313 35.7609 36.2403 35.6303 36.0448C35.5541 35.9255 35.6298 35.7079 35.7604 35.7295ZM36.7934 34.7505C36.9133 34.9568 37.0661 35.1857 37.2945 35.2943C37.5229 35.4141 37.5882 35.5885 37.6314 35.8169C37.6536 36.0016 37.6314 36.3607 37.6314 36.5562C37.6314 36.676 37.1201 37.0783 36.9791 37.0999C36.5984 37.1869 36.957 36.8283 36.9791 36.7625C37.1422 36.284 37.0666 36.1534 36.8696 35.7506C36.7502 35.5227 36.7934 35.0442 36.7934 34.7505ZM33.3447 35.0663C33.3447 34.8703 33.4321 34.9136 33.5952 34.9136C33.8025 34.9136 34.0412 34.8703 34.2485 34.9136C34.4548 34.9568 34.6071 35.142 34.7702 35.1857C34.9657 35.251 35.1287 35.4578 35.1287 35.6533C35.1287 35.7948 35.3571 36.0669 35.3793 36.1755C35.4014 36.284 35.4446 36.4039 35.4446 36.5129C35.4446 36.6328 35.4878 36.8504 35.336 36.8504C34.8782 36.8504 34.7048 36.8288 34.7048 36.3391C34.7048 36.1323 34.7481 35.8174 34.5417 35.73C34.248 35.5885 34.1611 35.2294 33.8452 35.1862C33.7799 35.1857 33.3447 35.0988 33.3447 35.0663ZM35.0207 34.8266C35.1071 34.6419 35.0418 34.7505 35.1071 34.7289C35.1292 34.7289 35.1513 34.7068 35.1734 34.7068H35.2599C35.3144 34.7289 35.3365 34.7505 35.3365 34.7505C35.3365 34.7505 35.3797 34.805 35.3797 34.8266C35.3797 34.8482 35.4019 34.8703 35.423 34.892L35.4672 34.9352L35.5104 34.9784L35.5546 35L35.6082 35.0432C35.6082 35.0432 35.6514 35.0978 35.6514 35.1194L35.6735 35.1626V35.3144L35.6514 35.336H35.4451H35.3576C35.3144 35.336 35.2599 35.2491 35.2599 35.2053C35.2599 35.1837 35.2388 35.1184 35.2388 35.0968C35.2388 35.0644 35.1946 35.0423 35.1946 35.0207L35.1734 34.9769H35.1513L35.1292 34.9553L35.086 34.9121C35.086 34.9121 35.0207 34.8482 35.0207 34.8266ZM35.8037 34.3374C35.8037 34.3158 35.7816 34.2499 35.8037 34.2283H35.9456C36.2173 34.2283 36.0763 34.6635 36.2605 34.7505C36.4132 34.8266 36.5331 34.9352 36.62 35.0663C36.6412 35.1204 36.7065 35.2943 36.62 35.3164H36.3253C36.0316 35.2731 35.8474 35.0442 35.8474 34.751C35.8447 34.6121 35.8301 34.4737 35.8037 34.3374ZM36.9133 33.8909C36.9133 33.7931 36.9565 33.7499 37.044 33.7499C37.1196 33.7499 37.1849 33.7499 37.2291 33.7931C37.2291 33.7931 37.2724 33.8147 37.2945 33.8147L37.3156 33.8585C37.3377 33.8909 37.403 33.9562 37.4355 33.9783V34.2499C37.4355 34.359 37.4355 34.4243 37.4787 34.5221C37.5008 34.5761 37.7292 34.5982 37.7734 34.6198H37.8387C37.882 34.6414 38.0229 34.9136 37.9252 34.9573C37.882 34.9789 37.5234 34.9357 37.5013 34.9357C37.4035 34.9141 37.2296 34.7834 37.1854 34.6856C37.1422 34.5987 36.9791 34.3811 36.9791 34.2721C36.9786 34.1522 36.9565 33.9562 36.9133 33.8909ZM36.9354 32.2591C37.3372 32.4005 36.9786 32.988 37.294 33.1403C37.5224 33.2494 37.6098 33.4778 37.6098 33.7278C37.6098 33.7931 37.5877 33.8368 37.5224 33.8368C37.4025 33.8368 37.3593 33.4778 37.2719 33.4345C37.2287 33.4129 37.1633 33.3471 37.1191 33.3255C37.0002 33.2823 36.8907 33.184 36.8686 33.0534C36.8475 32.9335 36.8686 32.7159 36.8686 32.5744C36.8691 32.4659 36.8485 32.3028 36.9354 32.2591ZM35.9456 31.1602C36.3042 31.1602 36.4349 31.3995 36.6854 31.65C36.9791 31.9437 36.6854 32.9119 36.62 33.2818C36.5758 33.5426 36.5326 33.8147 36.7065 33.9994C36.7939 34.0869 36.4781 33.9562 36.4349 33.9341C36.1843 33.8142 36.0542 33.1835 36.0542 32.933C36.0537 32.4659 36.1622 31.5409 35.9456 31.1602ZM32.3112 34.4459C32.3112 34.1851 32.8014 34.2721 33.0298 34.2721C33.5736 34.2721 34.4985 34.4459 34.9008 34.0436C35.0418 33.913 35.1946 33.7278 35.2594 33.5755C35.2918 33.4994 35.4878 32.5096 35.8032 33.0096C36.1839 33.5971 35.1729 34.5329 34.6827 34.6198C34.3895 34.6635 32.3112 34.8266 32.3112 34.4459ZM31.9958 33.7715C32.04 33.7931 32.0832 33.7931 32.1054 33.7931H32.4423L32.4644 33.8147H32.4865V33.9773H32.4644V33.9989L32.4423 34.0206L32.3991 34.0643L32.377 34.108L32.3338 34.1296H32.0833C32.0611 34.1296 32.0179 34.108 31.9958 34.108C31.9699 34.1037 31.9445 34.0964 31.9202 34.0864L31.8548 34.0427L31.8116 33.9989C31.7895 33.9989 31.7463 33.9989 31.7463 33.9557V33.7926C31.7674 33.771 31.7895 33.7494 31.8116 33.7494C31.8548 33.7278 31.8764 33.7715 31.9958 33.7715ZM33.2793 30.5949C33.4645 30.2029 33.4645 30.279 33.9105 30.279C34.1832 30.279 34.6503 30.2353 34.8787 30.3443C34.9662 30.3881 35.086 30.4313 35.1734 30.475C35.423 30.5949 35.7604 31.0188 35.7604 31.313C35.7604 31.6284 35.9888 32.3028 35.6509 32.4227C35.2162 32.5533 35.2594 32.4227 35.3572 32.1068C35.3793 32.0307 35.4014 31.2909 35.3572 31.204C35.3572 31.1823 35.0634 30.9323 35.0202 30.8886C34.7476 30.6165 34.248 30.8125 33.8879 30.7255C33.7042 30.6818 33.2582 30.7904 33.2793 30.5949ZM31.6264 31.5409C32.0832 31.5409 32.3117 31.6279 32.5838 31.9C32.9856 32.3023 32.7577 31.8784 32.6923 31.7153C32.627 31.563 32.8019 31.1278 32.6702 30.9972C32.5072 30.8449 32.3554 30.8886 32.3554 30.5949C32.3554 30.4529 32.7793 30.7471 32.8225 30.7904C33.0509 31.0188 33.2793 30.9756 33.4316 31.3562C33.5736 31.6937 33.4861 32.0852 33.8884 32.2812C34.248 32.4659 34.248 32.0307 34.5629 32.1942C35.1729 32.488 35.1508 33.5215 34.5417 33.8152C34.1832 33.9999 33.5947 33.913 34.139 33.5431C34.4985 33.3039 34.2264 32.8254 33.8673 32.738C33.0509 32.5312 32.4639 32.988 31.8111 32.3249C31.4732 31.9874 32.1049 32.151 31.8543 31.9005C31.789 31.8352 31.6588 31.8789 31.5817 31.7698C31.5611 31.7153 31.5611 31.5409 31.6264 31.5409ZM31.2885 33.2056C31.4737 33.0971 31.7674 33.1624 31.9526 33.0534C32.1702 32.8903 32.7145 32.9664 33.0077 32.9664C33.1929 32.9664 33.3235 33.0317 33.4645 33.0971C33.6384 33.184 33.9105 33.0534 33.9105 33.4124C33.9105 33.5755 32.5838 33.5215 32.3765 33.5215C32.2134 33.5215 32.0179 33.4562 31.8765 33.4124C31.789 33.3908 31.6259 33.3692 31.5169 33.3471C31.4516 33.3255 31.3862 33.184 31.2885 33.2056ZM27.1658 33.8585C27.0243 32.9335 30.027 33.0096 30.5708 33.2818C30.9515 33.4557 31.2673 33.9778 31.5611 34.2716C32.04 34.7289 33.3889 34.9136 33.5952 35.5227C33.6826 35.8385 32.3338 35.338 32.1486 35.1636C31.8116 34.8261 30.4628 33.6841 30.0492 33.5971C29.0584 33.3471 28.0907 33.913 27.1658 33.8585ZM29.189 32.6948C29.189 32.488 29.9396 32.2159 30.168 31.9879C30.7771 31.3783 30.9073 30.4971 31.539 29.8664C31.8327 29.5727 32.8775 29.5727 33.1708 29.8664C33.6821 30.3886 32.5617 30.1823 32.3554 30.1823C31.6588 30.1823 31.1151 31.6289 30.9947 32.1947C30.8646 32.9119 29.2436 32.9335 29.189 32.6948ZM27.1004 33.0971C27.1004 33.0971 27.122 32.9335 27.1658 32.9124L27.2311 32.8908L27.2743 32.8692H27.4158L27.459 32.8475C27.4806 32.8475 27.5243 32.8259 27.5243 32.8259L27.5676 32.8043L27.5892 32.7611H27.6766L27.709 32.7827H27.7306L27.7744 32.8043V32.9885C27.7744 33.0755 27.5022 33.0976 27.4369 33.0976C27.4153 33.0976 27.3608 33.1408 27.3392 33.1408C27.3171 33.1408 27.2954 33.1624 27.2738 33.1624H27.2306L27.209 33.1408L27.1874 33.1192H27.1441C27.1441 33.1192 27.122 33.075 27.1004 33.0971ZM27.9271 32.3249C27.9271 32.2812 27.9055 32.2159 27.9055 32.1721C27.9055 32.1505 28.0033 32.0852 28.0033 32.0852C28.0686 32.0636 28.1993 32.0636 28.2425 32.1505C28.297 32.2591 28.3619 32.4226 28.4709 32.4659C28.5795 32.5091 28.6993 32.5965 28.6993 32.738C28.6993 32.8687 28.5146 32.8466 28.4277 32.8466C28.297 32.8466 28.0902 32.8033 28.047 32.6398C28.047 32.6182 28.0033 32.4875 28.0033 32.4659C27.9709 32.4226 27.9055 32.3249 27.9271 32.3249ZM28.7651 32.1721C28.83 31.8568 29.1674 31.8784 29.4612 31.8784C29.5594 31.8784 29.668 31.8568 29.7117 31.8131L29.7765 31.7698C29.8527 31.7374 29.8748 31.7374 29.8748 31.8131C29.8748 31.9437 29.7117 32.0852 29.5805 32.0852C29.4391 32.0852 29.3958 32.2159 29.3089 32.2375C29.222 32.2591 28.9282 32.488 28.83 32.4659C28.7651 32.4443 28.7214 32.3244 28.7214 32.2812V32.1942C28.7214 32.1505 28.7651 32.1505 28.7651 32.1721ZM28.6561 30.9972L28.743 30.9323C28.8084 30.9102 29.1021 31.063 29.1674 31.0846C29.1891 31.0846 29.2873 31.1607 29.3089 31.1607C29.3742 31.1824 29.4833 31.1823 29.5805 31.1823C29.668 31.1823 29.7333 31.1824 29.7544 31.1062C29.7981 31.0188 29.8964 30.9102 29.9612 30.8449C30.0049 30.7904 30.1896 30.7904 30.2555 30.812C30.3203 30.8449 30.3856 30.8881 30.3856 30.9756C30.3856 31.204 30.3424 31.3562 30.1464 31.4216C30.0703 31.454 30.0049 31.4756 29.9401 31.4977C29.7765 31.5409 29.1895 31.5409 29.0589 31.4761C28.9719 31.4221 28.8526 31.313 28.7656 31.2698C28.6782 31.2256 28.6345 31.0846 28.6561 30.9972ZM29.4396 30.1376C28.7214 30.1376 28.0907 31.8347 27.6339 32.2807C27.1663 32.7596 26.8941 32.7375 26.372 32.9875C26.1219 33.0966 25.1101 32.9114 25.6543 32.7375C25.8822 32.6722 27.9276 31.2904 26.9157 31.2904C25.2948 31.2904 24.3703 33.771 26.4152 34.021C26.8067 34.0648 27.2748 34.0648 27.6771 34.0648C29.0368 34.0648 27.6771 34.5545 27.2527 34.5545C26.0129 34.5545 24.6311 35.0658 24.6311 33.3687C24.6311 32.2591 25.1096 31.8784 25.8277 31.1602C26.3936 30.5949 27.2964 31.0404 27.7537 30.7471C28.0691 30.5511 28.1339 29.8443 28.6345 29.7352C29.3742 29.5501 30.5271 29.5501 30.5271 30.5949C30.5266 30.7471 29.8311 30.1597 29.4396 30.1376ZM29.668 35.2834L29.9185 35.2186C29.668 35.251 29.7333 35.2834 29.5918 35.2186C29.5594 35.2186 29.4941 35.1425 29.4612 35.1096C29.4175 35.0771 29.4175 34.8266 29.4175 34.7618C29.4175 34.5874 29.668 34.1743 29.8748 34.1743C30.0162 34.1743 30.2987 34.1743 30.4077 34.2072C30.6465 34.3158 30.6907 34.3811 30.6907 34.6856C30.6907 34.7618 30.5487 34.7618 30.4731 34.7618C30.3321 34.7618 30.0919 34.7942 29.9833 34.7942C29.9509 34.7942 29.668 35.0005 29.668 35.0005V35.2834ZM26.5783 35.9147C26.5783 36.1976 26.5459 37.0788 26.1539 37.0788C25.7295 37.0788 25.5556 36.763 25.5556 36.3715C25.5556 35.5993 26.1215 35.1749 26.7846 35.0442C27.209 34.9357 27.35 34.7618 27.9487 34.7618C28.1551 34.7618 29.668 34.4897 29.0697 35.0771C29.0044 35.1425 28.7538 35.1425 28.6124 35.1425C28.547 35.1425 28.6124 35.3925 28.5038 35.4254C28.1231 35.5345 27.6987 35.5669 27.2743 35.5669C26.7846 35.5669 28.1551 35.2191 27.4482 35.2191C27.209 35.2186 26.5783 35.6749 26.5783 35.9147ZM24.609 34.8595C24.609 34.7181 24.609 34.6527 24.751 34.6527C24.9249 34.6527 24.9902 34.8595 25.0663 34.9681C25.1312 35.0766 25.2731 35.142 25.3493 35.2186C25.3817 35.251 25.839 35.4249 25.6646 35.5993C25.6322 35.6317 25.5232 35.8169 25.5232 35.8169C25.5232 35.8493 25.5232 35.9476 25.4907 35.9908C25.3822 36.089 25.2078 35.8169 25.2078 35.8169C25.2078 35.7732 25.0663 35.5664 25.0663 35.534C25.0663 35.4578 24.7834 35.2186 24.751 35.1749C24.6414 35.0766 24.6414 34.9028 24.609 34.8595ZM24.5766 35.7408C24.5766 35.7408 24.3266 35.2834 24.468 35.2834C24.8158 35.2834 24.8158 35.5664 24.8924 35.8169C24.9249 35.9908 25.2731 36.1647 25.3493 36.3715C25.3493 36.4039 25.447 36.763 25.306 36.763C24.9897 36.763 24.609 35.9903 24.5766 35.7408ZM23.9454 35.7408C23.9454 35.6754 23.9017 35.3601 24.0107 35.3601C24.3585 35.3601 24.2937 35.7079 24.3261 35.9476C24.4346 36.4805 24.7505 36.9703 25.2726 37.2203L25.8056 37.3618C25.9471 37.3618 26.2187 37.3185 26.2187 37.5037C26.2187 38.1673 24.9244 37.7753 24.7176 37.3618C24.6085 37.1117 24.2608 36.7964 24.1193 36.5896C23.9783 36.3715 23.9454 35.8817 23.9454 35.7408ZM23.6954 35.7732C23.5868 35.5664 23.4449 35.0442 23.4449 34.7942V33.9999C23.4449 33.8909 23.4124 33.4016 23.4449 33.3255C23.4886 33.2602 23.5534 33.184 23.5868 33.1516C23.6192 33.1192 23.6954 33.1192 23.7607 33.1192C23.8698 33.1192 24.1198 33.2931 24.1522 33.3584C24.1851 33.4675 24.1851 33.6846 24.1851 33.7828C24.1851 33.8589 24.359 34.0657 24.3919 34.1419C24.4351 34.2072 24.7181 34.4901 24.359 34.4901C24.2612 34.4901 24.0761 34.1743 23.9022 34.3487C23.5539 34.6852 23.7278 35.2834 23.6954 35.7732ZM20.3227 37.5356C20.3227 36.7305 20.9864 35.7079 21.3454 34.9681C21.4108 34.7942 21.7585 34.5437 21.9 34.4135C22.0091 34.3158 23.0318 34.4135 23.0642 34.6198C23.0971 34.7618 23.0642 35.142 23.0642 35.3159C23.0642 35.5335 23.3039 36.3386 23.1624 36.48C23.0971 36.5454 22.6403 36.8283 22.4983 36.8607C22.1181 37.0022 21.8347 37.4261 21.4108 37.5027C21.1278 37.5356 20.6386 37.5356 20.3227 37.5356ZM15.6125 32.2699C16.6352 32.7704 17.9296 32.8358 19.1262 32.8358C19.8988 32.8358 21.204 32.7267 21.9329 32.9006C22.1505 32.9443 22.4983 33.0853 22.6727 33.2597C23.3795 33.9557 22.6403 33.575 22.292 33.5426C21.063 33.4011 19.7569 33.2273 18.4193 33.2273C17.5052 33.2273 15.6125 33.4994 15.6125 32.2699ZM24.1954 22.0115C24.3374 21.7286 24.6635 21.511 24.8811 21.3587C25.3164 21.0757 25.7192 20.3468 26.0782 19.9877C26.2197 19.8349 26.7635 19.2258 27.0248 19.2258C27.3509 19.2258 26.731 20.0963 26.731 20.0963C26.5896 20.2377 26.2958 20.5315 26.2197 20.7491C26.1544 20.9996 25.7191 21.0757 25.6106 21.1843C25.4578 21.3258 25.0668 21.6519 24.8055 21.761C24.7726 21.761 24.2283 22.2723 24.1954 22.0115ZM15.4165 28.3211C15.6558 28.1796 15.9711 28.2012 16.2545 28.2012C16.45 28.2012 16.5699 28.0381 16.6681 27.8967C16.6898 27.8426 17.2664 27.0267 17.4295 27.2006C17.5494 27.32 16.8528 28.3535 16.7119 28.4188C16.4505 28.5382 16.2766 28.5382 15.9505 28.5382C15.754 28.5387 15.3949 28.5608 15.4165 28.3211ZM17.3853 24.4916C19.9961 21.3695 22.792 18.3883 26.1863 15.8537C26.7959 15.1901 27.3505 14.8634 27.9271 14.1129C29.9941 11.4368 32.1913 12.122 33.1158 16.4628C34.8571 20.5094 35.4009 24.8831 35.4009 29.4086C34.9431 28.6256 34.5088 29.5285 34.1173 29.3C33.0622 28.658 31.6913 28.3319 31.006 29.3C29.918 28.4841 28.8295 28.4841 27.7415 29.3C27.6221 25.8621 28.6664 23.0337 29.6999 20.5968C30.4618 18.8123 28.492 18.1491 27.8937 19.5088C25.0875 25.8729 21.2143 24.0235 18.603 27.2979C18.0809 27.9615 16.8838 30.17 16.0355 30.17C14.4798 30.17 14.023 29.3541 13.0435 28.3751C12.5322 28.1359 12.1731 27.8205 11.4987 27.7768C10.9981 27.7223 10.2043 27.461 9.82315 27.2217C9.12711 26.7649 9.10501 26.1666 8.74643 25.6116C8.52882 25.2741 8.02828 25.1331 7.81067 24.8502C7.81067 24.1212 8.81176 25.1331 9.12711 25.2309C10.5197 25.6877 11.8361 26.2099 13.4458 26.2099C14.3162 26.2099 14.6969 26.1882 15.4367 25.8292C15.6125 25.754 17.3853 24.7529 17.3853 24.4916ZM38.2194 33.1295C38.436 32.8682 38.9474 32.5636 39.2308 32.2807C39.6012 31.9108 39.8075 31.7261 40.2859 31.4432C40.9383 31.0517 41.9506 30.0722 42.2115 29.4523C42.3092 29.2126 42.9512 28.2665 42.7994 29.0171C42.6899 29.5609 42.0808 30.5399 41.6451 30.9205C41.0905 31.4211 40.2309 32.5631 39.4258 32.8461C38.9798 32.9993 38.6104 33.2926 38.2194 33.1295ZM37.9139 32.6073C37.9139 32.3023 38.6325 31.6608 38.7735 31.3562C38.9474 31.0085 39.0343 30.5295 39.1429 30.1705V29.8659C39.1429 29.6704 39.1871 30.225 39.1871 30.2466C39.1871 30.7688 39.165 31.3562 39.0343 31.8455C38.9474 32.1721 37.8923 33.184 37.9139 32.6073ZM42.8319 24.3177C42.7877 24.2308 42.7877 24.4047 42.7877 24.4047L42.7444 24.4484V24.5461L42.7002 24.6331C42.7002 24.6763 42.6138 24.807 42.6138 24.807C42.5696 24.9376 42.5696 24.8939 42.4831 25.0246L42.3087 25.2967V25.3836L42.2223 25.558L42.1781 25.645H41.9929L41.9497 25.6017L41.9064 25.5585L41.8622 25.4716V25.4278V25.1994C41.8622 25.1557 41.9064 25.0688 41.9064 25.0688C41.9064 25.0688 41.9497 24.9818 41.9497 24.9381L41.9929 24.8512L42.0371 24.7642L42.1245 24.6768L42.2223 24.4921L42.2655 24.3182L42.3529 24.1443C42.3962 24.0574 42.3962 24.0574 42.4836 24.0574C42.5268 24.0574 42.5701 24.1006 42.6143 24.1006C42.7007 24.1433 42.7007 24.1433 42.8319 24.3177ZM41.8627 24.6763C41.8195 24.5456 41.8195 24.72 41.8195 24.72L41.7763 24.7637V24.8507L41.7321 24.9376L41.6446 25.1115C41.6446 25.1547 41.5582 25.2422 41.5582 25.2962C41.514 25.3831 41.4275 25.5575 41.4275 25.6007V25.644L41.373 25.6877L41.3298 25.7746L41.2855 25.8179H41.1549L41.1117 25.7746H41.0684V25.7309L41.0242 25.6877V25.5138V25.3831C41.0242 25.3399 41.0684 25.2417 41.0684 25.2417C41.0684 25.2417 41.1117 25.1547 41.1117 25.111L41.1549 25.0241C41.1549 24.9808 41.2423 24.8934 41.2423 24.8502V24.7195L41.373 24.5889H41.5582C41.6893 24.5898 41.6893 24.5898 41.8627 24.6763ZM40.7644 24.6331V25.1985C40.7644 25.2962 40.7211 25.3831 40.7211 25.4269V25.6007L40.6769 25.644V25.7746H40.4485L40.4053 25.7309L40.3621 25.6877L40.3179 25.644V25.3836L40.3621 25.3404V25.1552V24.9813V24.72C40.3621 24.6763 40.4053 24.6331 40.4053 24.5461C40.4053 24.4921 40.4927 24.4047 40.4927 24.3614L40.6234 24.3177C40.6769 24.3614 40.7211 24.4479 40.7644 24.6331ZM40.8076 26.2649C40.982 26.3081 41.8627 25.9927 41.6019 26.5694C41.4712 26.8848 40.536 27.4074 40.536 27.766C40.536 28.3427 40.4927 28.9518 40.3184 29.5285C40.3184 29.6154 39.7417 30.8557 39.7417 30.279V29.6591C39.7417 29.4415 40.0575 28.2557 40.1877 28.1143C40.2751 28.0273 40.2309 27.32 40.2309 27.1456C40.2309 26.8848 39.7417 26.6996 39.7417 26.4388C39.7417 26.0473 40.5792 26.0473 40.8076 26.2649ZM39.8291 25.1552C39.9156 25.112 39.8723 25.1552 39.8723 25.1989L39.8291 25.2422V25.3404L39.7849 25.4274V25.9495H39.7417L39.6985 25.9932H39.3929V25.9495H39.3497L39.2623 25.9063L39.1645 25.8631L39.1213 25.7761V25.558V25.3404V25.1552V24.9376C39.1213 24.8939 39.1645 24.8507 39.1645 24.7637C39.1645 24.72 39.2623 24.6331 39.2623 24.5898C39.2623 24.5461 39.3065 24.4484 39.3497 24.4484L39.4804 24.4047H39.6542C39.6542 24.4047 39.6985 24.5461 39.7417 24.5461C39.7849 24.5461 39.8291 24.6331 39.8291 24.72V25.1552ZM41.5587 22.6859C41.6019 22.7296 41.6019 22.7296 41.6019 22.8166V22.9035L41.6451 22.9468L41.6893 22.9905C41.6893 23.0342 41.7325 23.1319 41.7325 23.1319L41.8632 23.3058C41.8632 23.3495 41.9074 23.4365 41.9074 23.4797V24.0127L41.8632 24.0996V24.1866L41.82 24.2298L41.7768 24.3167L41.7325 24.3604H41.5144L41.428 24.3167L41.3302 24.273L41.286 24.1861L41.2428 24.0991V24.0122V23.8383V23.436C41.2428 23.3923 41.3302 23.3053 41.3302 23.2184L41.3735 23.0337C41.3735 22.9468 41.5149 22.7729 41.5587 22.6859ZM40.7211 22.4246C40.8076 22.5115 40.895 22.4246 40.895 22.5115V22.5553H40.9383V22.599L41.0257 22.6859C41.0699 22.7296 41.0699 22.7729 41.0699 22.8166V23.8835L41.0257 24.0141L40.9383 24.1011H40.7644L40.6769 24.0579L40.5792 23.9704L40.536 23.8835V23.7857C40.536 23.6988 40.5792 23.7857 40.5792 23.6988V23.5681V23.3942V23.2204V22.7729C40.5792 22.6859 40.6769 22.5115 40.7211 22.4246ZM40.1877 22.2831C40.1445 22.2831 40.1445 22.3809 40.1877 22.3809L40.2309 22.4246L40.2751 22.4678V23.3063L40.2309 23.3933V23.4807L40.1445 23.6546L40.1003 23.742V23.7852L40.057 23.8398L40.0138 23.883H39.8718L39.7844 23.8398L39.698 23.742C39.698 23.742 39.6538 23.6546 39.6538 23.6114V23.5239V23.3063V23.1757V23.0342C39.6538 22.9905 39.698 22.9035 39.698 22.8603V22.6427C39.698 22.5557 39.7412 22.4688 39.7412 22.4256C39.7412 22.3819 39.7412 22.2841 39.8286 22.2841C39.9156 22.2831 40.1007 22.2831 40.1877 22.2831ZM39.0781 22.8598C39.0781 22.8598 39.22 22.903 39.22 22.9468V22.9905H39.2632V23.0342L39.3074 23.1319C39.3074 23.2189 39.3507 23.2626 39.3507 23.3058V23.4797C39.3507 23.5667 39.2632 23.7405 39.2632 23.8383V23.9252L39.22 24.0122V24.1861L39.1655 24.2293L39.1223 24.2725L39.0781 24.3162H38.9474L38.9042 24.2725H38.86L38.7735 24.2293L38.6861 24.1424V24.0554V23.9247V23.3481V23.1737C38.6861 23.0867 38.6861 23.0867 38.7293 22.989C38.7293 22.9453 38.7735 22.9021 38.8167 22.9021C38.9916 22.8161 38.7735 22.8161 39.0781 22.8598ZM41.9934 20.9667C42.3092 21.1406 42.2228 21.5866 42.2228 21.9349C42.2228 22.1088 42.3534 22.1088 42.3534 22.1962C42.3534 22.2836 42.3967 22.3809 42.4399 22.4678C42.5273 22.6417 42.5273 22.8161 42.5273 23.0337C42.5273 23.0877 42.5705 23.7405 42.3967 23.6536C42.3967 23.6536 42.125 23.3928 42.125 23.3495V23.0882C42.125 22.8161 41.7768 22.4678 41.6451 22.1962V21.674C41.6451 21.4019 41.7768 21.1411 41.9934 20.9667ZM40.895 20.5207C40.9383 20.5644 41.0694 20.6076 41.0694 20.6076V20.6508H41.1126L41.1559 20.6946L41.2433 20.7815L41.374 20.923C41.4285 20.9662 41.4285 21.0099 41.4285 21.0536V22.065L41.374 22.1083H41.3307L41.2865 22.1515H41.1559L41.0694 22.1083H40.982C40.9378 22.1083 40.8513 22.0213 40.8513 22.0213C40.8513 22.0213 40.8071 21.9344 40.8071 21.8907V21.7605V21.6298V21.3582C40.8071 21.2712 40.8513 21.1843 40.8513 21.1406C40.8513 21.0969 40.8945 20.923 40.8945 20.8793L40.895 20.5207ZM38.9916 20.8797C39.0348 20.8797 39.1655 20.8797 39.22 20.9235V20.9667H39.2632V21.0104L39.3507 21.0541L39.4381 21.1848L39.5246 21.3587C39.5246 21.4456 39.612 21.4893 39.612 21.5866V21.7173L39.5688 21.761V22.1088L39.5246 22.152L39.4813 22.2389V22.2826L39.4381 22.3367C39.4381 22.3367 39.3939 22.4241 39.3507 22.4241H39.2632L39.1655 22.3367L39.0781 22.2389L39.0348 22.152L38.9474 22.065C38.9474 22.065 38.9042 21.9781 38.9042 21.9344V21.8474V21.6735C38.9042 21.5861 38.9474 21.4888 38.9474 21.4451C38.9474 21.4019 38.9916 21.2712 38.9916 21.2275V20.8797ZM40.1007 20.6081C40.145 20.5649 40.2751 20.6513 40.2751 20.6513V20.6951H40.3626L40.449 20.782C40.4932 20.8257 40.5365 20.8797 40.5365 20.9235V21.7173L40.4932 21.8042V21.9344L40.449 21.9781V22.0213L40.4058 22.065H40.3184L40.2309 22.0213L40.1445 21.9781L40.057 21.8907L40.0138 21.8037L39.9696 21.7168V21.4446V21.2707V21.0094C39.9701 20.8252 40.0143 20.8252 40.1007 20.6081ZM41.0694 18.715C41.2001 18.715 41.2001 18.7587 41.2433 18.7587L41.3307 18.8457H41.374V18.8894L41.4285 18.9331L41.4717 19.02C41.4717 19.107 41.5149 19.107 41.5149 19.1939V20.3036H41.4717L41.374 20.2166L41.3307 20.1729C41.2865 20.1729 41.2001 20.1297 41.2001 20.1297L41.1126 20.0319L41.0694 19.945V19.5093V19.2371V19.0195V18.715ZM41.5041 58.4125C41.5041 58.4125 41.4285 58.5102 41.4609 58.5431H41.5041V58.5864L41.5366 58.6188C41.5366 58.6188 41.6343 58.6512 41.6672 58.6841L41.7325 58.7495L41.8421 58.8472C41.8745 58.8914 41.9727 58.9238 42.0052 58.9567L42.0705 59.0221H42.3087L42.3412 58.9897H42.4065V58.8482C42.4065 58.8158 42.3741 58.7829 42.3741 58.7504L42.3416 58.6851L42.2763 58.6198L42.211 58.5874L42.1786 58.5117L42.1132 58.4793L42.0376 58.4469C42.0052 58.4469 41.9723 58.3815 41.9398 58.3815H41.8092C41.6996 58.3801 41.6019 58.4125 41.5041 58.4125ZM39.9377 57.7056C40.0472 57.4983 40.145 57.5313 40.3513 57.5313C40.4166 57.5313 40.59 57.629 40.6563 57.7056C40.6887 57.7381 41.1564 58.1074 41.1564 58.2057C41.1564 58.2823 41.2649 58.5436 41.091 58.5436C40.9604 58.5436 40.7541 58.5112 40.6892 58.4783C40.449 58.3147 39.9377 57.9011 39.9377 57.7056ZM38.3172 56.9217C38.3496 57.1614 38.5559 57.4984 38.8275 57.6285L38.9263 57.7051C38.9587 57.7705 39.0672 57.9006 39.1326 58.0092C39.1326 58.0416 39.2303 58.0745 39.2303 58.107C39.2303 58.2813 39.3723 58.412 39.47 58.5097C39.5354 58.5854 39.9372 58.9233 40.112 58.8904C40.2427 58.8462 40.2859 58.8138 40.2859 58.6507C40.2859 58.3791 39.6768 58.2371 39.5683 58.0416V57.8029C39.5683 57.6722 39.2303 57.2591 39.1655 57.1609C39.1007 57.0626 38.9592 56.9212 38.8938 56.8229C38.8938 56.7905 38.7298 56.6166 38.7298 56.6166C38.6212 56.5842 38.4911 56.6166 38.3825 56.6166C38.2843 56.6176 38.3172 56.8568 38.3172 56.9217ZM37.9468 58.075C37.849 57.9773 37.6427 57.8034 37.6098 57.7381C37.6098 57.7056 37.5445 57.4654 37.6098 57.4654C37.7076 57.4654 37.8486 57.433 37.9468 57.433C38.0775 57.433 38.3825 57.771 38.4906 57.8687C38.6212 58.0097 38.7632 58.2381 38.7632 58.4125C38.7632 58.5431 38.7298 58.5864 38.5888 58.5864C38.5235 58.5864 38.2518 58.3147 38.2194 58.2823C38.1531 58.2057 38.0121 58.075 37.9468 58.075ZM42.3092 57.7381C42.5165 57.8034 42.7882 57.8358 42.9183 57.9768C43.0603 58.1074 43.2887 58.2818 43.4621 58.4449C43.4945 58.4773 43.4945 58.5859 43.4945 58.6512C43.4945 58.8909 43.0927 58.7819 42.9507 58.749C42.7552 58.6836 42.5814 58.2376 42.3416 58.1723C42.2763 58.1723 42.07 58.1399 42.0376 58.0416C41.9723 57.8034 42.3416 57.771 42.3092 57.7381ZM40.7541 57.0965V57.2591L40.7865 57.2915L40.8189 57.4001L40.8513 57.4654C40.8945 57.5308 40.927 57.5308 40.9599 57.5632C40.9928 57.5956 41.0905 57.7376 41.0905 57.7705L41.1559 57.8358H41.2325L41.2639 57.8682H41.874V57.7376C41.874 57.7051 41.8416 57.6722 41.8416 57.628L41.8092 57.5627L41.7325 57.4974L41.6672 57.4649L41.6019 57.3996C41.6019 57.3996 41.5366 57.3343 41.5041 57.3343C41.4609 57.3343 41.4609 57.2911 41.4285 57.2911C41.3961 57.2911 41.3632 57.2586 41.3307 57.2586L41.1564 57.2262C41.091 57.2262 41.091 57.1938 41.0257 57.1938C40.9604 57.1938 40.8518 57.0965 40.7541 57.0965ZM42.3745 56.987C42.5489 56.987 42.5489 57.0636 42.6472 57.0636C42.6796 57.0636 42.7557 57.0961 42.7881 57.0961C42.8206 57.0961 42.8859 57.1285 42.8859 57.1285L42.9512 57.1938L43.0166 57.2591L43.0932 57.3348L43.1585 57.3672L43.1909 57.4325L43.2234 57.4979V57.628H42.8201L42.7547 57.5627C42.6791 57.5627 42.6791 57.5303 42.6138 57.4649L42.516 57.3672C42.4836 57.3348 42.4836 57.2915 42.4507 57.2586L42.4065 57.1933V57.0961C42.407 57.0636 42.407 56.987 42.3745 56.987ZM40.6234 56.3779C40.6234 56.2801 40.59 56.1824 40.6887 56.1824C40.8194 56.1824 41.2001 56.15 41.3307 56.2148C41.3961 56.2472 41.537 56.3779 41.6024 56.4545C41.6677 56.5199 41.9727 56.7915 41.9727 56.8893V57.0965C41.9727 57.4335 41.3961 56.8893 41.3307 56.8568C41.2644 56.8244 40.9928 56.6505 40.9279 56.5852C40.8518 56.5199 40.6234 56.4221 40.6234 56.3779ZM39.1979 56.5199C39.1002 56.4221 39.0672 56.3455 39.0672 56.2472C39.0672 56.2148 39.47 56.2148 39.5354 56.2148C39.6763 56.2148 39.9814 56.4865 40.112 56.5528C40.2098 56.5852 40.449 56.7591 40.449 56.8897C40.449 57.0641 40.449 57.1295 40.2427 57.1295C40.1774 57.1295 39.9048 57.1295 39.8723 57.097C39.7746 56.9875 39.6439 56.8573 39.5354 56.792C39.4376 56.7262 39.2303 56.5852 39.1979 56.5199ZM41.0581 55.3012C41.0905 55.3336 41.0257 55.3012 40.9928 55.3012H40.8955L40.8199 55.3336C40.7875 55.3336 40.7221 55.3989 40.7221 55.3989C40.6568 55.4313 40.6568 55.4313 40.6568 55.5075C40.6568 55.5728 40.6892 55.5728 40.7221 55.6052L40.7875 55.6706L40.8528 55.7359L40.896 55.7683V55.8115L40.9284 55.844L40.9609 55.8774L41.0262 55.9098H41.0586L41.091 55.9422L41.1564 55.9746C41.1564 55.9746 41.2649 56.04 41.2983 56.04H41.6353L41.7006 56.0075V55.8435L41.6682 55.7678L41.5704 55.6701C41.538 55.6701 41.538 55.6377 41.5051 55.6377L41.3966 55.5399L41.2988 55.4643C41.2001 55.3665 41.2978 55.3665 41.0581 55.3012ZM39.47 54.4848C39.47 54.4524 39.4376 54.3217 39.5025 54.3217C39.5349 54.3217 39.5678 54.2893 39.6002 54.2893C39.7088 54.2893 39.8389 54.3217 39.9043 54.3217C39.9367 54.3217 40.0462 54.387 40.0786 54.4195L40.144 54.4848L40.2093 54.5614L40.285 54.6258L40.3174 54.6921L40.3827 54.7564V54.9961L40.3503 55.0286H40.1125L40.0472 54.9632L39.9819 54.8979C39.9212 54.8538 39.863 54.8064 39.8075 54.7559L39.7422 54.6916L39.6768 54.6253L39.6444 54.5938H39.5688V54.5614C39.5338 54.5387 39.5007 54.5131 39.47 54.4848ZM38.6866 55.2688H39.3399C39.5683 55.2688 40.145 55.3994 40.2859 55.5404L40.3837 55.6381C40.3837 55.6381 40.8194 55.9761 40.4814 55.9761C40.3508 55.9761 40.1445 56.0085 39.9814 56.0085C39.8718 56.0085 39.5678 55.8778 39.5025 55.8444C39.4371 55.812 39.2952 55.7688 39.2298 55.7688C38.9916 55.7035 38.6866 55.5728 38.6866 55.2688ZM37.1314 55.3012C37.098 55.2358 37.0007 55.1268 37.0336 55.0286C37.0336 54.9961 37.2075 54.9961 37.24 54.9961C37.403 54.9961 37.5779 55.1592 37.6757 55.2358C37.9797 55.4313 38.4586 55.5075 38.7298 55.7683C38.7961 55.844 38.8275 55.9427 38.8604 56.008C38.9592 56.2143 38.6217 56.2143 38.5235 56.2143C38.3496 56.2143 37.9144 55.8774 37.7734 55.7683C37.6757 55.703 37.4684 55.5399 37.3706 55.4313C37.3706 55.4313 37.1314 55.3665 37.1314 55.3012ZM36.5979 55.8666C36.6633 55.7688 36.6633 55.7477 36.761 55.7477C36.9894 55.7477 37.0115 55.8445 37.1638 55.9432C37.2291 55.9864 37.4025 56.1819 37.4576 56.258C37.5985 56.4324 37.7734 56.5852 37.8269 56.8018C37.8269 56.846 37.849 56.9217 37.849 56.9983C37.849 57.0739 37.7734 57.0415 37.7292 57.0415C37.4787 57.0415 37.3377 57.0739 37.1643 56.9217C37.0666 56.846 36.9899 56.6829 36.9359 56.5847C36.8155 56.3558 36.62 56.1171 36.5979 55.8666ZM33.2464 51.8303C33.2685 52.2007 34.4543 53.4518 34.7481 53.745C34.9657 53.9734 36.1947 55.5949 36.3042 55.5949C36.5979 55.5949 36.6412 54.9858 36.9133 54.8109C37.3048 54.5614 39.3502 55.2791 39.3502 54.7785C39.3502 54.1694 37.1849 53.8978 36.6407 53.7234C35.7816 53.4518 33.6718 52.6678 33.2464 51.8303ZM29.7549 50.4814V50.253C29.7549 50.2309 29.7549 50.1774 29.7765 50.1774H30.0271C30.1032 50.1553 30.1685 50.0575 30.2447 50.0575C30.5163 50.0575 30.614 50.2314 30.614 50.4814V50.8194C30.614 50.8518 30.4402 50.8518 30.4185 50.8518C30.2663 50.8518 30.1685 50.7211 30.1032 50.6445C30.0054 50.5468 30.0492 50.5468 29.8311 50.5468C29.7765 50.5468 29.7333 50.4814 29.7549 50.4814ZM30.5384 49.4479C30.5384 49.1974 30.9623 49.2952 30.9844 49.4155C31.202 50.1332 32.0724 51.5808 32.6049 52.125C33.1708 52.6899 33.6929 53.3319 33.8349 54.1159C33.8673 54.2898 33.8884 54.6159 33.6384 54.4853C33.4974 54.4096 33.128 53.2774 32.8996 53.0608C32.5072 52.6683 31.8003 51.8529 31.5287 51.4172C31.3759 51.1455 30.9078 50.5473 30.8867 50.2535C30.8646 49.8615 30.7339 49.6439 30.5384 49.4479ZM31.4958 49.2736C31.4958 49.2736 31.4516 49.0997 31.4958 49.0781C31.6043 49.0245 31.7674 49.1002 31.7998 49.1979C31.8219 49.2736 31.8219 49.4155 31.844 49.5138C31.844 49.5683 32.0179 49.6876 32.0395 49.7422C32.1152 49.8399 32.0941 50.1125 32.0941 50.2314C32.0941 50.2535 32.0174 50.2535 31.9953 50.2535C31.7458 50.2535 31.7669 49.862 31.7237 49.721C31.7016 49.6444 31.6038 49.5683 31.5709 49.4917C31.5493 49.4155 31.5493 49.2957 31.4958 49.2736ZM32.1913 49.2957C32.5072 49.2957 32.8333 49.4484 32.9974 49.6872C33.1713 49.9598 33.1059 50.2859 33.4213 50.5256C33.6929 50.7211 33.9651 50.7973 34.2809 50.9171C34.4327 50.9707 35.5099 51.341 35.5099 51.4172C35.5099 51.4614 35.0418 51.4614 34.944 51.4614C34.3349 51.4614 33.128 51.5149 32.9532 50.7973C32.8554 50.3508 32.2134 49.7206 32.1913 49.2957ZM31.4737 47.7729C31.4737 47.6752 31.4958 47.5435 31.6043 47.5224C31.6475 47.5224 31.7242 47.5003 31.7674 47.5003C31.844 47.5003 31.9629 47.7508 32.04 47.7729C32.0945 47.7729 32.1918 47.9139 32.2355 47.9468C32.431 48.0878 32.6373 48.4149 32.8333 48.6109C32.8996 48.6866 32.9321 48.7848 32.9321 48.8826C32.9321 48.9803 32.8554 48.9803 32.7577 48.9803C32.682 48.9803 32.5838 48.9803 32.5293 48.9479C32.4315 48.9047 32.2896 48.7848 32.2355 48.6541C32.2355 48.632 32.1378 48.5785 32.1157 48.5564C31.9629 48.4154 31.7674 48.3177 31.7242 48.1104C31.7242 48.0672 31.6697 47.9149 31.6475 47.8928C31.6264 47.8712 31.4958 47.7729 31.4737 47.7729ZM30.1464 47.4246C30.1464 47.4468 30.2009 47.4025 30.2447 47.4025C30.3429 47.4025 30.3964 47.4246 30.4731 47.5003C30.5384 47.5769 30.6362 47.7729 30.6362 47.8918C30.6362 48.0116 30.6361 48.1644 30.6686 48.2622C30.6907 48.3378 30.7884 48.5127 30.7884 48.578C30.7884 48.6536 30.7884 48.6866 30.7118 48.6866H30.5708C30.4952 48.6541 30.3964 48.6541 30.3964 48.5559C30.3964 48.3172 30.2225 48.0445 30.1253 47.849C30.0703 47.7508 30.1253 47.544 30.1464 47.4246ZM29.4833 49.0781V48.7087C29.4833 48.5559 29.3305 48.2626 29.5805 48.2626L29.7544 48.3604C29.8522 48.4149 29.8964 48.6541 29.9504 48.7519C29.972 48.8285 29.972 49.0245 29.972 49.1223C29.972 49.274 29.6783 49.3939 29.5368 49.3507C29.4607 49.3183 29.4607 49.0024 29.4607 48.9268L29.4833 49.0781ZM31.0822 45.7275C31.398 45.7275 31.7463 45.1617 32.0395 45.6077C32.235 45.9014 32.5288 46.2718 32.5288 46.6628C32.5288 46.8804 32.6594 47.2827 32.3333 47.348C32.1913 47.3804 32.0174 47.1849 31.9629 47.011C31.9418 46.8804 31.7998 46.7605 31.7242 46.6628C31.6264 46.5429 31.6043 46.1735 31.5287 46.1514C31.3759 46.0758 31.0601 45.9235 31.0822 45.7275ZM30.0487 46.2168C30.1027 46.0213 30.2225 46.0537 30.4181 46.0537C30.5379 46.0537 30.6357 45.9992 30.7339 46.0969C30.8095 46.1735 30.9294 46.2713 30.9844 46.3145C31.0389 46.369 31.1583 46.51 31.1583 46.5429C31.1583 46.565 31.234 46.6407 31.234 46.6628C31.234 46.8583 31.2025 47.0332 31.1033 47.1844C31.0822 47.2287 31.0389 47.2287 31.0065 47.2287C31.0065 47.2287 30.9299 47.3264 30.8867 47.2287C30.8646 47.1844 30.8646 47.1309 30.81 47.0867C30.6912 46.956 30.5384 46.7173 30.3964 46.6407C30.2987 46.5871 30.2009 46.4668 30.1253 46.4452C30.0703 46.4128 30.0487 46.2718 30.0487 46.2168ZM29.0697 46.8809C29.0913 46.8367 29.1345 46.7389 29.1674 46.6854C29.1891 46.62 29.4071 46.62 29.4612 46.6412C29.4833 46.6412 29.5594 46.7178 29.5594 46.7178C29.6356 46.7389 29.7549 46.7389 29.8311 46.8155C29.9509 46.9354 29.8311 47.3269 29.7549 47.4246C29.7009 47.5224 29.6026 47.6963 29.5049 47.7508C29.4071 47.794 29.3634 47.7184 29.331 47.6531C29.2873 47.5224 29.1674 47.3804 29.1674 47.2291C29.1674 47.1525 29.1674 47.0872 29.135 47.0336C29.1129 46.9786 29.0913 46.9133 29.0697 46.8809ZM29.276 45.7054C29.276 45.6622 29.2976 45.5639 29.3192 45.5423C29.3521 45.5099 29.3408 45.4878 29.3521 45.4662L29.417 45.4441C29.4386 45.4225 29.4386 45.4225 29.4607 45.4225C29.4931 45.4225 29.5147 45.4009 29.5368 45.4009H29.6783C29.6999 45.4009 29.7328 45.4225 29.7544 45.4225H29.7981C29.8198 45.4225 29.8635 45.4662 29.8635 45.4662L29.8964 45.5099L29.918 45.5423V45.7708H29.8964L29.8748 45.7811H29.8419L29.7981 45.8032H29.7544L29.722 45.8253H29.6135L29.6026 45.8474H29.1782C29.1129 45.8253 29.1345 45.8032 29.1345 45.7811V45.7275L29.1561 45.7054H29.276ZM28.3731 44.9008C28.3731 44.8571 28.3732 44.8026 28.4164 44.8026C28.4709 44.8026 28.5686 44.7372 28.634 44.7593C28.7322 44.781 28.9169 44.9657 29.0579 44.9657C29.1561 44.9657 29.1561 45.1071 29.1561 45.1833C29.1561 45.227 28.9493 45.2594 28.9169 45.2594C28.8084 45.281 28.6777 45.1066 28.5903 45.0855C28.5691 45.0855 28.3515 44.9445 28.3731 44.9008ZM27.3288 44.1827C27.3288 44.0628 27.3613 44.0957 27.4487 44.0741C27.5216 44.0597 27.5972 44.0673 27.6658 44.0957C27.7095 44.1178 27.8834 44.1394 27.9271 44.1394C28.1118 44.1611 28.2749 44.0741 28.2749 44.3241V44.444C28.2749 44.5201 28.2533 44.4764 28.188 44.4985C28.1118 44.5201 27.992 44.5201 27.8829 44.5201C27.8068 44.5201 27.6437 44.3571 27.5892 44.3354C27.5248 44.3241 27.3288 44.2588 27.3288 44.1827ZM26.1647 43.2145C26.1647 43.1708 26.1647 43.0946 26.1755 43.0946C26.2948 43.0509 26.5016 43.0946 26.5999 43.1379C26.763 43.214 26.9482 43.1703 27.122 43.1924C27.3288 43.214 27.5897 43.2577 27.6874 43.4532V43.6708C27.6874 43.8015 27.3072 43.8015 27.2198 43.8015C27.122 43.8015 27.0027 43.6924 26.9482 43.6379C26.9182 43.6083 26.8824 43.5853 26.8431 43.5704C26.8038 43.5554 26.7618 43.5488 26.7197 43.551C26.6436 43.551 26.3612 43.4527 26.2953 43.3987C26.2192 43.3118 26.1647 43.2351 26.1647 43.0942V43.2145ZM25.6209 42.1049C25.6209 42.0071 25.6538 41.9526 25.7192 41.8873C25.7737 41.8219 25.8822 41.8435 25.9584 41.8435C26.0345 41.8435 26.0782 41.9089 26.1436 41.9305C26.285 41.9845 26.3612 42.1481 26.5021 42.2134C26.5459 42.2242 26.6657 42.2896 26.6981 42.2896C26.763 42.2896 26.8396 42.3112 26.9044 42.3112C26.959 42.3112 27.1004 42.431 27.1004 42.5072V42.7135C27.1004 42.8549 26.8828 42.8874 26.763 42.8874C26.5016 42.8874 26.3823 42.5499 26.1647 42.5499C26.034 42.5499 25.9038 42.4084 25.8169 42.3323C25.7732 42.2896 25.6209 42.1265 25.6209 42.1049ZM25.1965 40.2225C25.055 40.0157 25.392 39.9725 25.4794 40.0595C25.6538 40.2334 25.8385 40.4834 26.034 40.6794C26.1215 40.7555 26.4039 41.0601 26.4039 41.1799C26.4039 41.3651 26.2948 41.485 26.121 41.3651C26.0011 41.289 26.0011 41.1583 25.9142 41.0822C25.838 41.006 25.6749 40.9844 25.5983 40.8975C25.4578 40.756 25.3709 40.3748 25.1965 40.2225ZM25.9579 40.2225C25.9579 40.1135 25.8817 39.9941 25.7948 39.9396C25.7732 39.9175 25.6749 39.7981 25.6533 39.776C25.6312 39.7328 25.6312 39.6346 25.6312 39.5697C25.6312 39.5152 25.6312 39.4715 25.6966 39.4715C25.838 39.4715 26.0011 39.4499 26.0772 39.5913C26.0772 39.5913 26.1426 39.7004 26.1426 39.7112C26.1426 39.8748 26.1642 40.0595 26.1642 40.2225C26.1647 40.4623 26.0016 40.2009 25.9579 40.2225ZM24.3153 40.0595C24.3153 39.8419 24.3369 39.668 24.4676 39.4936C24.6311 39.2652 24.7505 39.0147 24.8482 38.7322C24.8807 38.6561 24.9573 38.2209 25.0988 38.2533C25.2943 38.3078 25.2294 38.9493 25.2294 39.1021C25.2078 39.3958 24.8595 39.5805 24.751 39.8419C24.5987 40.1901 24.5766 40.0487 24.3153 40.0595ZM23.7386 39.668C23.7386 39.4941 23.8039 39.2436 23.8476 39.0805C23.8693 39.0044 23.9999 38.8521 24.0544 38.7538C24.1306 38.5799 24.163 38.2214 24.163 38.0254C24.163 37.7862 24.4022 37.7203 24.4676 37.9492C24.5761 38.3083 24.5108 38.9287 24.3153 39.2333C24.2278 39.3639 24.0653 39.4833 23.9886 39.5594C23.9454 39.5918 23.7823 39.6135 23.7386 39.668ZM23.434 36.7959C23.434 36.676 23.8363 36.8391 23.8363 37.0788C23.8363 37.5902 23.7818 38.188 23.6841 38.689C23.6517 38.8845 23.3142 39.4288 23.3142 39.4833C23.3142 39.581 23.3034 39.6788 23.2818 39.7662C23.2386 39.9617 22.6943 40.4952 22.792 40.0492C22.8245 39.9077 22.9551 39.7014 22.9875 39.581C23.1727 39.0156 23.3898 38.4061 23.3898 37.7862C23.3908 37.5356 23.3363 37.0135 23.434 36.7959ZM21.5301 40.9191C21.5301 40.647 21.8131 40.4293 21.8568 40.1793C21.8784 40.06 21.846 39.8094 21.9108 39.7333C22.0415 39.5481 22.1608 39.5805 22.2046 39.2657C22.2699 38.885 22.3028 38.1993 22.542 37.9055C22.5528 37.8731 22.6073 37.7749 22.6073 37.7419C22.7051 37.3067 22.7704 37.9925 22.7704 38.101C22.7704 38.7646 22.3568 39.6459 22.2375 40.2987C22.1942 40.5924 21.9437 40.6578 21.8573 40.8208C21.846 40.8754 21.5301 40.9731 21.5301 40.9191ZM20.5295 41.3106C20.5295 40.756 20.9323 39.6788 21.1932 39.1458C21.3454 38.8305 21.4324 38.4822 21.4324 38.1015C21.4324 37.9384 21.9869 37.4271 21.9869 37.601C21.9869 38.384 21.6284 39.5589 21.3779 40.31C21.2909 40.56 21.0841 40.8105 20.9643 41.0389C20.9318 41.1259 20.812 41.2344 20.7466 41.3106C20.7034 41.3543 20.4529 41.3543 20.4642 41.3543C20.4966 41.3538 20.5624 41.3214 20.5295 41.3106ZM19.4852 40.0157C19.4852 39.8743 19.7352 39.4499 19.7898 39.2652C19.833 39.1016 20.1488 37.6874 20.3989 37.9379C20.9755 38.5146 20.4647 41.8543 19.4852 41.8543C19.1586 41.8543 19.0392 42.0395 19.0392 41.7021C19.0392 41.1583 19.4852 40.5708 19.4852 40.0157ZM26.0669 44.0196C24.8807 44.9662 21.5409 46.6854 19.7898 47.1849C18.9194 47.4355 14.7637 47.9247 14.2524 48.4252C12.6746 50.0138 15.7756 49.9048 16.6239 49.9048C19.3978 49.9048 21.4977 50.8621 23.521 52.4394C25.5556 54.028 29.0152 54.4956 30.6465 54.5393C31.202 54.5496 30.5929 58.4336 30.9844 58.8364C31.3759 59.2279 31.4412 61.1534 31.093 61.654C30.9299 61.8824 30.027 63.6881 29.8527 63.6881C29.3413 63.6881 29.5152 62.6221 29.5152 62.2739C29.5152 61.3165 29.3413 60.6966 28.7209 60.0767C28.3619 58.1723 25.5988 56.4752 21.2693 55.4967C16.6893 54.4627 13.7843 53.386 9.50927 52.5042C5.69062 51.3185 8.128 48.8383 11.1956 45.9987C13.9483 43.4532 16.2 40.9947 18.6585 39.613C18.5495 40.559 18.3211 41.4403 17.8097 42.2124C18.0926 42.8761 18.2886 42.8544 18.6585 42.8328C20.7147 42.7459 22.5857 40.7334 24.8271 40.6244C24.7618 42.1594 25.3817 43.0946 26.0669 44.0196ZM27.1441 54.9313C27.1982 54.9313 27.6447 54.8227 27.6447 54.8227H28.384C28.5583 54.8227 28.8958 54.9313 28.9498 55.0394C29.0584 55.3223 29.4612 55.6706 29.4612 56.0621C29.4612 56.2364 29.4612 56.2915 29.2873 56.2915C29.2333 56.2915 28.9498 55.8887 28.8958 55.8336C28.6674 55.6052 28.493 55.3223 28.1015 55.3223C27.8731 55.3223 27.1441 55.2688 27.1441 54.9313ZM18.0818 35.6641C18.1035 35.392 18.4517 34.9244 18.7239 34.8261C19.0284 34.7392 19.3113 34.4238 19.5614 34.2824C19.9529 34.054 20.7909 33.7057 21.2806 33.7057C21.7158 33.7057 21.7919 34.0972 21.4442 34.304C20.813 34.6739 20.3778 34.9897 19.5835 35.1312C19.3113 35.1744 18.9306 35.3704 18.6806 35.4794C18.6806 35.4794 18.0818 35.7624 18.0818 35.6641ZM14.4587 33.967C14.6439 34.5545 14.97 34.5982 15.0899 35.4136C15.0899 35.4794 15.0683 36.4584 15.3183 36.0885C15.503 35.7835 15.4598 35.3159 15.8297 35.0442C16.7109 34.359 18.103 34.1743 19.2131 34.0544C19.3767 34.0544 20.0938 33.7715 19.5176 33.7715C18.4296 33.7715 17.1785 33.913 16.1126 34.1738C15.6882 34.2608 15.4598 34.1954 15.0899 34.0107C14.97 33.967 14.4371 33.7278 14.4587 33.967ZM26.7959 44.5309C22.7925 46.9786 19.3978 48.9803 15.4377 48.6541L15.2097 48.774H15.1007L15.0467 48.8285C15.0467 48.8821 15.1007 49.0569 15.1007 49.1105C22.542 48.2076 22.346 51.9177 26.0124 52.853C26.9482 53.0814 27.8726 53.7126 28.8953 53.7126C29.5914 53.7126 30.8759 53.6473 31.3651 54.1365C31.7237 54.4951 31.6259 55.0939 31.6913 55.6485C31.6913 56.4103 31.4629 57.9547 31.789 58.608C32.376 59.7834 32.431 61.654 31.5606 62.5892C31.2448 62.9375 31.1028 63.5142 30.6686 63.8074C30.5379 63.9052 30.5379 64.4062 30.3424 64.6017C30.0487 64.8955 29.4283 65.0256 29.0913 64.6995C28.7976 64.4057 28.8958 63.4813 28.8958 63.0569C28.8958 62.2297 28.5691 61.6417 28.1452 61.0439C28.1452 60.7831 26.927 58.5417 26.6549 58.4115C25.0123 57.5951 24.022 56.9099 21.9879 56.5071C20.1822 56.1485 16.092 54.6361 14.4489 54.528C14.0574 54.5059 10.0427 52.9827 9.48815 52.9827C7.63875 52.9827 6.98594 52.2326 6.98594 50.5134C6.98594 47.7179 9.97789 47.2611 11.0006 45.2265C13.8614 41.8539 16.5596 39.7323 19.1487 38.634C19.1487 38.4925 19.7249 37.655 19.8124 37.5464C19.9101 37.4266 20.5084 35.6641 20.1931 35.6641C19.3988 35.6641 17.1034 37.1982 17.1034 37.122C17.1034 36.5238 17.3318 35.9255 17.68 35.4573C18.659 34.1738 16.2988 35.3704 15.9937 35.7619C15.7329 36.0885 15.0147 36.8283 15.058 37.2743C14.6665 37.655 14.2858 39.026 14.2858 37.8402C14.2858 37.405 13.1761 38.8953 12.991 39.026C12.7301 39.2107 11.3375 39.9072 11.8052 39.5476C12.1643 39.2868 13.1761 38.1447 11.9899 38.7425C11.3154 39.08 9.43314 39.6675 9.47685 39.6454C11.62 38.5903 10.1729 38.8187 8.93308 39.3079C8.62854 39.4386 6.61556 39.6454 7.05078 39.6233C7.74682 39.5692 9.53089 38.383 8.23655 38.6335C7.85587 38.7204 7.49679 39.1556 7.18144 39.2097C7.08369 39.2318 6.0718 39.4165 6.25698 39.3079C6.40926 39.2097 6.61557 39.1011 6.69219 38.9488C6.74672 38.8398 6.89899 38.5574 6.69219 38.688C6.35473 38.8948 5.29962 39.2863 5.65869 38.742C5.84339 38.4812 5.39737 38.7966 5.35414 38.7966C4.2445 39.1556 4.41839 38.6335 5.278 38.4267C5.78935 38.3068 6.38764 37.6869 6.97562 37.5022C8.62903 36.9585 6.7143 36.0335 6.09439 37.2738C6.74721 36.621 6.71479 36.1858 7.87846 35.9029C8.75969 35.6961 9.43412 34.5864 7.78071 35.1307C7.36711 35.2613 8.34609 34.5216 8.42272 34.4671C8.83632 34.1841 10.3591 34.0319 10.0545 33.7165C9.86982 33.5421 9.22732 33.379 9.24942 33.3358C9.45622 33.02 10.5659 33.1727 10.9574 33.1727C11.1858 33.1727 12.2414 33.4557 12.2414 33.2051C12.2414 32.8461 11.0011 32.8137 10.7943 32.8137C10.4568 32.8137 11.1317 32.7375 11.1858 32.7375C12.8937 32.7375 14.471 33.662 16.0379 33.662C15.3198 33.0529 15.026 32.433 15.1675 31.8126C18.018 32.683 21.1838 31.9216 23.7077 32.4654C24.4253 30.9967 25.5025 30.3552 26.732 30.0938C26.6672 26.7212 27.2434 23.5662 28.7342 20.7162C28.8865 20.39 28.549 19.6065 28.3098 20.5207C27.7228 22.8161 26.3302 24.3717 23.8059 25.2206C21.9349 25.6337 19.9985 27.0262 18.4753 28.9085C17.9202 29.583 16.4515 32.237 14.0692 30.6705C13.6885 30.4205 13.6561 29.8875 12.6766 29.4631C11.785 29.0716 10.2942 28.7563 9.64141 28.299C9.33686 28.0814 8.93456 27.8421 8.76018 27.5808C8.53177 27.2434 8.53177 26.8956 8.22722 26.7109C7.60732 26.3189 7.30277 25.9058 7.26985 25.7206C6.92159 24.0888 7.3568 23.5775 8.56419 24.1974C10.3699 25.1223 12.3067 26.0905 14.3845 25.3507C16.7345 24.524 18.2793 22.0218 20.5747 19.6719C23.0332 17.1588 25.5462 15.4509 27.4723 13.3402C29.5933 11.0119 31.791 10.9902 33.075 14.4061C34.892 19.2578 36.0665 24.5127 36.3936 30.2024C36.9261 30.5182 37.405 31.0404 37.8289 31.758C37.8289 31.2251 38.6998 30.2785 38.8413 29.5275C39.0368 28.5485 38.9941 27.0361 38.6561 26.1332C38.2101 24.9691 37.6447 23.1201 37.906 21.76C37.906 20.8572 37.9817 22.4452 38.3196 21.956C38.8089 21.2378 38.6237 20.2913 38.6237 19.4209C38.6237 19.1595 38.8413 18.1806 38.8413 18.855C38.8413 18.9748 38.7656 20.672 39.1896 20.2584C39.6788 19.7686 39.4833 18.8221 39.4833 18.1039C39.4833 17.7665 39.7549 16.9727 39.7549 17.7994V19.3875C39.7549 20.0295 40.201 19.159 40.201 18.8977V17.1574C40.201 16.8965 40.3208 16.7438 40.3208 17.0483C40.3208 17.2767 40.7668 18.2233 40.9952 18.2233C41.4521 18.2233 41.148 17.0483 41.1804 16.7438C41.1804 17.1574 41.8981 18.2562 42.0833 18.7459C42.1589 18.9743 42.464 20.5516 42.6924 19.8448C43.2911 18.0278 42.8451 21.0089 42.8451 21.3135C42.8451 22.5209 43.5196 21.3896 43.7047 21.5748C43.9332 21.8032 43.106 24.1424 43.3344 24.1424C43.857 24.1424 43.9332 23.6094 43.7047 24.327C43.3344 25.5349 41.2566 27.0036 41.2566 27.9826C41.2566 28.7332 40.8872 29.2661 40.6917 29.832C41.8008 29.3423 42.9109 28.1133 44.0314 26.5576C43.8894 29.8536 42.3343 32.2581 39.3536 33.7705C41.3445 35.3586 42.5195 37.8608 42.9006 41.2443C44.8262 42.5931 46.6643 44.0839 48.133 46.2055C48.4591 46.6726 48.8507 46.2929 48.5137 45.8896C46.4359 43.4527 46.2944 41.1244 46.6638 38.5023C47.012 35.9893 46.2399 33.7047 45.2496 31.7467C43.7377 29.4734 44.5098 28.3309 47.5445 28.3309C49.2741 25.9048 51.6029 25.1759 54.333 25.6111C55.4653 25.7854 55.2147 25.9485 54.4426 26.623C51.9944 28.7008 49.9382 30.8331 51.0154 34.4125C52.2336 38.4267 53.583 42.4521 54.333 47.0106C55.8892 49.9264 55.0075 53.1246 52.2444 52.7218C44.8463 51.6446 38.7111 49.415 33.9238 46.2384C33.2818 46.2384 33.3471 47.4895 33.3471 48.0544C33.3471 48.7077 34.4352 49.3821 34.4352 49.5781C34.4352 49.9917 33.6197 49.6213 33.6522 49.6538C33.7931 49.7844 33.9572 50.0565 34.1635 50.1548C34.4022 50.2633 34.7726 50.4918 34.9686 50.6337C35.4475 50.9378 36.4584 51.4388 37.0361 51.5144C38.0146 51.5144 37.2424 51.8524 36.7964 51.9501C36.6009 51.9826 34.5658 51.8848 35.0447 52.352C36.0571 53.3747 37.2753 53.4071 38.7327 53.4071C39.5059 53.4071 40.1803 53.5387 40.8548 53.745C41.5724 53.9847 42.3122 55.0939 42.9213 55.2358C42.9213 55.5728 41.9752 55.0615 42.3122 55.3989C42.8235 55.9103 43.4002 56.149 44.0093 56.5523C44.0093 56.5523 45.0865 57.129 44.5103 57.129C44.2377 57.129 43.5633 56.5199 43.8683 57.1614C43.9336 57.292 45.6632 58.3472 45.0865 58.3147C43.3997 58.1404 45.1518 58.5864 45.7285 58.9567C45.8695 59.0545 46.707 59.7618 46.0326 59.4239C45.9348 59.3915 45.6956 59.1198 45.5979 59.1198C44.4445 59.0221 44.2372 59.6636 45.1518 59.8375C45.4235 59.8699 43.8683 59.8051 43.3241 59.4568C43.3241 59.4568 42.8884 59.2284 42.8884 59.359C42.8884 59.6317 43.2263 59.9028 43.465 59.9681C44.4445 60.2732 42.715 60.2079 42.2468 59.9681C41.3661 59.5334 40.0826 59.1527 41.6377 60.2079C42.3446 60.675 39.2009 58.9567 39.2009 59.1527C39.2009 59.7294 39.2009 59.6317 38.3525 59.0874C37.8191 58.7495 37.0361 58.4783 36.7311 57.8363C36.089 56.5199 35.3822 55.508 34.4352 54.3875C34.5015 54.5182 34.5329 54.5182 34.5329 54.6601V56.6834C34.1959 56.5528 33.184 54.7569 33.0102 54.3551C32.6722 53.5068 32.0307 52.9954 31.454 52.4296C31.3233 52.2886 31.0846 52.2886 30.8449 52.2886C30.4102 52.2886 29.6591 52.5926 30.2687 51.9836C30.4107 51.8529 30.8788 51.8858 30.8788 51.6456C30.8788 51.1352 28.9199 52.2223 28.9199 50.7324C28.7784 50.4284 28.8113 49.3836 28.8874 49.0456C28.9199 48.8069 29.0505 47.8923 28.8545 47.7621C28.2779 47.3814 28.7455 45.8587 28.4738 45.728C28.2454 45.6298 27.0597 44.8792 27.0597 44.6071C27.0489 44.5963 27.038 44.5747 27.0159 44.553C27.0012 44.5394 26.982 44.5317 26.9619 44.5314C26.9403 44.5314 26.8421 44.5639 26.8312 44.5422C26.8288 44.5417 26.7959 44.5196 26.7959 44.5309C26.7959 44.5309 26.7959 44.5417 26.7851 44.5417C26.7851 44.5417 26.7743 44.5526 26.7635 44.5526L26.7959 44.5309ZM10.5644 38.3515C10.5099 38.384 10.9018 38.384 10.9559 38.384C11.1627 38.384 11.4888 38.384 11.6519 38.2754C11.7826 38.1993 11.7826 38.047 11.7826 37.8947C11.7826 37.7862 11.4888 37.6555 11.4127 37.6555C11.1843 37.6555 11.0752 37.9384 10.923 37.993C10.7712 38.047 10.586 38.1777 10.5644 38.3515ZM10.4883 37.7095V37.318C10.4883 37.2198 10.8473 36.9044 10.9019 36.9044C10.978 36.8828 11.0541 36.8828 11.1303 36.8828C11.2064 36.8828 11.3695 36.9919 11.3911 37.0351C11.4132 37.0896 11.4132 37.2419 11.4132 37.318C11.4132 37.7095 10.7712 37.7095 10.4883 37.7095ZM12.4246 37.9925C12.4246 37.7857 12.5769 37.655 12.6854 37.5027C12.6854 37.4806 12.7832 37.4045 12.7832 37.4045C12.8053 37.35 12.9138 37.1982 12.99 37.1982H13.2729C13.4252 37.1982 13.5121 37.2959 13.5337 37.4266C13.5337 37.4806 13.5559 37.7311 13.5559 37.7857C13.5121 37.9379 12.9684 38.0249 12.8593 38.0249C12.7291 38.0254 12.5553 38.0254 12.4246 37.9925ZM11.957 37.2419H12.1092H11.9354H12.2399C12.4462 37.1987 12.8382 37.1112 12.9905 36.959C13.0121 36.9373 13.0121 36.7522 13.0121 36.6976C13.0121 36.6539 12.9905 36.6215 12.9689 36.5778C12.9143 36.4471 12.7621 36.4687 12.6314 36.4687C12.5553 36.4687 12.4462 36.5233 12.3701 36.5449C12.3155 36.5773 12.1087 36.7517 12.0871 36.8057C12.0115 36.959 11.957 37.0351 11.957 37.2419ZM11.3366 36.4913C11.3366 36.3715 11.3366 36.2084 11.369 36.0885C11.3906 35.8817 11.7276 35.6749 11.9565 35.6749C12.0871 35.6749 12.3701 35.7187 12.3701 35.9034C12.3701 35.9574 12.3701 36.2079 12.3485 36.2408C12.2723 36.317 12.1638 36.3715 12.0876 36.4147C11.9354 36.5237 11.5218 36.4913 11.3366 36.4913ZM13.6865 37.0135C13.6865 36.9373 13.9149 36.9373 13.9478 36.8828C13.9478 36.8612 14.0024 36.8612 14.024 36.8288C14.1217 36.7851 14.5132 36.6004 14.5132 36.4913V36.4476C14.5132 36.4152 14.5894 36.4152 14.6223 36.3931C14.72 36.2953 14.7961 36.1647 14.7961 36.0016C14.7961 35.8493 14.6655 35.6749 14.5132 35.6749C14.2848 35.6749 14.1217 35.7948 13.9694 35.9579C13.8933 36.034 13.741 36.1647 13.6865 36.2629C13.5888 36.4152 13.632 36.8612 13.6865 37.0135ZM12.7837 35.9038C12.7837 35.7732 12.8058 35.5885 12.8927 35.5124C12.9689 35.4362 13.1211 35.1749 13.2189 35.1533C13.3495 35.1317 13.4802 35.0555 13.6325 35.0555C13.7415 35.0555 14.2529 34.9686 14.3285 35.0555C14.4155 35.1317 14.5898 35.4362 14.383 35.4907C14.2092 35.5453 13.8938 35.6214 13.741 35.7192C13.6865 35.7516 13.5563 35.7737 13.5126 35.8277C13.3495 35.98 12.9143 35.9038 12.7837 35.9038ZM10.9559 34.6635V34.468C10.9559 34.2833 11.2388 34.1306 11.3366 34.0328C11.5434 33.8265 11.9349 33.7504 12.2178 33.7504C12.3485 33.7504 12.4462 33.8265 12.5223 33.9027C12.5769 33.9572 12.5769 34.1311 12.5769 34.2401C12.5769 34.4685 11.9349 34.5339 11.7502 34.5339C11.6195 34.5339 11.4456 34.5879 11.282 34.5879C11.2059 34.5879 11.1622 34.6095 11.1298 34.6424C11.1298 34.6424 10.978 34.6414 10.9559 34.6635ZM12.7837 34.8703C12.7837 34.5226 13.1427 34.2612 13.4257 34.1306C13.5892 34.0544 13.9478 34.0761 14.1217 34.0761C14.2087 34.0761 14.3069 34.163 14.3614 34.2067C14.383 34.2391 14.383 34.3914 14.383 34.4459C14.383 34.6414 14.0785 34.6852 13.9154 34.7181C13.5563 34.7942 13.1757 34.8482 12.7837 34.8703ZM10.8689 35.5664C10.8689 35.2289 11.1843 34.946 11.4456 34.8158C11.674 34.7181 11.957 34.7181 12.2178 34.7181C12.3917 34.7181 12.4786 34.8158 12.4786 35.001C12.4786 35.2839 11.9565 35.5124 11.7502 35.5448C11.6195 35.5664 11.3695 35.5448 11.2388 35.5664C11.2064 35.5664 10.8689 35.6209 10.8689 35.5664ZM9.24795 35.6749C9.30247 35.7511 9.60702 35.7732 9.71607 35.7732C9.84673 35.7732 10.1729 35.697 10.2815 35.6425C10.4121 35.5885 10.5644 35.4141 10.7167 35.3051C10.9018 35.2073 10.8257 34.946 10.6951 34.8153C10.586 34.7176 10.0968 34.7937 9.9661 34.7937C9.81382 34.7937 9.68316 34.946 9.58541 35.0545C9.55299 35.0762 9.43314 35.1523 9.40072 35.2068C9.34619 35.338 9.26956 35.5119 9.24795 35.6749ZM9.58541 36.4913C9.60702 36.2084 9.84673 35.8272 10.1729 35.8272C10.3792 35.8272 10.6189 35.7511 10.7167 35.9795C10.7491 36.0556 10.7928 36.1102 10.7928 36.2079C10.7928 36.5238 10.5099 36.5778 10.2598 36.5778H9.68365C9.63944 36.5783 9.60702 36.4692 9.58541 36.4913ZM9.32409 37.4266C9.32409 37.4806 9.45475 37.5573 9.5525 37.5573H9.86835C10.0206 37.5573 10.336 37.2964 10.336 37.1437C10.336 37.0675 10.336 36.8062 10.2815 36.7851L10.2053 36.6981C10.2053 36.6765 10.0747 36.6765 10.0206 36.6765C9.94448 36.6765 9.79221 36.6765 9.71607 36.6981C9.63994 36.7305 9.50927 36.9049 9.45475 36.9595C9.32409 37.0896 9.32409 37.2419 9.32409 37.4266ZM8.96501 38.4822C8.96501 38.384 8.96501 38.1447 8.98663 38.0686C9.04115 37.9709 9.11729 37.8618 9.22585 37.7641C9.3236 37.6555 9.66106 37.6879 9.84624 37.6879C9.99852 37.6879 10.053 37.7862 10.053 37.9384C10.053 38.2214 9.86835 38.352 9.66106 38.4822C9.58492 38.5362 9.3457 38.5146 9.24795 38.5146C9.17181 38.5146 8.93259 38.5908 8.96501 38.4822ZM8.29058 37.0135V36.8067C8.29058 36.7851 8.39914 36.6544 8.39914 36.622C8.42076 36.5242 8.55142 36.3715 8.57303 36.2953C8.60545 36.1863 8.70369 36.0885 8.81225 36.0885C8.98614 36.0885 9.1389 36.0561 9.26907 36.1863C9.37812 36.2953 9.34521 36.4913 9.34521 36.6215C9.34521 36.7301 8.96452 36.959 8.88789 36.959C8.7366 36.959 8.47577 36.9919 8.29058 37.0135ZM7.38774 38.2533C7.38774 38.101 7.4963 37.9704 7.59405 37.9158C7.64858 37.8942 7.74682 37.6874 7.80085 37.6329C7.90941 37.5238 8.15943 37.4261 8.36672 37.4482C8.45471 37.462 8.53485 37.5069 8.59268 37.5746C8.65051 37.6423 8.68222 37.7285 8.68208 37.8176C8.68208 37.9374 8.64966 38.1005 8.5298 38.1442C8.21445 38.3078 7.72471 38.2533 7.38774 38.2533Z" fill="black"/>
</g>
<defs>
<clipPath id="clip0_185_110">
<rect width="58.0605" height="73.83" fill="white" transform="translate(0.78418 0.585938)"/>
</clipPath>
</defs>
</svg>
