<svg width="47" height="46" viewBox="0 0 47 46" fill="none" xmlns="http://www.w3.org/2000/svg">
<path d="M13.544 30.3541C14.3219 31.1316 15.3763 31.5691 16.4761 31.5706C17.5735 31.5687 18.6255 31.1328 19.4025 30.3579C20.1795 29.583 20.6182 28.5322 20.623 27.4349V27.4224C20.623 26.3223 20.1859 25.2672 19.408 24.4893C18.63 23.7114 17.5749 23.2743 16.4747 23.2743C15.4305 23.2775 14.4261 23.675 13.6625 24.3873C12.8989 25.0996 12.4326 26.074 12.3569 27.1155C12.3541 27.1585 12.3483 27.2006 12.3426 27.2426C12.3346 27.3019 12.3265 27.361 12.3265 27.4224C12.3284 28.5223 12.7662 29.5765 13.544 30.3541Z" fill="#13637E"/>
<path d="M27.3744 30.3579C28.1514 31.1328 29.2034 31.5687 30.3008 31.5706C31.4009 31.5691 32.4555 31.1314 33.2334 30.3536C34.0113 29.5757 34.4489 28.5211 34.4504 27.4211C34.4502 26.3209 34.013 25.2659 33.2349 24.4881C32.4568 23.7103 31.4017 23.2735 30.3015 23.2736C29.2013 23.2738 28.1463 23.711 27.3684 24.4891C26.9833 24.8743 26.6778 25.3317 26.4694 25.835C26.2611 26.3383 26.1539 26.8777 26.1539 27.4224V27.4349C26.1587 28.5322 26.5975 29.583 27.3744 30.3579Z" fill="#13637E"/>
<path fill-rule="evenodd" clip-rule="evenodd" d="M23.5938 45.6055C36.1874 45.6055 46.3966 35.3964 46.3966 22.8028C46.3966 10.2091 36.1874 0 23.5938 0C11.0001 0 0.790894 10.2091 0.790894 22.8028C0.790894 35.3964 11.0001 45.6055 23.5938 45.6055ZM32.045 11.7217C32.8324 12.3065 33.4083 13.1316 33.6857 14.0724L37.1578 25.6429C37.1951 25.7715 37.2159 25.9042 37.2159 26.0397V27.4211C37.2141 29.2544 36.4849 31.0122 35.1885 32.3086C33.892 33.605 32.1342 34.3341 30.3008 34.336C28.9572 34.3337 27.6434 33.9402 26.5197 33.2036C25.3961 32.4669 24.5113 31.419 23.9734 30.1879H22.8036C22.2656 31.419 21.3808 32.4669 20.2572 33.2036C19.1336 33.9402 17.8197 34.3337 16.4761 34.336C14.6429 34.3341 12.8853 33.6052 11.5889 32.3091C10.2925 31.013 9.56323 29.2556 9.56104 27.4224V26.0397C9.56152 25.9054 9.58108 25.7718 9.61911 25.6429L13.0912 14.0724C13.3678 13.1327 13.9424 12.3084 14.7282 11.7236C15.514 11.1388 16.4686 10.8252 17.4482 10.83C18.5863 10.8298 19.6833 11.2554 20.5236 12.023C21.3638 12.7905 21.8866 13.8446 21.9891 14.9781H24.7892C24.8903 13.8458 25.4114 12.7924 26.2498 12.0248C27.0883 11.2572 28.1836 10.831 29.3204 10.83C30.3013 10.8238 31.2576 11.1368 32.045 11.7217Z" fill="#13637E"/>
</svg>
